<svg xmlns="http://www.w3.org/2000/svg" xmlns:xlink="http://www.w3.org/1999/xlink" width="500" zoomAndPan="magnify" viewBox="0 0 375 374.999991" height="500" preserveAspectRatio="xMidYMid meet" version="1.0"><defs><clipPath id="37f9a5fd54"><path d="M 55 106.1875 L 283 106.1875 L 283 342 L 55 342 Z M 55 106.1875 " clip-rule="nonzero"/></clipPath><clipPath id="54fe8ae6d8"><path d="M 215 45 L 354.03125 45 L 354.03125 168.570312 L 215 168.570312 Z M 215 45 " clip-rule="nonzero"/></clipPath></defs><path fill="#111111" d="M 89.789062 370.65625 C 90.136719 371.242188 90.523438 371.855469 90.972656 372.414062 C 91.417969 372.972656 91.929688 373.472656 92.527344 373.828125 C 97.167969 376.589844 102.902344 376.039062 108.21875 375.722656 C 108.980469 375.675781 109.730469 375.636719 110.46875 375.609375 C 117.667969 375.226562 124.769531 372.882812 132.007812 373.65625 C 132.808594 373.703125 133.605469 373.765625 134.40625 373.835938 C 140 374.332031 145.582031 375.339844 151.226562 375.519531 C 159.261719 375.777344 167.347656 375.640625 175.359375 374.558594 C 176.632812 374.390625 178.84375 374.210938 179.652344 372.574219 C 180.464844 370.929688 179.621094 369.667969 178.4375 369.109375 C 172.722656 366.410156 166.507812 366.40625 160.539062 366.121094 C 148.382812 365.542969 136.386719 369.367188 124.273438 368.414062 C 122.925781 368.304688 121.585938 368.109375 120.25 367.871094 C 117.804688 367.433594 115.257812 366.945312 112.675781 366.554688 C 111.816406 366.425781 110.953125 366.304688 110.089844 366.203125 C 105.949219 365.90625 101.476562 365.382812 97.28125 365.96875 C 96.441406 366.089844 95.613281 366.25 94.804688 366.46875 C 93.175781 367.015625 91.585938 367.601562 90.191406 368.710938 C 89.914062 369.257812 89.796875 369.957031 89.789062 370.65625 Z M 89.789062 370.65625 " fill-opacity="0.05" fill-rule="nonzero"/><path fill="#300000" d="M 112.746094 320.089844 C 112.800781 320.882812 112.863281 321.675781 112.929688 322.46875 C 112.960938 322.84375 112.992188 323.214844 113.027344 323.589844 C 113.042969 323.757812 113.058594 323.925781 113.070312 324.089844 C 113.042969 323.785156 113.113281 324.519531 113.121094 324.605469 C 113.273438 326.183594 113.445312 327.757812 113.632812 329.328125 C 114.007812 332.515625 114.449219 335.6875 114.933594 338.84375 C 115.894531 345.125 117.027344 351.34375 118.1875 357.554688 C 118.847656 361.070312 119.511719 364.582031 120.164062 368.101562 C 120.375 369.261719 119.894531 370.644531 119.054688 370.921875 C 118.222656 371.199219 117.335938 370.5625 117.105469 369.320312 C 114.785156 356.753906 112.246094 344.242188 110.679688 331.414062 C 110.449219 329.539062 110.242188 327.65625 110.058594 325.765625 C 109.875 323.878906 109.710938 321.984375 109.574219 320.089844 C 109.488281 318.890625 110.359375 317.738281 111.152344 317.789062 C 112.085938 317.851562 112.648438 318.804688 112.746094 320.089844 Z M 112.746094 320.089844 " fill-opacity="1" fill-rule="nonzero"/><path fill="#300000" d="M 119.871094 368.652344 C 119.558594 367.992188 119.183594 367.394531 118.65625 366.878906 C 118.652344 366.871094 118.648438 366.867188 118.640625 366.859375 C 118.605469 366.804688 118.574219 366.746094 118.550781 366.683594 C 118.421875 366.476562 118.25 366.292969 118.082031 366.117188 C 117.875 365.894531 117.667969 365.675781 117.445312 365.464844 C 116.382812 364.445312 115.128906 363.6875 113.746094 363.195312 C 111.390625 362.355469 108.570312 362.515625 106.414062 363.839844 C 104.3125 365.132812 102.308594 368.121094 103.617188 370.605469 C 104.285156 371.871094 105.804688 372.484375 107.109375 372.820312 C 108.5 373.179688 109.9375 373.25 111.363281 373.113281 C 112.738281 372.980469 114.097656 372.722656 115.453125 372.433594 C 116.804688 372.140625 118.089844 371.570312 119.289062 370.878906 C 119.65625 370.683594 119.882812 370.371094 119.988281 370.015625 C 120.132812 369.578125 120.09375 369.082031 119.871094 368.652344 Z M 119.871094 368.652344 " fill-opacity="1" fill-rule="nonzero"/><path fill="#300000" d="M 154.394531 320.089844 C 154.449219 320.882812 154.511719 321.675781 154.578125 322.46875 C 154.609375 322.84375 154.640625 323.214844 154.675781 323.589844 C 154.691406 323.757812 154.707031 323.925781 154.71875 324.089844 C 154.691406 323.785156 154.761719 324.519531 154.769531 324.605469 C 154.921875 326.183594 155.09375 327.757812 155.28125 329.328125 C 155.65625 332.515625 156.097656 335.6875 156.582031 338.84375 C 157.542969 345.125 158.675781 351.34375 159.835938 357.554688 C 160.496094 361.070312 161.160156 364.582031 161.8125 368.101562 C 162.023438 369.261719 161.542969 370.644531 160.703125 370.921875 C 159.871094 371.199219 158.984375 370.5625 158.753906 369.320312 C 156.433594 356.753906 153.894531 344.242188 152.328125 331.414062 C 152.097656 329.539062 151.890625 327.65625 151.707031 325.765625 C 151.523438 323.878906 151.359375 321.984375 151.222656 320.089844 C 151.136719 318.890625 152.007812 317.738281 152.800781 317.789062 C 153.734375 317.851562 154.296875 318.804688 154.394531 320.089844 Z M 154.394531 320.089844 " fill-opacity="1" fill-rule="nonzero"/><path fill="#300000" d="M 161.519531 368.652344 C 161.207031 367.992188 160.832031 367.394531 160.304688 366.878906 C 160.300781 366.871094 160.296875 366.867188 160.289062 366.859375 C 160.253906 366.804688 160.222656 366.746094 160.199219 366.683594 C 160.070312 366.476562 159.898438 366.292969 159.734375 366.117188 C 159.527344 365.894531 159.316406 365.675781 159.09375 365.464844 C 158.03125 364.445312 156.777344 363.6875 155.398438 363.195312 C 153.039062 362.355469 150.21875 362.515625 148.0625 363.839844 C 145.960938 365.132812 143.957031 368.121094 145.265625 370.605469 C 145.933594 371.871094 147.453125 372.484375 148.757812 372.820312 C 150.148438 373.179688 151.585938 373.25 153.011719 373.113281 C 154.386719 372.980469 155.75 372.722656 157.101562 372.433594 C 158.453125 372.140625 159.738281 371.570312 160.9375 370.878906 C 161.304688 370.683594 161.53125 370.371094 161.636719 370.015625 C 161.78125 369.578125 161.742188 369.082031 161.519531 368.652344 Z M 161.519531 368.652344 " fill-opacity="1" fill-rule="nonzero"/><g clip-path="url(#37f9a5fd54)"><path fill="#f9db43" d="M 59.707031 299.375 C 56.121094 307.554688 52.746094 317.878906 59.144531 325.96875 C 62.515625 330.308594 67.285156 333.007812 72.632812 333.476562 C 73.5625 333.59375 74.609375 333.59375 75.539062 333.710938 C 83.449219 334.648438 91.007812 335.46875 98.917969 335.9375 C 107.988281 336.464844 117 336.640625 126.015625 336.789062 C 129.019531 336.835938 132.019531 336.882812 135.019531 336.949219 C 153.226562 336.757812 171.019531 339.925781 189.277344 341.449219 C 207.421875 342.976562 225.449219 340.511719 243.046875 336.371094 C 246.574219 335.390625 250.03125 334.179688 253.382812 332.65625 C 254.925781 331.851562 256.425781 330.976562 257.886719 330.050781 C 266.648438 324.496094 274.300781 317.15625 280.007812 308.457031 C 281.304688 305.988281 282.046875 303.65625 282.363281 301.402344 C 282.675781 299.148438 282.5625 296.976562 282.136719 294.832031 C 281.289062 290.546875 279.203125 286.386719 276.835938 281.941406 C 274.527344 277.605469 228.542969 193.394531 199.6875 143.714844 C 199.109375 142.722656 188.054688 125.28125 187.261719 124.078125 C 181.8125 116.625 177.015625 106.488281 166.484375 106.308594 C 154.390625 106.191406 142.292969 107.246094 130.359375 109.410156 C 128.832031 109.90625 127.332031 110.46875 125.882812 111.121094 C 121.535156 113.078125 118.273438 116.613281 115.484375 121.011719 C 113.390625 124.410156 111.59375 127.300781 109.855469 130.695312 C 109.511719 131.425781 109.171875 132.152344 108.835938 132.878906 C 108.5 133.605469 108.164062 134.328125 107.832031 135.054688 C 107.390625 135.992188 106.960938 136.929688 106.539062 137.855469 C 106.121094 138.78125 105.710938 139.703125 105.3125 140.605469 C 104.800781 141.929688 104.304688 143.253906 103.808594 144.578125 C 103.453125 145.953125 103.128906 147.34375 102.835938 148.75 C 102.246094 150.695312 101.675781 152.648438 101.125 154.605469 C 97.820312 166.355469 95.324219 178.316406 92.921875 190.28125 C 91.878906 195.710938 90.871094 201.1875 89.84375 206.699219 C 88.214844 215.847656 86.355469 224.289062 84.222656 232.917969 C 82.761719 238.722656 81.101562 244.542969 79.132812 250.375 C 77.171875 256.210938 74.910156 262.050781 72.320312 267.890625 C 68.910156 275.304688 66.003906 282.929688 63.109375 290.503906 C 61.878906 293.753906 60.753906 296.730469 59.707031 299.375 Z M 59.707031 299.375 " fill-opacity="1" fill-rule="nonzero"/></g><path fill="#300000" d="M 47.589844 263.3125 C 45.320312 261.988281 43.160156 260.5625 41.113281 258.953125 L 41.207031 259.007812 C 38.441406 256.714844 35.78125 254.238281 33.785156 251.273438 L 33.824219 251.421875 C 33.027344 250.289062 32.308594 249.113281 31.660156 247.898438 L 29.109375 250.308594 C 33.019531 256.792969 39.042969 262.066406 45.625 265.699219 C 46.511719 266.105469 47.707031 266.191406 48.21875 265.117188 C 48.511719 264.410156 48.234375 263.613281 47.589844 263.3125 Z M 47.589844 263.3125 " fill-opacity="1" fill-rule="nonzero"/><path fill="#300000" d="M 27.578125 230.175781 C 27.578125 230.144531 27.578125 230.113281 27.582031 230.082031 C 27.578125 229.914062 27.578125 230.152344 27.578125 230.175781 Z M 27.578125 230.175781 " fill-opacity="1" fill-rule="nonzero"/><path fill="#300000" d="M 27.75 234.292969 C 27.683594 233.507812 27.636719 232.722656 27.609375 231.9375 C 27.59375 231.519531 27.582031 231.101562 27.578125 230.683594 C 27.578125 230.488281 27.582031 230.289062 27.578125 230.09375 C 27.578125 230.089844 27.578125 230.085938 27.578125 230.082031 C 27.578125 230.113281 27.578125 230.144531 27.578125 230.175781 C 27.578125 230.152344 27.578125 229.914062 27.578125 230.082031 C 27.582031 229.964844 27.582031 229.847656 27.585938 229.734375 C 27.605469 228.824219 27.125 227.863281 26.121094 227.765625 C 25.28125 227.679688 24.1875 228.265625 24.167969 229.242188 C 24.101562 232.296875 24.3125 235.34375 24.800781 238.332031 C 25.386719 242.660156 26.917969 246.675781 29.109375 250.308594 L 31.660156 247.898438 C 29.429688 243.714844 28.082031 239.078125 27.75 234.292969 Z M 27.75 234.292969 " fill-opacity="1" fill-rule="nonzero"/><path fill="#300000" d="M 26.792969 227.855469 C 26.332031 227.824219 25.894531 227.734375 25.476562 227.601562 C 25.058594 227.464844 24.664062 227.28125 24.292969 227.058594 C 22.28125 225.695312 20.65625 223.5 20.835938 220.8125 C 20.867188 220.398438 20.929688 219.996094 21.027344 219.605469 C 21.480469 217.054688 23.949219 215.257812 26.347656 215.664062 C 30.113281 216.351562 30.894531 221.15625 29.378906 224.421875 C 29.152344 224.976562 28.875 225.5 28.542969 225.972656 C 28.230469 226.421875 27.871094 226.835938 27.457031 227.210938 C 27.261719 227.402344 27.039062 227.613281 26.792969 227.855469 Z M 26.792969 227.855469 " fill-opacity="1" fill-rule="nonzero"/><path fill="#300000" d="M 27.011719 226.308594 C 26.675781 226.28125 26.335938 226.238281 26.011719 226.148438 C 26.289062 226.226562 25.785156 226.058594 25.789062 226.058594 C 25.636719 226 25.488281 225.933594 25.339844 225.863281 C 25.300781 225.84375 24.867188 225.570312 25.164062 225.777344 C 25.0625 225.707031 24.960938 225.632812 24.863281 225.554688 C 24.664062 225.40625 24.472656 225.246094 24.285156 225.082031 C 24.191406 225 24.097656 224.914062 24.007812 224.824219 C 23.964844 224.785156 23.675781 224.476562 23.933594 224.761719 C 23.765625 224.574219 23.601562 224.382812 23.449219 224.183594 C 23.324219 224.019531 23.203125 223.847656 23.09375 223.671875 C 23.027344 223.566406 22.960938 223.457031 22.898438 223.347656 C 23.089844 223.679688 22.835938 223.207031 22.804688 223.140625 C 22.703125 222.910156 22.613281 222.675781 22.539062 222.433594 C 22.511719 222.355469 22.488281 222.273438 22.464844 222.191406 C 22.5625 222.546875 22.460938 222.132812 22.453125 222.078125 C 22.40625 221.824219 22.378906 221.5625 22.367188 221.304688 C 22.363281 221.25 22.386719 220.820312 22.363281 221.171875 C 22.375 220.972656 22.390625 220.773438 22.417969 220.574219 C 22.453125 220.324219 22.507812 220.078125 22.5625 219.828125 C 22.589844 219.703125 22.613281 219.578125 22.644531 219.453125 C 22.542969 219.839844 22.660156 219.4375 22.683594 219.371094 C 22.773438 219.136719 22.882812 218.914062 23.003906 218.695312 C 22.808594 219.050781 23.007812 218.699219 23.054688 218.636719 C 23.125 218.535156 23.203125 218.441406 23.277344 218.34375 C 23.355469 218.25 23.441406 218.164062 23.523438 218.070312 C 23.789062 217.777344 23.269531 218.253906 23.585938 218.015625 C 23.777344 217.871094 23.972656 217.726562 24.167969 217.585938 C 24.488281 217.359375 23.886719 217.703125 24.242188 217.542969 C 24.332031 217.503906 24.421875 217.457031 24.515625 217.417969 C 24.605469 217.378906 24.699219 217.34375 24.792969 217.3125 C 24.867188 217.285156 24.941406 217.261719 25.019531 217.238281 C 24.824219 217.285156 24.8125 217.289062 24.980469 217.25 C 25.21875 217.210938 25.449219 217.183594 25.691406 217.164062 C 26.074219 217.132812 25.386719 217.113281 25.765625 217.171875 C 25.867188 217.1875 25.96875 217.191406 26.066406 217.207031 C 26.167969 217.222656 26.265625 217.246094 26.363281 217.265625 C 26.746094 217.335938 26.058594 217.132812 26.414062 217.28125 C 26.570312 217.34375 27.035156 217.449219 27.121094 217.605469 C 27.0625 217.570312 27.007812 217.539062 26.949219 217.503906 C 27.011719 217.542969 27.070312 217.582031 27.128906 217.625 C 27.214844 217.6875 27.296875 217.757812 27.378906 217.828125 C 27.429688 217.875 27.480469 217.921875 27.535156 217.96875 C 27.808594 218.203125 27.328125 217.699219 27.550781 217.984375 C 27.683594 218.152344 27.816406 218.316406 27.933594 218.5 C 27.988281 218.585938 28.203125 218.820312 27.957031 218.523438 C 28.042969 218.625 28.09375 218.796875 28.144531 218.917969 C 28.21875 219.085938 28.28125 219.261719 28.339844 219.4375 C 28.371094 219.542969 28.402344 219.652344 28.433594 219.757812 C 28.324219 219.367188 28.421875 219.738281 28.4375 219.816406 C 28.523438 220.273438 28.558594 220.730469 28.566406 221.195312 C 28.558594 220.792969 28.566406 221.1875 28.5625 221.261719 C 28.554688 221.417969 28.539062 221.574219 28.523438 221.730469 C 28.492188 222.003906 28.449219 222.277344 28.394531 222.546875 C 28.378906 222.621094 28.359375 222.699219 28.339844 222.777344 C 28.324219 222.851562 28.304688 222.925781 28.28125 223.003906 C 28.34375 222.789062 28.347656 222.765625 28.296875 222.9375 C 28.203125 223.195312 28.113281 223.445312 28.007812 223.695312 C 27.863281 224.03125 27.710938 224.355469 27.542969 224.679688 C 27.523438 224.714844 27.378906 224.9375 27.515625 224.734375 C 27.398438 224.914062 27.277344 225.089844 27.144531 225.261719 C 26.625 225.941406 26.238281 226.234375 25.585938 226.875 C 25.003906 227.445312 25.199219 228.613281 25.816406 229.074219 C 26.5625 229.625 27.371094 229.453125 27.996094 228.839844 C 28.054688 228.78125 28.117188 228.722656 28.175781 228.664062 C 28.371094 228.472656 28.039062 228.792969 28.21875 228.621094 C 28.359375 228.488281 28.5 228.359375 28.640625 228.222656 C 28.96875 227.910156 29.277344 227.585938 29.554688 227.226562 C 30.0625 226.558594 30.464844 225.816406 30.800781 225.050781 C 31.265625 223.976562 31.582031 222.820312 31.632812 221.644531 C 31.738281 219.253906 31.050781 216.566406 28.988281 215.132812 C 26.75 213.582031 23.71875 213.753906 21.667969 215.574219 C 19.46875 217.527344 18.800781 220.734375 19.636719 223.515625 C 20.542969 226.519531 23.445312 229.136719 26.574219 229.402344 C 27.378906 229.472656 28.238281 228.953125 28.324219 228.078125 C 28.402344 227.273438 27.875 226.382812 27.011719 226.308594 Z M 27.011719 226.308594 " fill-opacity="1" fill-rule="nonzero"/><path fill="#300000" d="M 31.015625 224.617188 C 31.152344 224.402344 31.277344 224.179688 31.429688 223.980469 C 31.46875 223.917969 31.515625 223.863281 31.5625 223.808594 C 31.53125 223.839844 31.503906 223.871094 31.472656 223.902344 C 31.386719 223.914062 30.9375 224.070312 30.902344 223.992188 C 30.953125 223.996094 31 224.003906 31.050781 224.011719 C 31.132812 224.027344 31.117188 224.019531 30.996094 223.988281 C 30.878906 223.949219 30.863281 223.945312 30.945312 223.976562 C 30.996094 223.992188 31.042969 224.011719 31.089844 224.035156 C 31.335938 224.121094 30.984375 224.007812 31.003906 223.972656 C 31.03125 223.992188 31.058594 224.015625 31.085938 224.035156 C 31.1875 224.125 31.191406 224.121094 31.097656 224.023438 C 31.019531 223.9375 31.007812 223.925781 31.058594 223.988281 C 31.089844 224.023438 31.117188 224.0625 31.144531 224.105469 C 31.074219 224.117188 30.996094 223.753906 30.992188 223.710938 C 31.035156 223.976562 30.960938 223.4375 30.984375 223.625 C 30.996094 223.726562 31.058594 223.464844 30.980469 223.617188 C 30.925781 223.71875 30.886719 223.839844 30.839844 223.949219 C 30.789062 224.078125 30.765625 224.101562 30.851562 223.964844 C 30.730469 224.167969 30.574219 224.347656 30.421875 224.527344 C 30.34375 224.621094 30.300781 224.667969 30.414062 224.554688 C 30.332031 224.636719 30.234375 224.714844 30.144531 224.789062 C 29.976562 224.925781 29.800781 225.050781 29.621094 225.167969 C 29.539062 225.222656 29.453125 225.269531 29.375 225.320312 C 29.597656 225.183594 29.324219 225.34375 29.277344 225.367188 C 29.082031 225.464844 28.886719 225.542969 28.6875 225.628906 C 27.792969 226.023438 26.882812 226.367188 25.9375 226.613281 C 26.3125 227.582031 26.691406 228.550781 27.070312 229.523438 C 28.320312 229.1875 29.4375 228.242188 30.058594 227.105469 C 30.347656 226.582031 30.644531 226.050781 30.886719 225.507812 C 30.988281 225.28125 31.089844 225.054688 31.175781 224.824219 C 31.34375 224.367188 31.367188 223.9375 31.351562 223.453125 C 31.324219 222.632812 30.40625 221.957031 29.628906 222.085938 C 28.746094 222.230469 28.242188 222.945312 28.273438 223.820312 C 28.289062 224.207031 28.328125 223.570312 28.335938 223.574219 C 28.34375 223.582031 28.238281 223.824219 28.230469 223.84375 C 28.140625 224.054688 28.050781 224.261719 27.953125 224.464844 C 27.757812 224.886719 27.53125 225.304688 27.296875 225.707031 C 27.378906 225.5625 27.316406 225.671875 27.257812 225.746094 C 27.195312 225.824219 27.132812 225.902344 27.066406 225.976562 C 26.992188 226.070312 26.933594 226.128906 27.054688 226.011719 C 26.988281 226.074219 26.917969 226.132812 26.84375 226.191406 C 26.773438 226.246094 26.699219 226.300781 26.625 226.351562 C 26.3125 226.574219 26.746094 226.332031 26.546875 226.398438 C 26.339844 226.472656 26.148438 226.558594 25.933594 226.613281 C 25.148438 226.824219 24.75 227.929688 25.058594 228.640625 C 25.433594 229.488281 26.226562 229.742188 27.066406 229.519531 C 28.296875 229.199219 29.539062 228.742188 30.664062 228.140625 C 31.964844 227.441406 33.140625 226.460938 33.738281 225.066406 C 34.046875 224.347656 34.210938 223.578125 33.933594 222.824219 C 33.675781 222.121094 33.136719 221.628906 32.511719 221.269531 C 31.898438 220.917969 31.039062 220.75 30.363281 220.996094 C 29.53125 221.296875 29.0625 221.9375 28.605469 222.652344 C 28.167969 223.335938 28.113281 224.3125 28.835938 224.847656 C 29.453125 225.304688 30.546875 225.347656 31.015625 224.617188 Z M 31.015625 224.617188 " fill-opacity="1" fill-rule="nonzero"/><path fill="#300000" d="M 256.003906 289.0625 C 258.265625 290.410156 260.414062 291.851562 262.445312 293.476562 L 262.355469 293.421875 C 265.101562 295.738281 267.738281 298.238281 269.710938 301.21875 L 269.675781 301.070312 C 270.460938 302.207031 271.171875 303.394531 271.808594 304.613281 L 274.378906 302.222656 C 270.523438 295.703125 264.542969 290.382812 257.992188 286.695312 C 257.109375 286.28125 255.914062 286.179688 255.394531 287.253906 C 255.09375 287.960938 255.367188 288.757812 256.003906 289.0625 Z M 256.003906 289.0625 " fill-opacity="1" fill-rule="nonzero"/><path fill="#300000" d="M 275.605469 318.25 C 275.667969 319.035156 275.707031 319.820312 275.730469 320.605469 C 275.742188 321.023438 275.746094 321.441406 275.746094 321.859375 C 275.746094 322.054688 275.742188 322.253906 275.742188 322.449219 C 275.742188 322.453125 275.742188 322.457031 275.742188 322.460938 C 275.742188 322.429688 275.746094 322.398438 275.746094 322.367188 C 275.746094 322.390625 275.742188 322.628906 275.742188 322.460938 C 275.738281 322.578125 275.738281 322.695312 275.734375 322.808594 C 275.707031 323.714844 276.175781 324.683594 277.179688 324.792969 C 278.019531 324.882812 279.117188 324.304688 279.144531 323.332031 C 279.234375 320.277344 279.050781 317.230469 278.585938 314.234375 C 278.035156 309.902344 276.539062 305.875 274.378906 302.226562 L 271.808594 304.613281 C 274.003906 308.816406 275.3125 313.464844 275.605469 318.25 Z M 275.605469 318.25 " fill-opacity="1" fill-rule="nonzero"/><path fill="#300000" d="M 276.511719 324.695312 C 276.972656 324.730469 277.410156 324.824219 277.824219 324.960938 C 278.238281 325.101562 278.632812 325.285156 279.003906 325.511719 C 281.003906 326.894531 282.609375 329.105469 282.410156 331.789062 C 282.375 332.199219 282.304688 332.605469 282.207031 332.992188 C 281.730469 335.542969 279.25 337.316406 276.855469 336.886719 C 273.09375 336.171875 272.351562 331.359375 273.894531 328.105469 C 274.125 327.554688 274.410156 327.035156 274.742188 326.5625 C 275.058594 326.117188 275.421875 325.703125 275.839844 325.332031 C 276.039062 325.148438 276.261719 324.9375 276.511719 324.695312 Z M 276.511719 324.695312 " fill-opacity="1" fill-rule="nonzero"/><path fill="#300000" d="M 276.28125 326.238281 C 276.613281 326.269531 276.953125 326.316406 277.277344 326.410156 C 277 326.328125 277.503906 326.5 277.5 326.5 C 277.652344 326.5625 277.800781 326.628906 277.945312 326.699219 C 277.984375 326.71875 278.417969 327 278.121094 326.789062 C 278.222656 326.859375 278.320312 326.933594 278.421875 327.007812 C 278.617188 327.164062 278.8125 327.320312 278.996094 327.488281 C 279.089844 327.574219 279.179688 327.660156 279.269531 327.746094 C 279.3125 327.789062 279.597656 328.097656 279.34375 327.816406 C 279.507812 328 279.671875 328.195312 279.820312 328.394531 C 279.945312 328.5625 280.066406 328.734375 280.175781 328.910156 C 280.242188 329.019531 280.304688 329.125 280.367188 329.234375 C 280.179688 328.902344 280.429688 329.378906 280.457031 329.445312 C 280.558594 329.675781 280.644531 329.914062 280.71875 330.152344 C 280.746094 330.234375 280.765625 330.316406 280.789062 330.398438 C 280.695312 330.039062 280.792969 330.453125 280.800781 330.507812 C 280.84375 330.765625 280.871094 331.027344 280.882812 331.285156 C 280.882812 331.339844 280.859375 331.769531 280.886719 331.417969 C 280.871094 331.617188 280.851562 331.816406 280.824219 332.011719 C 280.785156 332.265625 280.730469 332.511719 280.671875 332.757812 C 280.644531 332.886719 280.621094 333.011719 280.585938 333.136719 C 280.691406 332.75 280.570312 333.148438 280.546875 333.214844 C 280.453125 333.449219 280.34375 333.671875 280.21875 333.890625 C 280.417969 333.535156 280.214844 333.886719 280.167969 333.949219 C 280.097656 334.046875 280.023438 334.144531 279.941406 334.238281 C 279.863281 334.332031 279.777344 334.421875 279.695312 334.511719 C 279.429688 334.804688 279.949219 334.328125 279.632812 334.566406 C 279.4375 334.710938 279.246094 334.851562 279.046875 334.988281 C 278.726562 335.210938 279.328125 334.875 278.972656 335.03125 C 278.882812 335.074219 278.792969 335.117188 278.699219 335.15625 C 278.609375 335.191406 278.515625 335.226562 278.421875 335.257812 C 278.34375 335.285156 278.269531 335.308594 278.195312 335.328125 C 278.386719 335.285156 278.398438 335.28125 278.230469 335.320312 C 277.992188 335.355469 277.761719 335.382812 277.523438 335.398438 C 277.136719 335.425781 277.824219 335.453125 277.445312 335.390625 C 277.34375 335.375 277.242188 335.367188 277.144531 335.351562 C 277.046875 335.335938 276.949219 335.3125 276.847656 335.292969 C 276.464844 335.214844 277.152344 335.425781 276.800781 335.277344 C 276.644531 335.207031 276.179688 335.101562 276.09375 334.945312 C 276.152344 334.976562 276.207031 335.011719 276.265625 335.046875 C 276.203125 335.007812 276.144531 334.964844 276.089844 334.921875 C 276.003906 334.859375 275.921875 334.792969 275.839844 334.722656 C 275.785156 334.675781 275.738281 334.625 275.683594 334.578125 C 275.414062 334.339844 275.890625 334.847656 275.667969 334.5625 C 275.539062 334.390625 275.40625 334.226562 275.292969 334.042969 C 275.238281 333.957031 275.019531 333.71875 275.265625 334.019531 C 275.183594 333.917969 275.132812 333.746094 275.082031 333.625 C 275.011719 333.453125 274.949219 333.28125 274.894531 333.105469 C 274.859375 332.996094 274.832031 332.886719 274.800781 332.78125 C 274.90625 333.171875 274.8125 332.800781 274.800781 332.722656 C 274.714844 332.265625 274.6875 331.804688 274.679688 331.339844 C 274.683594 331.746094 274.679688 331.351562 274.683594 331.277344 C 274.695312 331.121094 274.707031 330.964844 274.726562 330.804688 C 274.757812 330.53125 274.804688 330.261719 274.863281 329.992188 C 274.878906 329.914062 274.898438 329.839844 274.917969 329.761719 C 274.9375 329.6875 274.957031 329.613281 274.976562 329.535156 C 274.914062 329.75 274.910156 329.773438 274.964844 329.601562 C 275.058594 329.347656 275.148438 329.09375 275.257812 328.847656 C 275.40625 328.511719 275.558594 328.1875 275.730469 327.867188 C 275.75 327.832031 275.894531 327.609375 275.761719 327.816406 C 275.878906 327.636719 276 327.460938 276.132812 327.289062 C 276.660156 326.613281 277.046875 326.324219 277.703125 325.6875 C 278.292969 325.121094 278.105469 323.953125 277.492188 323.488281 C 276.753906 322.929688 275.941406 323.097656 275.3125 323.703125 C 275.25 323.761719 275.191406 323.820312 275.128906 323.878906 C 274.933594 324.066406 275.269531 323.75 275.085938 323.917969 C 274.945312 324.050781 274.804688 324.183594 274.664062 324.3125 C 274.332031 324.625 274.019531 324.945312 273.738281 325.304688 C 273.226562 325.96875 272.816406 326.707031 272.476562 327.472656 C 272 328.539062 271.679688 329.695312 271.617188 330.867188 C 271.492188 333.257812 272.15625 335.949219 274.207031 337.398438 C 276.429688 338.972656 279.464844 338.828125 281.527344 337.023438 C 283.742188 335.089844 284.441406 331.886719 283.625 329.097656 C 282.746094 326.085938 279.863281 323.445312 276.738281 323.152344 C 275.933594 323.078125 275.070312 323.589844 274.976562 324.460938 C 274.894531 325.261719 275.414062 326.160156 276.28125 326.238281 Z M 276.28125 326.238281 " fill-opacity="1" fill-rule="nonzero"/><path fill="#300000" d="M 272.261719 327.898438 C 272.121094 328.109375 271.996094 328.332031 271.84375 328.535156 C 271.800781 328.59375 271.753906 328.648438 271.703125 328.703125 C 271.734375 328.671875 271.769531 328.640625 271.800781 328.609375 C 271.886719 328.597656 272.335938 328.449219 272.367188 328.523438 C 272.320312 328.519531 272.269531 328.515625 272.21875 328.503906 C 272.136719 328.488281 272.15625 328.496094 272.273438 328.527344 C 272.390625 328.566406 272.40625 328.570312 272.324219 328.539062 C 272.277344 328.523438 272.230469 328.503906 272.183594 328.480469 C 271.933594 328.390625 272.285156 328.511719 272.265625 328.542969 C 272.238281 328.523438 272.210938 328.5 272.183594 328.480469 C 272.082031 328.390625 272.082031 328.390625 272.171875 328.492188 C 272.25 328.582031 272.261719 328.59375 272.210938 328.527344 C 272.179688 328.492188 272.152344 328.453125 272.128906 328.410156 C 272.199219 328.398438 272.269531 328.761719 272.277344 328.808594 C 272.234375 328.539062 272.304688 329.082031 272.28125 328.894531 C 272.269531 328.789062 272.207031 329.050781 272.289062 328.902344 C 272.34375 328.796875 272.382812 328.679688 272.429688 328.570312 C 272.484375 328.441406 272.503906 328.417969 272.421875 328.554688 C 272.542969 328.351562 272.699219 328.175781 272.851562 327.996094 C 272.929688 327.902344 272.976562 327.855469 272.859375 327.96875 C 272.945312 327.886719 273.039062 327.8125 273.132812 327.734375 C 273.300781 327.601562 273.476562 327.476562 273.660156 327.359375 C 273.742188 327.308594 273.824219 327.261719 273.910156 327.210938 C 273.679688 327.347656 273.957031 327.1875 274.007812 327.164062 C 274.199219 327.070312 274.398438 326.992188 274.59375 326.90625 C 275.492188 326.519531 276.410156 326.1875 277.355469 325.945312 C 276.988281 324.972656 276.617188 324 276.246094 323.03125 C 274.992188 323.351562 273.867188 324.292969 273.234375 325.421875 C 272.945312 325.941406 272.644531 326.46875 272.394531 327.011719 C 272.292969 327.234375 272.1875 327.460938 272.101562 327.695312 C 271.929688 328.152344 271.902344 328.578125 271.914062 329.0625 C 271.9375 329.882812 272.84375 330.566406 273.625 330.445312 C 274.507812 330.308594 275.015625 329.597656 274.996094 328.722656 C 274.984375 328.335938 274.9375 328.972656 274.929688 328.964844 C 274.921875 328.957031 275.03125 328.71875 275.039062 328.695312 C 275.128906 328.488281 275.222656 328.28125 275.320312 328.078125 C 275.515625 327.660156 275.75 327.242188 275.988281 326.84375 C 275.902344 326.984375 275.964844 326.875 276.023438 326.804688 C 276.089844 326.726562 276.152344 326.652344 276.21875 326.574219 C 276.292969 326.484375 276.355469 326.421875 276.230469 326.539062 C 276.296875 326.476562 276.371094 326.417969 276.441406 326.363281 C 276.515625 326.308594 276.589844 326.253906 276.667969 326.203125 C 276.976562 325.984375 276.542969 326.222656 276.742188 326.15625 C 276.949219 326.085938 277.144531 326 277.355469 325.945312 C 278.144531 325.742188 278.554688 324.640625 278.246094 323.929688 C 277.878906 323.074219 277.089844 322.816406 276.246094 323.027344 C 275.011719 323.339844 273.769531 323.785156 272.636719 324.378906 C 271.332031 325.066406 270.148438 326.039062 269.539062 327.429688 C 269.222656 328.144531 269.050781 328.910156 269.324219 329.667969 C 269.574219 330.371094 270.109375 330.867188 270.734375 331.234375 C 271.34375 331.589844 272.199219 331.765625 272.878906 331.527344 C 273.710938 331.230469 274.183594 330.59375 274.648438 329.882812 C 275.09375 329.203125 275.15625 328.226562 274.4375 327.683594 C 273.828125 327.222656 272.734375 327.167969 272.261719 327.898438 Z M 272.261719 327.898438 " fill-opacity="1" fill-rule="nonzero"/><path fill="#ffea6c" d="M 25.273438 305.878906 C 23.441406 312.25 21 319.519531 24.835938 325.734375 C 30.535156 334.882812 42.046875 335.703125 51.375 337.984375 C 53.101562 338.285156 54.839844 338.539062 56.585938 338.753906 C 78.359375 341.320312 99.691406 342.625 121.203125 343.070312 C 124.273438 343.136719 127.351562 343.179688 130.433594 343.210938 C 165.902344 342.625 202.070312 345.4375 237.085938 338.910156 C 241.019531 337.910156 244.867188 336.640625 248.574219 335.015625 C 252.035156 333.496094 255.140625 332.613281 255.265625 328.375 C 255.363281 325.09375 254.085938 321.816406 252.992188 318.78125 C 251.773438 315.390625 250.21875 312.089844 248.550781 308.84375 C 246.886719 305.59375 245.109375 302.398438 243.445312 299.214844 C 240.796875 294.539062 238.472656 289.613281 235.710938 284.894531 C 234.394531 282.523438 233.070312 280.15625 231.738281 277.792969 C 230.410156 275.429688 229.070312 273.066406 227.730469 270.710938 C 219.746094 256.65625 211.613281 242.683594 203.453125 228.730469 C 191.890625 208.964844 180.367188 189.179688 168.875 169.375 C 163.03125 159.304688 157.195312 149.230469 151.371094 139.148438 C 147.964844 133.257812 144.890625 126.730469 140.824219 121.089844 C 139.808594 119.679688 138.730469 118.328125 137.570312 117.050781 C 136.410156 115.777344 135.164062 114.582031 133.816406 113.488281 C 132.3125 112.265625 130.828125 111.570312 129.386719 111.285156 C 122.164062 109.878906 115.886719 118.871094 112.234375 124.796875 C 108.460938 130.914062 104.726562 137.308594 101.246094 143.582031 C 99.824219 146.144531 98.410156 148.703125 97 151.257812 C 87.316406 168.785156 54.003906 240 35.886719 279.191406 C 34.753906 281.640625 33.679688 283.964844 32.679688 286.140625 C 31.722656 288.289062 30.78125 290.445312 29.886719 292.628906 C 28.992188 294.808594 28.152344 297.015625 27.410156 299.257812 C 26.089844 303.199219 25.351562 305.546875 25.273438 305.878906 Z M 25.273438 305.878906 " fill-opacity="1" fill-rule="nonzero"/><path fill="#efc820" d="M 113.398438 162.179688 C 98.335938 162.175781 92.460938 188.601562 109.234375 192.003906 C 119.574219 194.105469 128.265625 182.796875 127.390625 173.007812 C 126.710938 165.4375 120.1875 162.183594 113.398438 162.179688 Z M 113.398438 162.179688 " fill-opacity="1" fill-rule="nonzero"/><path fill="#efc820" d="M 203.035156 278.886719 C 198.132812 278.570312 193.828125 281.503906 191.386719 285.722656 C 189.933594 288.246094 189.0625 291.03125 188.867188 293.828125 C 188.015625 301.792969 193.945312 309.179688 201.855469 310.234375 C 206.621094 310.824219 211.507812 310.703125 215.695312 307.890625 C 223.019531 302.730469 221.625 292.527344 217.015625 286.328125 C 215.949219 284.800781 214.671875 283.4375 213.207031 282.320312 C 211.742188 281.199219 210.085938 280.328125 208.253906 279.78125 C 206.558594 279.242188 204.792969 278.953125 203.035156 278.886719 Z M 203.035156 278.886719 " fill-opacity="1" fill-rule="nonzero"/><path fill="#efc820" d="M 197.761719 166.144531 C 193.714844 165.882812 190.160156 168.304688 188.144531 171.789062 C 186.945312 173.871094 186.226562 176.171875 186.066406 178.480469 C 185.359375 185.054688 190.257812 191.15625 196.785156 192.027344 C 200.722656 192.511719 204.753906 192.414062 208.210938 190.089844 C 214.261719 185.828125 213.109375 177.40625 209.304688 172.289062 C 208.421875 171.027344 207.371094 169.902344 206.160156 168.980469 C 204.949219 168.058594 203.582031 167.335938 202.070312 166.886719 C 200.671875 166.4375 199.214844 166.199219 197.761719 166.144531 Z M 197.761719 166.144531 " fill-opacity="1" fill-rule="nonzero"/><path fill="#efc820" d="M 57.980469 295.59375 C 54.375 294.304688 49.839844 294.070312 46.816406 297.121094 C 44.953125 298.996094 44.023438 301.339844 43.792969 303.804688 C 43.441406 309.199219 46.933594 314.125 51.699219 316.472656 C 56.234375 318.582031 62.863281 318.582031 65.191406 313.304688 C 67.285156 308.378906 65.773438 302.398438 62.335938 298.542969 C 61.140625 297.214844 59.679688 296.171875 57.980469 295.59375 Z M 57.980469 295.59375 " fill-opacity="1" fill-rule="nonzero"/><path fill="#efc820" d="M 144.988281 187.945312 C 139.789062 185.917969 133.394531 188.027344 130.835938 193.1875 C 128.511719 197.878906 128.277344 204.09375 132.8125 207.496094 C 138.859375 212.070312 147.816406 210.78125 152.003906 204.328125 C 154.910156 199.753906 152.816406 194.242188 149.535156 190.726562 C 148.292969 189.4375 146.765625 188.445312 144.988281 187.945312 Z M 144.988281 187.945312 " fill-opacity="1" fill-rule="nonzero"/><path fill="#efc820" d="M 223.808594 210.828125 C 219.613281 209.195312 214.453125 210.894531 212.390625 215.058594 C 210.511719 218.84375 210.324219 223.859375 213.984375 226.605469 C 218.863281 230.296875 226.089844 229.253906 229.46875 224.050781 C 231.8125 220.359375 230.125 215.910156 227.476562 213.074219 C 226.476562 212.035156 225.242188 211.234375 223.808594 210.828125 Z M 223.808594 210.828125 " fill-opacity="1" fill-rule="nonzero"/><path fill="#ffffff" d="M 147.941406 263.460938 C 147.894531 262.148438 148.003906 260.828125 148.277344 259.539062 C 149.738281 252.613281 155.960938 247.363281 162.828125 246.515625 C 174.257812 245.101562 184.074219 257.402344 179.515625 268.3125 C 175.28125 278.449219 160.691406 281.023438 152.695312 273.960938 C 149.691406 271.308594 148.089844 267.425781 147.941406 263.460938 Z M 147.941406 263.460938 " fill-opacity="1" fill-rule="nonzero"/><path fill="#300000" d="M 153.449219 262.878906 C 153.300781 261.03125 153.589844 259.152344 154.371094 257.464844 C 156.261719 253.394531 160.464844 251.242188 164.78125 251.148438 C 165.210938 251.140625 165.695312 251.21875 166.015625 251.53125 C 166.804688 252.296875 165.796875 253.359375 165.269531 253.933594 C 163.847656 255.46875 163.667969 257.320312 164.660156 259.15625 C 165.539062 260.777344 167.25 262.132812 169.164062 261.960938 C 169.84375 261.898438 170.492188 261.640625 171.054688 261.257812 C 171.734375 260.792969 172.089844 260.230469 172.40625 259.5 C 172.667969 258.902344 172.96875 257.984375 173.804688 258.207031 C 174.453125 258.382812 174.902344 259.367188 175.046875 259.960938 C 175.4375 261.582031 175.039062 263.382812 174.589844 264.945312 C 173.925781 267.242188 172.566406 269.40625 170.660156 270.847656 C 166.832031 273.75 161.042969 273.628906 157.332031 270.578125 C 155.054688 268.703125 153.691406 265.828125 153.449219 262.878906 Z M 153.449219 262.878906 " fill-opacity="1" fill-rule="nonzero"/><path fill="#ffffff" d="M 74.253906 262.613281 C 74.203125 261.300781 74.3125 259.980469 74.585938 258.691406 C 76.046875 251.765625 82.269531 246.515625 89.136719 245.667969 C 100.570312 244.253906 110.382812 256.554688 105.828125 267.464844 C 101.589844 277.601562 87 280.175781 79.003906 273.113281 C 76.003906 270.460938 74.402344 266.578125 74.253906 262.613281 Z M 74.253906 262.613281 " fill-opacity="1" fill-rule="nonzero"/><path fill="#300000" d="M 79.757812 262.03125 C 79.609375 260.179688 79.898438 258.300781 80.679688 256.617188 C 82.570312 252.542969 86.773438 250.394531 91.089844 250.300781 C 91.519531 250.292969 92.003906 250.367188 92.328125 250.683594 C 93.113281 251.449219 92.105469 252.511719 91.578125 253.085938 C 90.15625 254.621094 89.980469 256.472656 90.96875 258.308594 C 91.847656 259.929688 93.558594 261.285156 95.472656 261.109375 C 96.152344 261.050781 96.800781 260.789062 97.363281 260.40625 C 98.042969 259.945312 98.398438 259.378906 98.714844 258.648438 C 98.976562 258.054688 99.277344 257.136719 100.113281 257.359375 C 100.761719 257.535156 101.214844 258.515625 101.355469 259.113281 C 101.746094 260.730469 101.347656 262.535156 100.898438 264.097656 C 100.234375 266.390625 98.875 268.554688 96.96875 270 C 93.140625 272.902344 87.351562 272.78125 83.644531 269.730469 C 81.363281 267.851562 80 264.980469 79.757812 262.03125 Z M 79.757812 262.03125 " fill-opacity="1" fill-rule="nonzero"/><path fill="#f76537" d="M 178.492188 286.625 C 179.308594 293.066406 172.996094 296.34375 167.546875 296.902344 C 160.574219 297.613281 150.484375 293.480469 150.578125 285.132812 C 150.636719 280.082031 155.085938 277.199219 159.515625 276.261719 C 166.367188 274.816406 175.3125 276.859375 177.917969 284.257812 C 178.210938 285.085938 178.398438 285.875 178.492188 286.625 Z M 178.492188 286.625 " fill-opacity="1" fill-rule="nonzero"/><path fill="#f76537" d="M 75.871094 285.441406 C 74.910156 291.867188 81.144531 295.285156 86.582031 295.96875 C 93.535156 296.839844 103.71875 292.941406 103.8125 284.59375 C 103.867188 279.542969 99.484375 276.558594 95.078125 275.519531 C 88.261719 273.917969 79.273438 275.753906 76.5 283.089844 C 76.1875 283.910156 75.980469 284.695312 75.871094 285.441406 Z M 75.871094 285.441406 " fill-opacity="1" fill-rule="nonzero"/><path fill="#300000" d="M 138.367188 274.652344 C 137.417969 277.597656 136.363281 280.867188 134.003906 283.003906 C 131.796875 285.007812 128.875 285.976562 125.921875 285.617188 C 120.3125 284.941406 116.625 279.675781 115.703125 274.378906 C 115.5 273.230469 115.96875 272.054688 117.164062 271.707031 C 118.1875 271.410156 119.613281 272.03125 119.8125 273.183594 C 119.992188 274.203125 120.265625 275.191406 120.636719 276.15625 C 120.792969 276.558594 120.625 276.160156 120.792969 276.519531 C 120.914062 276.777344 121.042969 277.027344 121.179688 277.277344 C 121.433594 277.738281 121.714844 278.183594 122.023438 278.609375 C 123.011719 279.976562 124.507812 281.058594 126.316406 281.34375 C 127.960938 281.601562 129.882812 281.03125 131.089844 279.851562 C 132.730469 278.25 133.503906 275.800781 134.214844 273.589844 C 134.570312 272.480469 135.644531 271.726562 136.816406 272.027344 C 137.882812 272.300781 138.726562 273.535156 138.367188 274.652344 Z M 138.367188 274.652344 " fill-opacity="1" fill-rule="nonzero"/><g clip-path="url(#54fe8ae6d8)"><path fill="#545454" d="M 355.007812 106.976562 C 354.308594 91.8125 346.984375 77.75 337.578125 66.132812 C 329.835938 56.5625 319.273438 48.722656 306.9375 46.558594 C 284.808594 42.679688 263.542969 55.761719 249.378906 71.773438 C 242.558594 79.484375 236.769531 88.296875 233.277344 98.023438 C 230.609375 105.453125 229.261719 114.234375 232.925781 121.566406 C 233.253906 122.230469 233.640625 122.871094 234.070312 123.480469 C 232.25 126.167969 230.140625 128.714844 228.144531 131.234375 C 224.574219 135.75 220.902344 140.386719 216.558594 144.195312 C 214.199219 146.261719 216.113281 150.335938 219.085938 150.292969 C 228.996094 150.152344 238.78125 148.082031 248.378906 145.699219 C 255.894531 155.761719 266.171875 163.460938 278.488281 166.613281 C 290.40625 169.660156 303.253906 168.457031 314.648438 163.960938 C 337.753906 154.835938 356.195312 132.710938 355.007812 106.976562 Z M 313.308594 55.832031 C 313.195312 55.78125 313.089844 55.738281 313.308594 55.832031 Z M 342.574219 130.652344 C 337.410156 140.484375 329.367188 148.296875 319.71875 153.710938 C 310.140625 159.082031 299.324219 161.832031 288.269531 161.027344 C 283.46875 160.679688 277.503906 159.234375 273.050781 157.1875 C 267.585938 154.671875 262.957031 151.34375 258.816406 147.078125 C 256.644531 144.835938 254.695312 142.421875 252.9375 139.84375 C 252.019531 138.503906 250.519531 137.792969 248.902344 138.203125 C 242.074219 139.933594 235.164062 141.59375 228.164062 142.480469 C 230.011719 140.324219 231.769531 138.09375 233.503906 135.890625 C 236.257812 132.394531 239.265625 128.863281 241.554688 125.035156 C 242.179688 123.984375 242.199219 122.960938 241.859375 122.097656 C 241.699219 121.617188 241.421875 121.144531 240.992188 120.703125 C 240.730469 120.433594 240.496094 120.140625 240.238281 119.871094 C 240.203125 119.832031 240.179688 119.808594 240.160156 119.789062 C 240.125 119.730469 240.078125 119.648438 240.007812 119.539062 C 239.609375 118.902344 239.253906 118.261719 238.914062 117.59375 C 238.890625 117.546875 238.871094 117.507812 238.851562 117.476562 C 238.839844 117.433594 238.820312 117.378906 238.796875 117.308594 C 238.695312 116.976562 238.566406 116.652344 238.46875 116.316406 C 238.242188 115.554688 238.101562 114.78125 237.957031 114 C 237.941406 113.800781 237.917969 113.605469 237.902344 113.40625 C 237.871094 113.027344 237.851562 112.644531 237.835938 112.265625 C 237.808594 111.390625 237.832031 110.519531 237.894531 109.648438 C 237.921875 109.238281 237.96875 108.832031 238.003906 108.417969 C 238.015625 108.289062 238.023438 108.199219 238.023438 108.140625 C 238.035156 108.085938 238.050781 108 238.074219 107.863281 C 238.253906 106.867188 238.433594 105.878906 238.667969 104.894531 C 239.140625 102.929688 239.75 100.996094 240.464844 99.109375 C 240.640625 98.648438 240.824219 98.1875 241.003906 97.730469 C 241.03125 97.667969 241.183594 97.304688 241.226562 97.199219 C 241.265625 97.101562 241.308594 97.007812 241.351562 96.917969 C 241.863281 95.785156 242.386719 94.664062 242.949219 93.554688 C 245.113281 89.316406 247.699219 85.308594 250.558594 81.507812 C 250.996094 80.925781 251.582031 80.1875 252.367188 79.234375 C 253.191406 78.238281 254.03125 77.261719 254.894531 76.304688 C 256.636719 74.363281 258.460938 72.5 260.363281 70.71875 C 264.261719 67.0625 267.535156 64.476562 272.015625 61.65625 C 276.398438 58.898438 280.46875 56.882812 284.941406 55.394531 C 289.867188 53.75 293.769531 53.023438 298.574219 52.980469 C 303.535156 52.9375 307.46875 53.609375 312.410156 55.492188 C 312.738281 55.613281 313.058594 55.742188 313.378906 55.875 C 313.425781 55.894531 313.488281 55.921875 313.558594 55.953125 C 314.117188 56.199219 314.671875 56.457031 315.21875 56.726562 C 316.511719 57.367188 317.777344 58.070312 319.003906 58.835938 C 321.511719 60.390625 323.371094 61.816406 325.535156 63.765625 C 330.59375 68.324219 334.761719 73.71875 338.320312 79.5 C 341.976562 85.429688 345.011719 91.636719 346.636719 98.441406 C 349.234375 109.34375 347.71875 120.871094 342.574219 130.660156 Z M 342.574219 130.652344 " fill-opacity="1" fill-rule="nonzero"/></g><path fill="#545454" d="M 287.808594 89.648438 C 288.875 93.984375 289.972656 98.363281 290.902344 102.773438 C 284.550781 103.875 278.082031 104.65625 271.804688 106.175781 C 271.207031 102.195312 270.789062 98.199219 270.847656 94.148438 C 270.917969 89.550781 263.773438 89.550781 263.703125 94.148438 C 263.523438 105.601562 267.136719 116.59375 268.0625 127.933594 C 268.21875 129.855469 269.589844 131.507812 271.632812 131.507812 C 273.445312 131.507812 275.363281 129.867188 275.207031 127.933594 C 274.800781 122.996094 273.886719 118.121094 273.003906 113.238281 C 279.300781 111.648438 285.804688 110.855469 292.203125 109.769531 C 293.089844 115.425781 293.535156 121.125 293.128906 126.84375 C 292.804688 131.429688 299.949219 131.410156 300.273438 126.84375 C 301.214844 113.660156 297.820312 100.445312 294.699219 87.753906 C 293.597656 83.292969 286.707031 85.179688 287.808594 89.652344 Z M 287.808594 89.648438 " fill-opacity="1" fill-rule="nonzero"/><path fill="#545454" d="M 319.890625 98.507812 C 319.574219 93.949219 312.429688 93.914062 312.746094 98.507812 C 313.371094 107.644531 315.296875 116.625 316.015625 125.75 C 316.167969 127.675781 317.546875 129.324219 319.585938 129.324219 C 321.402344 129.324219 323.308594 127.683594 323.160156 125.75 C 322.441406 116.625 320.515625 107.640625 319.890625 98.507812 Z M 319.890625 98.507812 " fill-opacity="1" fill-rule="nonzero"/><path fill="#545454" d="M 314.136719 82.949219 C 309.542969 82.949219 309.535156 90.09375 314.136719 90.09375 C 318.742188 90.09375 318.742188 82.949219 314.136719 82.949219 Z M 314.136719 82.949219 " fill-opacity="1" fill-rule="nonzero"/></svg>