<svg xmlns="http://www.w3.org/2000/svg" xmlns:xlink="http://www.w3.org/1999/xlink" width="500" zoomAndPan="magnify" viewBox="0 0 375 374.999991" height="500" preserveAspectRatio="xMidYMid meet" version="1.0"><defs><g/><clipPath id="da719197ad"><path d="M 161 198 L 205 198 L 205 203.535156 L 161 203.535156 Z M 161 198 " clip-rule="nonzero"/></clipPath><clipPath id="8fa662d1b3"><path d="M 145 74.855469 L 254 74.855469 L 254 188 L 145 188 Z M 145 74.855469 " clip-rule="nonzero"/></clipPath><clipPath id="5bbcc21dee"><path d="M 127.71875 126 L 134 126 L 134 134 L 127.71875 134 Z M 127.71875 126 " clip-rule="nonzero"/></clipPath><clipPath id="d844450960"><path d="M 221 46 L 287.269531 46 L 287.269531 104.542969 L 221 104.542969 Z M 221 46 " clip-rule="nonzero"/></clipPath></defs><g clip-path="url(#da719197ad)"><path fill="#111111" d="M 161.523438 200.710938 C 161.691406 200.988281 161.875 201.28125 162.085938 201.546875 C 162.300781 201.8125 162.542969 202.050781 162.828125 202.21875 C 165.035156 203.535156 167.765625 203.273438 170.292969 203.121094 C 170.65625 203.101562 171.011719 203.082031 171.363281 203.066406 C 174.792969 202.886719 178.171875 201.769531 181.613281 202.136719 C 181.996094 202.160156 182.375 202.191406 182.757812 202.222656 C 185.417969 202.460938 188.074219 202.9375 190.761719 203.023438 C 194.585938 203.148438 198.433594 203.082031 202.246094 202.566406 C 202.851562 202.488281 203.902344 202.402344 204.289062 201.625 C 204.675781 200.839844 204.273438 200.238281 203.710938 199.972656 C 200.988281 198.691406 198.03125 198.6875 195.191406 198.554688 C 189.410156 198.277344 183.699219 200.097656 177.933594 199.640625 C 177.292969 199.59375 176.65625 199.5 176.019531 199.386719 C 174.855469 199.175781 173.644531 198.945312 172.417969 198.757812 C 172.007812 198.699219 171.597656 198.640625 171.183594 198.589844 C 169.214844 198.449219 167.085938 198.199219 165.089844 198.480469 C 164.691406 198.535156 164.296875 198.613281 163.910156 198.71875 C 163.136719 198.976562 162.378906 199.257812 161.714844 199.785156 C 161.582031 200.046875 161.527344 200.378906 161.523438 200.710938 Z M 161.523438 200.710938 " fill-opacity="0.05" fill-rule="nonzero"/></g><path fill="#300000" d="M 172.449219 176.648438 C 172.476562 177.023438 172.503906 177.402344 172.535156 177.777344 C 172.550781 177.957031 172.566406 178.136719 172.582031 178.3125 C 172.589844 178.394531 172.597656 178.472656 172.605469 178.550781 C 172.589844 178.40625 172.625 178.753906 172.628906 178.796875 C 172.699219 179.546875 172.78125 180.296875 172.871094 181.042969 C 173.050781 182.5625 173.257812 184.070312 173.488281 185.570312 C 173.949219 188.558594 174.488281 191.519531 175.039062 194.476562 C 175.351562 196.148438 175.667969 197.820312 175.976562 199.496094 C 176.078125 200.046875 175.851562 200.707031 175.449219 200.835938 C 175.054688 200.96875 174.632812 200.664062 174.523438 200.074219 C 173.417969 194.09375 172.210938 188.140625 171.464844 182.035156 C 171.355469 181.144531 171.257812 180.246094 171.167969 179.347656 C 171.082031 178.449219 171.003906 177.550781 170.941406 176.644531 C 170.898438 176.078125 171.3125 175.527344 171.691406 175.554688 C 172.132812 175.582031 172.402344 176.035156 172.449219 176.648438 Z M 172.449219 176.648438 " fill-opacity="1" fill-rule="nonzero"/><path fill="#300000" d="M 175.839844 199.757812 C 175.691406 199.441406 175.511719 199.15625 175.261719 198.914062 C 175.257812 198.910156 175.257812 198.90625 175.253906 198.902344 C 175.238281 198.878906 175.222656 198.847656 175.210938 198.820312 C 175.152344 198.722656 175.066406 198.636719 174.988281 198.550781 C 174.890625 198.445312 174.789062 198.339844 174.6875 198.238281 C 174.179688 197.753906 173.582031 197.394531 172.925781 197.160156 C 171.804688 196.761719 170.460938 196.835938 169.4375 197.46875 C 168.4375 198.082031 167.480469 199.503906 168.105469 200.6875 C 168.421875 201.289062 169.144531 201.582031 169.765625 201.742188 C 170.425781 201.910156 171.113281 201.945312 171.789062 201.878906 C 172.445312 201.816406 173.09375 201.695312 173.738281 201.554688 C 174.378906 201.417969 174.992188 201.144531 175.5625 200.816406 C 175.738281 200.722656 175.84375 200.574219 175.894531 200.40625 C 175.964844 200.199219 175.945312 199.960938 175.839844 199.757812 Z M 175.839844 199.757812 " fill-opacity="1" fill-rule="nonzero"/><path fill="#300000" d="M 192.269531 176.648438 C 192.296875 177.023438 192.324219 177.402344 192.355469 177.777344 C 192.371094 177.957031 192.386719 178.136719 192.402344 178.3125 C 192.410156 178.394531 192.417969 178.472656 192.421875 178.550781 C 192.410156 178.40625 192.441406 178.753906 192.445312 178.796875 C 192.519531 179.546875 192.601562 180.296875 192.691406 181.042969 C 192.871094 182.5625 193.078125 184.070312 193.308594 185.570312 C 193.765625 188.558594 194.304688 191.519531 194.859375 194.476562 C 195.171875 196.148438 195.488281 197.820312 195.796875 199.496094 C 195.898438 200.046875 195.671875 200.707031 195.269531 200.835938 C 194.875 200.96875 194.453125 200.664062 194.34375 200.074219 C 193.238281 194.09375 192.03125 188.140625 191.285156 182.035156 C 191.175781 181.144531 191.078125 180.246094 190.988281 179.347656 C 190.902344 178.449219 190.824219 177.550781 190.757812 176.644531 C 190.71875 176.078125 191.132812 175.527344 191.511719 175.554688 C 191.953125 175.582031 192.222656 176.035156 192.269531 176.648438 Z M 192.269531 176.648438 " fill-opacity="1" fill-rule="nonzero"/><path fill="#300000" d="M 195.660156 199.757812 C 195.511719 199.441406 195.332031 199.15625 195.082031 198.914062 C 195.078125 198.910156 195.078125 198.90625 195.074219 198.902344 C 195.058594 198.878906 195.042969 198.847656 195.03125 198.820312 C 194.96875 198.722656 194.886719 198.636719 194.808594 198.550781 C 194.710938 198.445312 194.609375 198.339844 194.503906 198.238281 C 194 197.753906 193.402344 197.394531 192.746094 197.160156 C 191.625 196.761719 190.28125 196.835938 189.253906 197.46875 C 188.253906 198.082031 187.300781 199.503906 187.925781 200.6875 C 188.242188 201.289062 188.964844 201.582031 189.585938 201.742188 C 190.246094 201.910156 190.933594 201.945312 191.609375 201.878906 C 192.265625 201.816406 192.914062 201.695312 193.554688 201.554688 C 194.199219 201.417969 194.8125 201.144531 195.382812 200.816406 C 195.558594 200.722656 195.664062 200.574219 195.714844 200.40625 C 195.785156 200.199219 195.765625 199.960938 195.660156 199.757812 Z M 195.660156 199.757812 " fill-opacity="1" fill-rule="nonzero"/><g clip-path="url(#8fa662d1b3)"><path fill="#f9db43" d="M 147.210938 166.789062 C 145.5 170.683594 143.894531 175.59375 146.941406 179.445312 C 148.546875 181.511719 150.8125 182.792969 153.359375 183.015625 C 153.804688 183.074219 154.300781 183.074219 154.742188 183.128906 C 158.507812 183.574219 162.105469 183.964844 165.867188 184.1875 C 170.183594 184.441406 174.472656 184.523438 178.761719 184.59375 C 180.191406 184.617188 181.621094 184.640625 183.046875 184.671875 C 191.714844 184.578125 200.179688 186.085938 208.867188 186.8125 C 217.503906 187.539062 226.082031 186.367188 234.457031 184.394531 C 236.136719 183.929688 237.78125 183.351562 239.375 182.628906 C 240.109375 182.242188 240.824219 181.828125 241.519531 181.386719 C 245.6875 178.742188 249.328125 175.25 252.046875 171.109375 C 252.660156 169.9375 253.015625 168.828125 253.164062 167.753906 C 253.316406 166.679688 253.261719 165.648438 253.058594 164.628906 C 252.65625 162.589844 251.660156 160.609375 250.535156 158.492188 C 249.4375 156.429688 227.554688 116.355469 213.820312 92.714844 C 213.546875 92.242188 208.285156 83.941406 207.910156 83.371094 C 205.316406 79.824219 203.035156 75 198.023438 74.914062 C 192.265625 74.855469 186.511719 75.359375 180.828125 76.386719 C 180.105469 76.625 179.390625 76.894531 178.699219 77.203125 C 176.632812 78.136719 175.078125 79.816406 173.75 81.910156 C 172.753906 83.527344 171.898438 84.902344 171.074219 86.519531 C 170.910156 86.867188 170.746094 87.210938 170.585938 87.558594 C 170.425781 87.902344 170.269531 88.246094 170.109375 88.59375 C 169.898438 89.039062 169.695312 89.484375 169.496094 89.925781 C 169.296875 90.367188 169.101562 90.804688 168.910156 91.234375 C 168.667969 91.863281 168.429688 92.496094 168.195312 93.125 C 168.027344 93.777344 167.871094 94.441406 167.730469 95.109375 C 167.453125 96.035156 167.179688 96.964844 166.917969 97.898438 C 165.347656 103.488281 164.15625 109.179688 163.015625 114.875 C 162.519531 117.457031 162.039062 120.0625 161.550781 122.6875 C 160.777344 127.039062 159.890625 131.058594 158.875 135.164062 C 158.179688 137.925781 157.390625 140.695312 156.453125 143.472656 C 155.519531 146.246094 154.441406 149.027344 153.210938 151.808594 C 151.589844 155.335938 150.207031 158.964844 148.828125 162.570312 C 148.242188 164.113281 147.707031 165.53125 147.210938 166.789062 Z M 147.210938 166.789062 " fill-opacity="1" fill-rule="nonzero"/></g><path fill="#300000" d="M 141.441406 149.628906 C 140.363281 148.996094 139.335938 148.320312 138.359375 147.554688 L 138.40625 147.582031 C 137.089844 146.488281 135.824219 145.308594 134.875 143.898438 L 134.890625 143.96875 C 134.511719 143.429688 134.171875 142.871094 133.863281 142.292969 L 132.648438 143.4375 C 134.507812 146.527344 137.375 149.035156 140.507812 150.761719 C 140.929688 150.957031 141.496094 151 141.742188 150.484375 C 141.878906 150.148438 141.75 149.769531 141.441406 149.628906 Z M 141.441406 149.628906 " fill-opacity="1" fill-rule="nonzero"/><path fill="#300000" d="M 131.917969 133.859375 C 131.917969 133.84375 131.921875 133.828125 131.921875 133.8125 C 131.917969 133.734375 131.917969 133.847656 131.917969 133.859375 Z M 131.917969 133.859375 " fill-opacity="1" fill-rule="nonzero"/><path fill="#300000" d="M 132 135.816406 C 131.96875 135.445312 131.945312 135.070312 131.933594 134.699219 C 131.925781 134.5 131.921875 134.300781 131.921875 134.101562 C 131.917969 134.007812 131.921875 133.914062 131.917969 133.820312 C 131.917969 133.816406 131.917969 133.816406 131.917969 133.8125 C 131.917969 133.828125 131.917969 133.84375 131.917969 133.859375 C 131.917969 133.847656 131.917969 133.734375 131.917969 133.8125 C 131.921875 133.757812 131.921875 133.703125 131.921875 133.648438 C 131.933594 133.214844 131.703125 132.757812 131.226562 132.710938 C 130.828125 132.671875 130.308594 132.949219 130.296875 133.414062 C 130.265625 134.867188 130.367188 136.316406 130.597656 137.742188 C 130.878906 139.800781 131.605469 141.710938 132.648438 143.4375 L 133.863281 142.292969 C 132.800781 140.300781 132.160156 138.09375 132 135.816406 Z M 132 135.816406 " fill-opacity="1" fill-rule="nonzero"/><path fill="#300000" d="M 131.546875 132.753906 C 131.328125 132.738281 131.117188 132.699219 130.917969 132.632812 C 130.722656 132.570312 130.535156 132.480469 130.355469 132.375 C 129.398438 131.726562 128.625 130.679688 128.710938 129.402344 C 128.726562 129.207031 128.753906 129.015625 128.800781 128.828125 C 129.019531 127.613281 130.191406 126.757812 131.332031 126.953125 C 133.125 127.28125 133.5 129.566406 132.777344 131.121094 C 132.667969 131.382812 132.535156 131.632812 132.378906 131.859375 C 132.230469 132.070312 132.058594 132.269531 131.859375 132.449219 C 131.769531 132.539062 131.664062 132.640625 131.546875 132.753906 Z M 131.546875 132.753906 " fill-opacity="1" fill-rule="nonzero"/><g clip-path="url(#5bbcc21dee)"><path fill="#300000" d="M 131.648438 132.019531 C 131.488281 132.003906 131.328125 131.984375 131.175781 131.941406 C 131.304688 131.980469 131.066406 131.898438 131.066406 131.898438 C 130.996094 131.871094 130.925781 131.839844 130.855469 131.804688 C 130.835938 131.796875 130.628906 131.667969 130.769531 131.765625 C 130.722656 131.730469 130.675781 131.695312 130.628906 131.660156 C 130.53125 131.589844 130.441406 131.511719 130.351562 131.433594 C 130.308594 131.394531 130.261719 131.355469 130.21875 131.3125 C 130.199219 131.292969 130.0625 131.148438 130.183594 131.28125 C 130.105469 131.191406 130.027344 131.101562 129.957031 131.007812 C 129.894531 130.929688 129.835938 130.847656 129.785156 130.761719 C 129.753906 130.714844 129.722656 130.660156 129.691406 130.609375 C 129.78125 130.769531 129.664062 130.542969 129.648438 130.511719 C 129.597656 130.402344 129.554688 130.289062 129.519531 130.175781 C 129.507812 130.136719 129.496094 130.097656 129.488281 130.058594 C 129.53125 130.230469 129.484375 130.03125 129.480469 130.007812 C 129.457031 129.882812 129.445312 129.761719 129.4375 129.636719 C 129.4375 129.609375 129.449219 129.40625 129.4375 129.574219 C 129.441406 129.480469 129.449219 129.382812 129.464844 129.289062 C 129.480469 129.171875 129.507812 129.054688 129.53125 128.933594 C 129.546875 128.875 129.554688 128.816406 129.570312 128.753906 C 129.523438 128.941406 129.578125 128.75 129.589844 128.71875 C 129.632812 128.605469 129.683594 128.5 129.742188 128.394531 C 129.648438 128.566406 129.746094 128.398438 129.765625 128.367188 C 129.800781 128.320312 129.835938 128.273438 129.875 128.230469 C 129.910156 128.183594 129.949219 128.140625 129.988281 128.097656 C 130.117188 127.957031 129.871094 128.1875 130.019531 128.074219 C 130.113281 128.003906 130.203125 127.933594 130.296875 127.867188 C 130.449219 127.761719 130.164062 127.921875 130.332031 127.847656 C 130.375 127.828125 130.417969 127.808594 130.460938 127.789062 C 130.503906 127.769531 130.546875 127.753906 130.59375 127.738281 C 130.628906 127.726562 130.664062 127.714844 130.703125 127.703125 C 130.609375 127.722656 130.605469 127.726562 130.683594 127.707031 C 130.796875 127.691406 130.90625 127.675781 131.019531 127.667969 C 131.203125 127.652344 130.875 127.644531 131.058594 127.671875 C 131.105469 127.675781 131.152344 127.679688 131.199219 127.6875 C 131.246094 127.695312 131.292969 127.707031 131.339844 127.714844 C 131.523438 127.75 131.195312 127.652344 131.363281 127.722656 C 131.4375 127.753906 131.660156 127.804688 131.703125 127.878906 C 131.675781 127.859375 131.648438 127.84375 131.621094 127.828125 C 131.648438 127.847656 131.675781 127.867188 131.703125 127.886719 C 131.746094 127.917969 131.785156 127.949219 131.824219 127.980469 C 131.847656 128.003906 131.875 128.027344 131.898438 128.050781 C 132.027344 128.164062 131.800781 127.921875 131.90625 128.058594 C 131.96875 128.136719 132.03125 128.214844 132.085938 128.300781 C 132.113281 128.34375 132.21875 128.457031 132.101562 128.3125 C 132.140625 128.363281 132.164062 128.445312 132.1875 128.5 C 132.222656 128.582031 132.253906 128.664062 132.28125 128.75 C 132.296875 128.800781 132.3125 128.851562 132.324219 128.902344 C 132.273438 128.714844 132.320312 128.890625 132.328125 128.929688 C 132.371094 129.144531 132.386719 129.363281 132.390625 129.585938 C 132.386719 129.394531 132.390625 129.582031 132.386719 129.617188 C 132.382812 129.691406 132.378906 129.765625 132.371094 129.839844 C 132.355469 129.96875 132.335938 130.101562 132.308594 130.226562 C 132.300781 130.265625 132.289062 130.300781 132.28125 130.335938 C 132.273438 130.375 132.265625 130.410156 132.253906 130.445312 C 132.285156 130.34375 132.285156 130.332031 132.261719 130.414062 C 132.21875 130.535156 132.175781 130.65625 132.125 130.777344 C 132.054688 130.933594 131.984375 131.089844 131.902344 131.242188 C 131.894531 131.261719 131.824219 131.367188 131.890625 131.269531 C 131.832031 131.355469 131.773438 131.4375 131.714844 131.519531 C 131.464844 131.84375 131.28125 131.984375 130.972656 132.289062 C 130.695312 132.558594 130.789062 133.117188 131.082031 133.335938 C 131.433594 133.597656 131.820312 133.515625 132.117188 133.222656 C 132.148438 133.195312 132.175781 133.167969 132.203125 133.140625 C 132.296875 133.050781 132.136719 133.203125 132.222656 133.121094 C 132.289062 133.054688 132.359375 132.992188 132.425781 132.929688 C 132.582031 132.78125 132.730469 132.628906 132.859375 132.453125 C 133.101562 132.136719 133.292969 131.785156 133.453125 131.417969 C 133.675781 130.910156 133.824219 130.359375 133.847656 129.800781 C 133.898438 128.660156 133.570312 127.382812 132.589844 126.703125 C 131.527344 125.960938 130.082031 126.042969 129.105469 126.910156 C 128.0625 127.839844 127.742188 129.367188 128.140625 130.691406 C 128.570312 132.121094 129.953125 133.363281 131.441406 133.492188 C 131.824219 133.523438 132.234375 133.277344 132.273438 132.859375 C 132.3125 132.476562 132.0625 132.054688 131.648438 132.019531 Z M 131.648438 132.019531 " fill-opacity="1" fill-rule="nonzero"/></g><path fill="#300000" d="M 133.554688 131.214844 C 133.621094 131.113281 133.679688 131.007812 133.75 130.910156 C 133.769531 130.882812 133.792969 130.855469 133.816406 130.828125 C 133.800781 130.84375 133.785156 130.859375 133.773438 130.875 C 133.730469 130.878906 133.515625 130.953125 133.5 130.917969 C 133.523438 130.917969 133.546875 130.921875 133.570312 130.925781 C 133.609375 130.933594 133.601562 130.929688 133.546875 130.914062 C 133.492188 130.898438 133.484375 130.894531 133.523438 130.910156 C 133.546875 130.917969 133.566406 130.925781 133.589844 130.9375 C 133.707031 130.976562 133.539062 130.921875 133.550781 130.90625 C 133.5625 130.917969 133.574219 130.925781 133.589844 130.9375 C 133.636719 130.980469 133.636719 130.976562 133.59375 130.933594 C 133.558594 130.890625 133.550781 130.882812 133.574219 130.914062 C 133.589844 130.933594 133.605469 130.949219 133.617188 130.96875 C 133.582031 130.976562 133.546875 130.804688 133.542969 130.78125 C 133.5625 130.910156 133.527344 130.652344 133.539062 130.742188 C 133.546875 130.789062 133.574219 130.664062 133.539062 130.738281 C 133.511719 130.785156 133.492188 130.84375 133.472656 130.894531 C 133.445312 130.957031 133.4375 130.96875 133.476562 130.902344 C 133.417969 131 133.34375 131.085938 133.273438 131.171875 C 133.234375 131.214844 133.214844 131.238281 133.269531 131.183594 C 133.230469 131.222656 133.183594 131.257812 133.140625 131.292969 C 133.0625 131.359375 132.976562 131.421875 132.890625 131.476562 C 132.851562 131.5 132.8125 131.523438 132.773438 131.546875 C 132.878906 131.480469 132.75 131.558594 132.726562 131.570312 C 132.636719 131.617188 132.542969 131.65625 132.449219 131.695312 C 132.023438 131.882812 131.589844 132.046875 131.136719 132.164062 C 131.316406 132.625 131.496094 133.085938 131.675781 133.546875 C 132.273438 133.390625 132.804688 132.9375 133.101562 132.398438 C 133.238281 132.148438 133.378906 131.898438 133.496094 131.636719 C 133.542969 131.53125 133.589844 131.421875 133.632812 131.3125 C 133.710938 131.09375 133.722656 130.890625 133.714844 130.660156 C 133.699219 130.269531 133.265625 129.949219 132.894531 130.007812 C 132.476562 130.078125 132.234375 130.417969 132.25 130.835938 C 132.257812 131.019531 132.277344 130.714844 132.28125 130.71875 C 132.285156 130.722656 132.234375 130.835938 132.230469 130.847656 C 132.1875 130.945312 132.144531 131.042969 132.097656 131.140625 C 132.003906 131.339844 131.898438 131.542969 131.785156 131.730469 C 131.824219 131.664062 131.792969 131.714844 131.765625 131.75 C 131.738281 131.789062 131.707031 131.824219 131.675781 131.859375 C 131.640625 131.902344 131.613281 131.933594 131.671875 131.878906 C 131.640625 131.90625 131.605469 131.9375 131.570312 131.960938 C 131.535156 131.988281 131.5 132.015625 131.464844 132.039062 C 131.316406 132.144531 131.523438 132.027344 131.429688 132.0625 C 131.332031 132.097656 131.238281 132.136719 131.136719 132.164062 C 130.761719 132.261719 130.574219 132.789062 130.722656 133.128906 C 130.898438 133.53125 131.277344 133.652344 131.675781 133.546875 C 132.261719 133.394531 132.851562 133.175781 133.386719 132.890625 C 134.007812 132.558594 134.566406 132.089844 134.851562 131.425781 C 135 131.085938 135.078125 130.71875 134.945312 130.359375 C 134.820312 130.027344 134.566406 129.792969 134.265625 129.621094 C 133.976562 129.453125 133.566406 129.375 133.246094 129.492188 C 132.847656 129.632812 132.625 129.9375 132.410156 130.277344 C 132.199219 130.605469 132.175781 131.070312 132.519531 131.324219 C 132.8125 131.542969 133.332031 131.5625 133.554688 131.214844 Z M 133.554688 131.214844 " fill-opacity="1" fill-rule="nonzero"/><path fill="#300000" d="M 240.621094 161.882812 C 241.699219 162.523438 242.71875 163.207031 243.6875 163.980469 L 243.644531 163.957031 C 244.953125 165.058594 246.207031 166.25 247.144531 167.667969 L 247.128906 167.597656 C 247.5 168.136719 247.839844 168.703125 248.144531 169.28125 L 249.367188 168.144531 C 247.53125 165.042969 244.6875 162.511719 241.566406 160.753906 C 241.148438 160.558594 240.578125 160.511719 240.332031 161.023438 C 240.191406 161.355469 240.320312 161.738281 240.621094 161.882812 Z M 240.621094 161.882812 " fill-opacity="1" fill-rule="nonzero"/><path fill="#300000" d="M 249.949219 175.769531 C 249.980469 176.144531 250 176.519531 250.007812 176.890625 C 250.015625 177.089844 250.015625 177.289062 250.015625 177.488281 C 250.015625 177.582031 250.015625 177.675781 250.015625 177.769531 C 250.015625 177.773438 250.015625 177.773438 250.015625 177.777344 C 250.015625 177.761719 250.015625 177.746094 250.015625 177.730469 C 250.015625 177.742188 250.015625 177.855469 250.015625 177.777344 C 250.015625 177.832031 250.011719 177.886719 250.011719 177.941406 C 249.996094 178.371094 250.222656 178.832031 250.699219 178.882812 C 251.097656 178.925781 251.621094 178.652344 251.632812 178.191406 C 251.679688 176.734375 251.589844 175.285156 251.371094 173.859375 C 251.105469 171.800781 250.394531 169.882812 249.367188 168.144531 L 248.144531 169.28125 C 249.1875 171.28125 249.8125 173.492188 249.949219 175.769531 Z M 249.949219 175.769531 " fill-opacity="1" fill-rule="nonzero"/><path fill="#300000" d="M 250.382812 178.839844 C 250.601562 178.855469 250.808594 178.898438 251.003906 178.964844 C 251.203125 179.03125 251.390625 179.121094 251.566406 179.226562 C 252.519531 179.886719 253.28125 180.9375 253.1875 182.214844 C 253.171875 182.410156 253.140625 182.601562 253.089844 182.789062 C 252.867188 184 251.683594 184.84375 250.542969 184.640625 C 248.753906 184.300781 248.402344 182.007812 249.136719 180.460938 C 249.246094 180.199219 249.378906 179.953125 249.539062 179.726562 C 249.691406 179.515625 249.863281 179.320312 250.0625 179.140625 C 250.15625 179.054688 250.261719 178.953125 250.382812 178.839844 Z M 250.382812 178.839844 " fill-opacity="1" fill-rule="nonzero"/><path fill="#300000" d="M 250.269531 179.574219 C 250.429688 179.589844 250.589844 179.609375 250.746094 179.65625 C 250.613281 179.617188 250.851562 179.699219 250.851562 179.699219 C 250.925781 179.726562 250.996094 179.757812 251.0625 179.792969 C 251.082031 179.800781 251.289062 179.933594 251.148438 179.835938 C 251.195312 179.867188 251.242188 179.902344 251.289062 179.941406 C 251.382812 180.011719 251.476562 180.089844 251.5625 180.167969 C 251.609375 180.207031 251.652344 180.25 251.695312 180.292969 C 251.714844 180.3125 251.851562 180.457031 251.726562 180.324219 C 251.808594 180.410156 251.882812 180.503906 251.957031 180.597656 C 252.015625 180.679688 252.070312 180.761719 252.125 180.84375 C 252.15625 180.894531 252.1875 180.949219 252.214844 181 C 252.125 180.839844 252.246094 181.066406 252.257812 181.097656 C 252.308594 181.207031 252.347656 181.320312 252.382812 181.4375 C 252.394531 181.472656 252.40625 181.511719 252.417969 181.550781 C 252.371094 181.382812 252.417969 181.578125 252.421875 181.605469 C 252.445312 181.726562 252.457031 181.851562 252.460938 181.976562 C 252.460938 182 252.449219 182.203125 252.460938 182.039062 C 252.457031 182.132812 252.445312 182.226562 252.433594 182.320312 C 252.414062 182.441406 252.386719 182.558594 252.363281 182.675781 C 252.347656 182.734375 252.335938 182.796875 252.320312 182.855469 C 252.371094 182.671875 252.3125 182.863281 252.300781 182.894531 C 252.257812 183.003906 252.203125 183.109375 252.144531 183.214844 C 252.238281 183.046875 252.144531 183.210938 252.121094 183.242188 C 252.085938 183.289062 252.050781 183.335938 252.015625 183.378906 C 251.976562 183.425781 251.9375 183.464844 251.898438 183.507812 C 251.769531 183.648438 252.015625 183.421875 251.867188 183.535156 C 251.773438 183.605469 251.683594 183.671875 251.585938 183.738281 C 251.433594 183.84375 251.722656 183.683594 251.554688 183.757812 C 251.507812 183.777344 251.46875 183.796875 251.421875 183.816406 C 251.378906 183.835938 251.335938 183.851562 251.289062 183.867188 C 251.253906 183.878906 251.21875 183.890625 251.179688 183.898438 C 251.273438 183.878906 251.277344 183.875 251.199219 183.894531 C 251.085938 183.910156 250.976562 183.925781 250.863281 183.929688 C 250.679688 183.945312 251.007812 183.957031 250.824219 183.929688 C 250.777344 183.921875 250.730469 183.917969 250.683594 183.910156 C 250.636719 183.902344 250.589844 183.890625 250.542969 183.882812 C 250.359375 183.84375 250.6875 183.945312 250.519531 183.875 C 250.445312 183.84375 250.222656 183.789062 250.183594 183.714844 C 250.210938 183.730469 250.238281 183.75 250.261719 183.765625 C 250.234375 183.746094 250.207031 183.726562 250.179688 183.707031 C 250.140625 183.675781 250.101562 183.644531 250.0625 183.609375 C 250.035156 183.585938 250.011719 183.5625 249.988281 183.539062 C 249.859375 183.425781 250.085938 183.671875 249.980469 183.535156 C 249.917969 183.453125 249.855469 183.375 249.800781 183.289062 C 249.773438 183.246094 249.671875 183.132812 249.789062 183.277344 C 249.75 183.226562 249.726562 183.144531 249.699219 183.085938 C 249.667969 183.007812 249.636719 182.925781 249.609375 182.839844 C 249.59375 182.789062 249.582031 182.738281 249.566406 182.6875 C 249.617188 182.871094 249.574219 182.695312 249.566406 182.660156 C 249.527344 182.441406 249.511719 182.222656 249.507812 182 C 249.511719 182.195312 249.507812 182.007812 249.511719 181.96875 C 249.515625 181.894531 249.523438 181.820312 249.53125 181.746094 C 249.546875 181.617188 249.570312 181.488281 249.597656 181.359375 C 249.605469 181.324219 249.613281 181.285156 249.621094 181.25 C 249.632812 181.214844 249.640625 181.179688 249.652344 181.140625 C 249.621094 181.246094 249.617188 181.253906 249.644531 181.171875 C 249.691406 181.050781 249.734375 180.933594 249.785156 180.8125 C 249.855469 180.65625 249.929688 180.5 250.011719 180.347656 C 250.019531 180.332031 250.089844 180.226562 250.023438 180.324219 C 250.082031 180.238281 250.136719 180.152344 250.199219 180.074219 C 250.453125 179.75 250.636719 179.613281 250.949219 179.3125 C 251.226562 179.042969 251.140625 178.484375 250.847656 178.265625 C 250.496094 178 250.109375 178.078125 249.808594 178.367188 C 249.78125 178.394531 249.753906 178.421875 249.722656 178.449219 C 249.628906 178.539062 249.789062 178.386719 249.703125 178.46875 C 249.636719 178.53125 249.570312 178.59375 249.5 178.65625 C 249.34375 178.804688 249.195312 178.957031 249.0625 179.128906 C 248.820312 179.445312 248.625 179.796875 248.460938 180.160156 C 248.234375 180.667969 248.082031 181.21875 248.050781 181.777344 C 247.992188 182.914062 248.308594 184.195312 249.285156 184.882812 C 250.34375 185.632812 251.789062 185.5625 252.769531 184.707031 C 253.824219 183.785156 254.15625 182.261719 253.765625 180.933594 C 253.347656 179.5 251.976562 178.242188 250.488281 178.105469 C 250.105469 178.066406 249.695312 178.3125 249.652344 178.726562 C 249.613281 179.109375 249.859375 179.535156 250.269531 179.574219 Z M 250.269531 179.574219 " fill-opacity="1" fill-rule="nonzero"/><path fill="#300000" d="M 248.359375 180.363281 C 248.292969 180.464844 248.230469 180.570312 248.160156 180.664062 C 248.140625 180.691406 248.117188 180.71875 248.09375 180.746094 C 248.109375 180.730469 248.125 180.714844 248.136719 180.699219 C 248.179688 180.695312 248.394531 180.625 248.410156 180.660156 C 248.386719 180.660156 248.363281 180.65625 248.339844 180.652344 C 248.300781 180.644531 248.308594 180.648438 248.363281 180.664062 C 248.417969 180.679688 248.429688 180.683594 248.390625 180.667969 C 248.367188 180.660156 248.34375 180.652344 248.320312 180.640625 C 248.203125 180.597656 248.371094 180.652344 248.359375 180.667969 C 248.347656 180.660156 248.335938 180.648438 248.320312 180.640625 C 248.273438 180.597656 248.273438 180.597656 248.316406 180.644531 C 248.351562 180.6875 248.359375 180.691406 248.335938 180.664062 C 248.320312 180.644531 248.308594 180.625 248.296875 180.605469 C 248.328125 180.601562 248.363281 180.773438 248.367188 180.796875 C 248.347656 180.667969 248.378906 180.925781 248.367188 180.835938 C 248.363281 180.789062 248.332031 180.910156 248.371094 180.839844 C 248.398438 180.789062 248.417969 180.734375 248.4375 180.683594 C 248.464844 180.621094 248.472656 180.609375 248.433594 180.675781 C 248.492188 180.578125 248.566406 180.496094 248.640625 180.410156 C 248.675781 180.363281 248.699219 180.34375 248.644531 180.398438 C 248.683594 180.355469 248.730469 180.320312 248.773438 180.285156 C 248.855469 180.222656 248.9375 180.160156 249.023438 180.105469 C 249.0625 180.082031 249.101562 180.058594 249.140625 180.035156 C 249.035156 180.101562 249.167969 180.023438 249.1875 180.011719 C 249.28125 179.96875 249.375 179.929688 249.46875 179.890625 C 249.898438 179.707031 250.332031 179.546875 250.785156 179.433594 C 250.605469 178.972656 250.429688 178.507812 250.253906 178.046875 C 249.65625 178.199219 249.125 178.644531 248.824219 179.183594 C 248.683594 179.433594 248.539062 179.683594 248.421875 179.941406 C 248.371094 180.046875 248.324219 180.15625 248.28125 180.265625 C 248.199219 180.484375 248.1875 180.6875 248.195312 180.917969 C 248.203125 181.308594 248.636719 181.632812 249.007812 181.574219 C 249.429688 181.507812 249.671875 181.171875 249.660156 180.753906 C 249.65625 180.570312 249.632812 180.875 249.628906 180.871094 C 249.625 180.867188 249.675781 180.753906 249.679688 180.742188 C 249.722656 180.644531 249.769531 180.546875 249.8125 180.449219 C 249.90625 180.25 250.019531 180.050781 250.132812 179.859375 C 250.089844 179.929688 250.121094 179.875 250.148438 179.84375 C 250.179688 179.804688 250.210938 179.769531 250.242188 179.734375 C 250.277344 179.691406 250.304688 179.660156 250.25 179.714844 C 250.28125 179.6875 250.3125 179.660156 250.347656 179.632812 C 250.382812 179.605469 250.417969 179.582031 250.453125 179.554688 C 250.601562 179.453125 250.398438 179.566406 250.492188 179.535156 C 250.589844 179.5 250.679688 179.460938 250.78125 179.433594 C 251.15625 179.335938 251.351562 178.8125 251.207031 178.472656 C 251.03125 178.066406 250.65625 177.945312 250.253906 178.046875 C 249.667969 178.195312 249.074219 178.40625 248.539062 178.6875 C 247.917969 179.015625 247.351562 179.476562 247.0625 180.140625 C 246.914062 180.480469 246.832031 180.84375 246.960938 181.207031 C 247.082031 181.539062 247.335938 181.777344 247.632812 181.949219 C 247.921875 182.121094 248.328125 182.203125 248.652344 182.089844 C 249.050781 181.949219 249.273438 181.644531 249.496094 181.308594 C 249.707031 180.984375 249.734375 180.519531 249.394531 180.261719 C 249.105469 180.042969 248.585938 180.015625 248.359375 180.363281 Z M 248.359375 180.363281 " fill-opacity="1" fill-rule="nonzero"/><path fill="#ffea6c" d="M 130.824219 169.882812 C 129.949219 172.914062 128.789062 176.375 130.613281 179.332031 C 133.328125 183.6875 138.804688 184.078125 143.242188 185.164062 C 144.066406 185.304688 144.894531 185.425781 145.722656 185.527344 C 156.085938 186.75 166.238281 187.371094 176.472656 187.582031 C 177.933594 187.613281 179.398438 187.636719 180.867188 187.648438 C 197.746094 187.371094 214.957031 188.710938 231.617188 185.601562 C 233.492188 185.128906 235.324219 184.523438 237.085938 183.75 C 238.734375 183.027344 240.210938 182.605469 240.269531 180.589844 C 240.316406 179.027344 239.707031 177.46875 239.1875 176.023438 C 238.609375 174.410156 237.867188 172.839844 237.074219 171.292969 C 236.285156 169.75 235.4375 168.226562 234.644531 166.714844 C 233.386719 164.488281 232.277344 162.144531 230.964844 159.898438 C 230.339844 158.769531 229.707031 157.644531 229.074219 156.519531 C 228.441406 155.394531 227.804688 154.269531 227.167969 153.148438 C 223.367188 146.460938 219.496094 139.8125 215.613281 133.171875 C 210.113281 123.765625 204.628906 114.351562 199.160156 104.925781 C 196.378906 100.132812 193.601562 95.339844 190.828125 90.542969 C 189.207031 87.738281 187.746094 84.632812 185.8125 81.949219 C 185.328125 81.277344 184.816406 80.632812 184.261719 80.027344 C 183.710938 79.417969 183.117188 78.851562 182.476562 78.332031 C 181.761719 77.75 181.054688 77.417969 180.367188 77.28125 C 176.929688 76.613281 173.945312 80.890625 172.203125 83.710938 C 170.410156 86.625 168.632812 89.667969 166.976562 92.652344 C 166.300781 93.871094 165.625 95.085938 164.957031 96.304688 C 160.347656 104.644531 144.496094 138.535156 135.871094 157.183594 C 135.332031 158.347656 134.824219 159.457031 134.347656 160.492188 C 133.890625 161.515625 133.441406 162.539062 133.019531 163.578125 C 132.59375 164.617188 132.191406 165.667969 131.839844 166.734375 C 131.210938 168.609375 130.859375 169.726562 130.824219 169.882812 Z M 130.824219 169.882812 " fill-opacity="1" fill-rule="nonzero"/><path fill="#efc820" d="M 172.757812 101.5 C 165.589844 101.5 162.796875 114.074219 170.777344 115.695312 C 175.699219 116.695312 179.835938 111.3125 179.417969 106.652344 C 179.09375 103.050781 175.988281 101.503906 172.757812 101.5 Z M 172.757812 101.5 " fill-opacity="1" fill-rule="nonzero"/><path fill="#efc820" d="M 215.414062 157.039062 C 213.082031 156.890625 211.035156 158.285156 209.871094 160.292969 C 209.179688 161.492188 208.765625 162.820312 208.671875 164.148438 C 208.265625 167.9375 211.089844 171.457031 214.851562 171.957031 C 217.121094 172.238281 219.445312 172.179688 221.4375 170.839844 C 224.925781 168.386719 224.261719 163.53125 222.070312 160.582031 C 221.5625 159.855469 220.953125 159.203125 220.257812 158.671875 C 219.558594 158.140625 218.769531 157.726562 217.898438 157.464844 C 217.09375 157.207031 216.253906 157.070312 215.414062 157.039062 Z M 215.414062 157.039062 " fill-opacity="1" fill-rule="nonzero"/><path fill="#efc820" d="M 212.90625 103.386719 C 210.980469 103.265625 209.289062 104.414062 208.328125 106.074219 C 207.757812 107.066406 207.414062 108.160156 207.339844 109.257812 C 207.003906 112.386719 209.335938 115.289062 212.441406 115.703125 C 214.316406 115.933594 216.234375 115.886719 217.878906 114.78125 C 220.757812 112.753906 220.210938 108.746094 218.398438 106.3125 C 217.980469 105.710938 217.476562 105.175781 216.902344 104.738281 C 216.328125 104.296875 215.675781 103.957031 214.957031 103.742188 C 214.289062 103.527344 213.597656 103.414062 212.90625 103.386719 Z M 212.90625 103.386719 " fill-opacity="1" fill-rule="nonzero"/><path fill="#efc820" d="M 146.386719 164.988281 C 144.671875 164.375 142.511719 164.265625 141.074219 165.714844 C 140.1875 166.609375 139.746094 167.726562 139.636719 168.898438 C 139.46875 171.464844 141.128906 173.808594 143.398438 174.925781 C 145.558594 175.929688 148.710938 175.929688 149.816406 173.417969 C 150.8125 171.074219 150.09375 168.226562 148.460938 166.394531 C 147.890625 165.761719 147.195312 165.265625 146.386719 164.988281 Z M 146.386719 164.988281 " fill-opacity="1" fill-rule="nonzero"/><path fill="#efc820" d="M 187.792969 113.761719 C 185.320312 112.796875 182.273438 113.800781 181.058594 116.257812 C 179.949219 118.488281 179.839844 121.449219 182 123.066406 C 184.875 125.242188 189.136719 124.628906 191.128906 121.558594 C 192.511719 119.382812 191.515625 116.757812 189.957031 115.085938 C 189.363281 114.472656 188.636719 114 187.792969 113.761719 Z M 187.792969 113.761719 " fill-opacity="1" fill-rule="nonzero"/><path fill="#efc820" d="M 225.300781 124.652344 C 223.304688 123.875 220.847656 124.683594 219.867188 126.664062 C 218.972656 128.46875 218.882812 130.855469 220.625 132.160156 C 222.949219 133.917969 226.386719 133.421875 227.992188 130.945312 C 229.109375 129.1875 228.308594 127.070312 227.046875 125.71875 C 226.570312 125.226562 225.984375 124.84375 225.300781 124.652344 Z M 225.300781 124.652344 " fill-opacity="1" fill-rule="nonzero"/><path fill="#ffffff" d="M 189.199219 149.699219 C 189.175781 149.074219 189.226562 148.445312 189.355469 147.832031 C 190.050781 144.535156 193.015625 142.039062 196.28125 141.632812 C 201.722656 140.960938 206.394531 146.816406 204.222656 152.007812 C 202.207031 156.832031 195.265625 158.054688 191.460938 154.695312 C 190.03125 153.433594 189.269531 151.585938 189.199219 149.699219 Z M 189.199219 149.699219 " fill-opacity="1" fill-rule="nonzero"/><path fill="#300000" d="M 191.820312 149.421875 C 191.746094 148.542969 191.886719 147.648438 192.257812 146.84375 C 193.15625 144.90625 195.15625 143.882812 197.210938 143.839844 C 197.417969 143.835938 197.644531 143.871094 197.800781 144.019531 C 198.175781 144.386719 197.695312 144.890625 197.441406 145.164062 C 196.765625 145.894531 196.683594 146.777344 197.152344 147.648438 C 197.570312 148.421875 198.386719 149.066406 199.296875 148.984375 C 199.621094 148.953125 199.929688 148.832031 200.199219 148.648438 C 200.519531 148.429688 200.6875 148.160156 200.839844 147.8125 C 200.964844 147.53125 201.105469 147.09375 201.503906 147.199219 C 201.8125 147.28125 202.027344 147.75 202.097656 148.03125 C 202.28125 148.804688 202.09375 149.660156 201.878906 150.40625 C 201.5625 151.496094 200.914062 152.527344 200.007812 153.214844 C 198.1875 154.59375 195.433594 154.539062 193.667969 153.085938 C 192.582031 152.191406 191.933594 150.824219 191.820312 149.421875 Z M 191.820312 149.421875 " fill-opacity="1" fill-rule="nonzero"/><path fill="#ffffff" d="M 154.128906 149.296875 C 154.105469 148.671875 154.160156 148.042969 154.289062 147.429688 C 154.984375 144.132812 157.945312 141.632812 161.214844 141.230469 C 166.652344 140.558594 171.324219 146.414062 169.15625 151.605469 C 167.140625 156.425781 160.195312 157.652344 156.390625 154.292969 C 154.964844 153.03125 154.199219 151.183594 154.128906 149.296875 Z M 154.128906 149.296875 " fill-opacity="1" fill-rule="nonzero"/><path fill="#300000" d="M 156.75 149.019531 C 156.679688 148.136719 156.816406 147.242188 157.191406 146.441406 C 158.089844 144.503906 160.089844 143.480469 162.144531 143.4375 C 162.347656 143.433594 162.578125 143.46875 162.730469 143.617188 C 163.105469 143.980469 162.625 144.488281 162.375 144.761719 C 161.699219 145.492188 161.613281 146.375 162.085938 147.246094 C 162.503906 148.019531 163.316406 148.664062 164.230469 148.582031 C 164.554688 148.550781 164.859375 148.429688 165.128906 148.246094 C 165.453125 148.027344 165.621094 147.757812 165.773438 147.410156 C 165.894531 147.125 166.039062 146.6875 166.4375 146.796875 C 166.746094 146.878906 166.960938 147.347656 167.027344 147.628906 C 167.214844 148.398438 167.023438 149.257812 166.808594 150 C 166.496094 151.09375 165.847656 152.125 164.941406 152.8125 C 163.121094 154.191406 160.363281 154.132812 158.597656 152.679688 C 157.515625 151.789062 156.867188 150.421875 156.75 149.019531 Z M 156.75 149.019531 " fill-opacity="1" fill-rule="nonzero"/><path fill="#f76537" d="M 203.738281 160.722656 C 204.125 163.789062 201.121094 165.347656 198.527344 165.613281 C 195.210938 165.949219 190.40625 163.984375 190.453125 160.011719 C 190.480469 157.609375 192.597656 156.234375 194.707031 155.789062 C 197.964844 155.101562 202.222656 156.074219 203.460938 159.59375 C 203.601562 159.988281 203.691406 160.363281 203.738281 160.722656 Z M 203.738281 160.722656 " fill-opacity="1" fill-rule="nonzero"/><path fill="#f76537" d="M 154.898438 160.160156 C 154.441406 163.214844 157.410156 164.84375 160 165.167969 C 163.304688 165.582031 168.152344 163.726562 168.195312 159.753906 C 168.222656 157.351562 166.136719 155.929688 164.039062 155.4375 C 160.796875 154.675781 156.519531 155.550781 155.199219 159.039062 C 155.050781 159.429688 154.953125 159.804688 154.898438 160.160156 Z M 154.898438 160.160156 " fill-opacity="1" fill-rule="nonzero"/><path fill="#300000" d="M 184.640625 155.023438 C 184.1875 156.425781 183.6875 157.980469 182.566406 159 C 181.515625 159.953125 180.125 160.414062 178.71875 160.242188 C 176.046875 159.917969 174.296875 157.414062 173.855469 154.894531 C 173.761719 154.347656 173.984375 153.789062 174.550781 153.625 C 175.039062 153.480469 175.714844 153.777344 175.8125 154.324219 C 175.898438 154.808594 176.027344 155.28125 176.203125 155.738281 C 176.277344 155.929688 176.199219 155.742188 176.277344 155.914062 C 176.335938 156.035156 176.398438 156.15625 176.460938 156.273438 C 176.582031 156.492188 176.714844 156.707031 176.863281 156.90625 C 177.335938 157.558594 178.046875 158.070312 178.90625 158.207031 C 179.6875 158.332031 180.601562 158.058594 181.179688 157.5 C 181.960938 156.738281 182.328125 155.570312 182.664062 154.519531 C 182.835938 153.992188 183.34375 153.632812 183.902344 153.773438 C 184.410156 153.90625 184.8125 154.492188 184.640625 155.023438 Z M 184.640625 155.023438 " fill-opacity="1" fill-rule="nonzero"/><g clip-path="url(#d844450960)"><path fill="#545454" d="M 287.734375 75.230469 C 287.402344 68.015625 283.917969 61.324219 279.441406 55.792969 C 275.757812 51.242188 270.730469 47.507812 264.859375 46.480469 C 254.328125 44.632812 244.207031 50.859375 237.46875 58.480469 C 234.222656 62.148438 231.46875 66.339844 229.808594 70.972656 C 228.539062 74.507812 227.894531 78.683594 229.640625 82.175781 C 229.796875 82.492188 229.980469 82.792969 230.183594 83.085938 C 229.316406 84.363281 228.316406 85.578125 227.363281 86.773438 C 225.664062 88.921875 223.917969 91.128906 221.851562 92.941406 C 220.726562 93.925781 221.636719 95.863281 223.054688 95.84375 C 227.769531 95.777344 232.425781 94.792969 236.992188 93.660156 C 240.570312 98.445312 245.460938 102.109375 251.320312 103.609375 C 256.992188 105.0625 263.109375 104.488281 268.53125 102.347656 C 279.523438 98.007812 288.300781 87.476562 287.734375 75.230469 Z M 267.890625 50.894531 C 267.835938 50.867188 267.789062 50.847656 267.890625 50.894531 Z M 281.820312 86.5 C 279.359375 91.175781 275.535156 94.894531 270.941406 97.46875 C 266.386719 100.027344 261.238281 101.335938 255.976562 100.953125 C 253.691406 100.785156 250.855469 100.097656 248.734375 99.125 C 246.132812 97.929688 243.929688 96.34375 241.960938 94.3125 C 240.925781 93.246094 240 92.097656 239.160156 90.871094 C 238.726562 90.234375 238.011719 89.894531 237.242188 90.089844 C 233.992188 90.914062 230.703125 91.703125 227.375 92.125 C 228.253906 91.101562 229.089844 90.039062 229.914062 88.992188 C 231.226562 87.328125 232.65625 85.648438 233.746094 83.824219 C 234.042969 83.324219 234.054688 82.839844 233.890625 82.425781 C 233.816406 82.199219 233.683594 81.972656 233.480469 81.761719 C 233.355469 81.636719 233.242188 81.496094 233.121094 81.367188 C 233.101562 81.347656 233.089844 81.339844 233.082031 81.328125 C 233.066406 81.300781 233.042969 81.261719 233.011719 81.210938 C 232.820312 80.90625 232.652344 80.601562 232.488281 80.285156 C 232.476562 80.261719 232.46875 80.242188 232.457031 80.226562 C 232.453125 80.207031 232.445312 80.179688 232.433594 80.148438 C 232.386719 79.988281 232.324219 79.835938 232.277344 79.675781 C 232.167969 79.3125 232.101562 78.945312 232.035156 78.574219 C 232.027344 78.480469 232.015625 78.386719 232.007812 78.292969 C 231.992188 78.109375 231.984375 77.929688 231.976562 77.746094 C 231.964844 77.332031 231.976562 76.917969 232.003906 76.503906 C 232.015625 76.304688 232.039062 76.113281 232.054688 75.917969 C 232.0625 75.855469 232.066406 75.8125 232.066406 75.785156 C 232.070312 75.757812 232.078125 75.71875 232.089844 75.652344 C 232.175781 75.179688 232.261719 74.707031 232.371094 74.242188 C 232.597656 73.304688 232.886719 72.386719 233.226562 71.488281 C 233.3125 71.265625 233.398438 71.046875 233.484375 70.832031 C 233.496094 70.800781 233.570312 70.628906 233.589844 70.578125 C 233.609375 70.53125 233.628906 70.488281 233.648438 70.445312 C 233.890625 69.90625 234.140625 69.371094 234.410156 68.84375 C 235.4375 66.828125 236.671875 64.917969 238.03125 63.113281 C 238.238281 62.835938 238.519531 62.484375 238.890625 62.03125 C 239.28125 61.554688 239.683594 61.089844 240.09375 60.636719 C 240.921875 59.710938 241.792969 58.824219 242.695312 57.976562 C 244.550781 56.238281 246.109375 55.007812 248.242188 53.664062 C 250.328125 52.351562 252.265625 51.390625 254.394531 50.683594 C 256.738281 49.902344 258.59375 49.554688 260.882812 49.535156 C 263.242188 49.515625 265.113281 49.835938 267.464844 50.730469 C 267.621094 50.789062 267.773438 50.851562 267.925781 50.914062 C 267.949219 50.921875 267.976562 50.933594 268.011719 50.949219 C 268.277344 51.066406 268.539062 51.191406 268.800781 51.316406 C 269.417969 51.621094 270.019531 51.957031 270.601562 52.320312 C 271.796875 53.0625 272.679688 53.738281 273.710938 54.667969 C 276.117188 56.835938 278.101562 59.402344 279.796875 62.15625 C 281.535156 64.976562 282.980469 67.933594 283.753906 71.167969 C 284.988281 76.359375 284.269531 81.84375 281.820312 86.503906 Z M 281.820312 86.5 " fill-opacity="1" fill-rule="nonzero"/></g><path fill="#545454" d="M 255.757812 66.984375 C 256.265625 69.046875 256.785156 71.132812 257.230469 73.230469 C 254.207031 73.753906 251.128906 74.128906 248.140625 74.851562 C 247.855469 72.957031 247.65625 71.054688 247.6875 69.128906 C 247.71875 66.9375 244.320312 66.9375 244.285156 69.128906 C 244.203125 74.578125 245.921875 79.808594 246.359375 85.203125 C 246.4375 86.117188 247.085938 86.90625 248.058594 86.90625 C 248.921875 86.90625 249.835938 86.125 249.761719 85.203125 C 249.566406 82.855469 249.132812 80.535156 248.710938 78.210938 C 251.710938 77.453125 254.804688 77.078125 257.847656 76.558594 C 258.269531 79.25 258.480469 81.964844 258.289062 84.683594 C 258.132812 86.867188 261.535156 86.859375 261.6875 84.683594 C 262.136719 78.414062 260.523438 72.121094 259.035156 66.082031 C 258.511719 63.960938 255.234375 64.859375 255.757812 66.988281 Z M 255.757812 66.984375 " fill-opacity="1" fill-rule="nonzero"/><path fill="#545454" d="M 271.023438 71.203125 C 270.875 69.03125 267.476562 69.015625 267.625 71.203125 C 267.921875 75.550781 268.839844 79.824219 269.179688 84.164062 C 269.253906 85.082031 269.910156 85.867188 270.878906 85.867188 C 271.742188 85.867188 272.652344 85.085938 272.578125 84.164062 C 272.238281 79.824219 271.320312 75.546875 271.023438 71.203125 Z M 271.023438 71.203125 " fill-opacity="1" fill-rule="nonzero"/><path fill="#545454" d="M 268.285156 63.796875 C 266.101562 63.796875 266.097656 67.195312 268.285156 67.195312 C 270.476562 67.195312 270.476562 63.796875 268.285156 63.796875 Z M 268.285156 63.796875 " fill-opacity="1" fill-rule="nonzero"/><g fill="#000000" fill-opacity="1"><g transform="translate(30.324747, 187.029645)"><g><path d="M 31.359375 -10.78125 C 31.703125 -11.289062 32.226562 -11.851562 32.9375 -12.46875 C 33.65625 -13.09375 34.46875 -13.601562 35.375 -14 C 37.0625 -14.726562 38.4375 -14.875 39.5 -14.4375 C 40.570312 -14 41.375 -13.175781 41.90625 -11.96875 L 54.234375 16.390625 C 53.898438 16.898438 53.375 17.460938 52.65625 18.078125 C 51.945312 18.703125 51.140625 19.210938 50.234375 19.609375 C 48.535156 20.335938 47.15625 20.484375 46.09375 20.046875 C 45.03125 19.617188 44.234375 18.796875 43.703125 17.578125 L 40.5625 10.359375 L 10.515625 23.4375 C 10.179688 23.019531 9.722656 22.328125 9.140625 21.359375 C 8.566406 20.390625 8.0625 19.410156 7.625 18.421875 C 7.1875 17.421875 6.878906 16.503906 6.703125 15.671875 C 6.523438 14.847656 6.515625 14.09375 6.671875 13.40625 C 6.835938 12.71875 7.210938 12.09375 7.796875 11.53125 C 8.378906 10.96875 9.238281 10.441406 10.375 9.953125 L 35.609375 -1.03125 Z M 31.359375 -10.78125 "/></g></g></g><g fill="#000000" fill-opacity="1"><g transform="translate(50.672785, 229.070229)"><g><path d="M 10.421875 13.453125 C 10.003906 13.117188 9.40625 12.550781 8.625 11.75 C 7.84375 10.945312 7.128906 10.113281 6.484375 9.25 C 5.828125 8.375 5.316406 7.554688 4.953125 6.796875 C 4.585938 6.035156 4.40625 5.296875 4.40625 4.578125 C 4.414062 3.867188 4.632812 3.175781 5.0625 2.5 C 5.5 1.820312 6.207031 1.113281 7.1875 0.375 L 37.171875 -22.078125 C 37.554688 -21.722656 38.15625 -21.140625 38.96875 -20.328125 C 39.789062 -19.515625 40.507812 -18.691406 41.125 -17.859375 C 41.78125 -16.992188 42.285156 -16.179688 42.640625 -15.421875 C 43.003906 -14.660156 43.1875 -13.925781 43.1875 -13.21875 C 43.1875 -12.507812 42.96875 -11.8125 42.53125 -11.125 C 42.09375 -10.445312 41.382812 -9.738281 40.40625 -9 Z M 10.421875 13.453125 "/></g></g></g><g fill="#000000" fill-opacity="1"><g transform="translate(67.957331, 254.247901)"><g><path d="M 33.890625 11.890625 C 33.097656 11.941406 32.21875 11.804688 31.25 11.484375 C 30.28125 11.160156 29.285156 10.617188 28.265625 9.859375 C 26.890625 8.847656 25.882812 7.835938 25.25 6.828125 C 24.613281 5.828125 24.46875 4.8125 24.8125 3.78125 C 26.226562 -0.351562 27.351562 -3.707031 28.1875 -6.28125 C 29.03125 -8.863281 29.84375 -11.078125 30.625 -12.921875 L 30.328125 -13.140625 C 28.566406 -10.972656 26.972656 -8.988281 25.546875 -7.1875 C 24.117188 -5.382812 22.75 -3.613281 21.4375 -1.875 C 20.132812 -0.132812 18.796875 1.601562 17.421875 3.34375 C 16.046875 5.082031 14.5 7 12.78125 9.09375 C 12.132812 8.914062 11.363281 8.597656 10.46875 8.140625 C 9.582031 7.679688 8.738281 7.15625 7.9375 6.5625 C 6.269531 5.332031 5.164062 4.101562 4.625 2.875 C 4.082031 1.65625 4.332031 0.34375 5.375 -1.0625 L 28.515625 -28.921875 C 29.191406 -29.203125 30.25 -29.242188 31.6875 -29.046875 C 33.132812 -28.859375 34.789062 -28.078125 36.65625 -26.703125 C 38.664062 -25.210938 40.015625 -23.734375 40.703125 -22.265625 C 41.390625 -20.796875 41.476562 -19.164062 40.96875 -17.375 C 40.632812 -16.195312 40.226562 -14.875 39.75 -13.40625 C 39.28125 -11.9375 38.78125 -10.425781 38.25 -8.875 C 37.726562 -7.320312 37.195312 -5.785156 36.65625 -4.265625 C 36.125 -2.742188 35.644531 -1.375 35.21875 -0.15625 L 35.515625 0.046875 C 38.796875 -2.472656 41.992188 -4.890625 45.109375 -7.203125 C 48.222656 -9.523438 50.898438 -11.410156 53.140625 -12.859375 C 53.941406 -12.734375 54.863281 -12.441406 55.90625 -11.984375 C 56.957031 -11.535156 58.03125 -10.90625 59.125 -10.09375 C 61 -8.71875 62.320312 -7.320312 63.09375 -5.90625 C 63.863281 -4.488281 63.960938 -3.191406 63.390625 -2.015625 C 62.984375 -1.148438 62.285156 0.132812 61.296875 1.84375 C 60.304688 3.550781 59.171875 5.460938 57.890625 7.578125 C 56.617188 9.691406 55.265625 11.921875 53.828125 14.265625 C 52.390625 16.617188 51.003906 18.875 49.671875 21.03125 C 48.347656 23.195312 47.113281 25.164062 45.96875 26.9375 C 44.832031 28.71875 43.953125 30.082031 43.328125 31.03125 C 42.390625 30.925781 41.503906 30.695312 40.671875 30.34375 C 39.847656 30 38.882812 29.421875 37.78125 28.609375 C 36.332031 27.535156 35.296875 26.382812 34.671875 25.15625 C 34.046875 23.9375 34.226562 22.582031 35.21875 21.09375 C 38.0625 16.78125 40.671875 12.941406 43.046875 9.578125 C 45.429688 6.222656 47.40625 3.390625 48.96875 1.078125 L 48.671875 0.859375 C 47.191406 2.054688 45.257812 3.507812 42.875 5.21875 C 40.5 6.9375 37.503906 9.160156 33.890625 11.890625 Z M 33.890625 11.890625 "/></g></g></g><g fill="#000000" fill-opacity="1"><g transform="translate(122.963951, 290.851307)"><g><path d="M 14.65625 -33.625 C 15.226562 -35.570312 16.242188 -36.945312 17.703125 -37.75 C 19.171875 -38.550781 20.878906 -38.664062 22.828125 -38.09375 L 45.3125 -31.515625 C 45.46875 -30.921875 45.550781 -30.179688 45.5625 -29.296875 C 45.582031 -28.410156 45.457031 -27.507812 45.1875 -26.59375 C 44.6875 -24.875 43.953125 -23.757812 42.984375 -23.25 C 42.023438 -22.738281 40.9375 -22.664062 39.71875 -23.03125 L 25.359375 -27.234375 L 23.5 -20.90625 L 38.8125 -16.421875 C 38.976562 -15.828125 39.066406 -15.097656 39.078125 -14.234375 C 39.097656 -13.367188 38.976562 -12.476562 38.71875 -11.5625 C 38.207031 -9.84375 37.484375 -8.726562 36.546875 -8.21875 C 35.609375 -7.707031 34.523438 -7.628906 33.296875 -7.984375 L 20.78125 -11.65625 L 18.6875 -4.5 L 36.1875 0.625 C 36.351562 1.21875 36.441406 1.957031 36.453125 2.84375 C 36.460938 3.726562 36.335938 4.625 36.078125 5.53125 C 35.566406 7.257812 34.828125 8.390625 33.859375 8.921875 C 32.898438 9.453125 31.804688 9.535156 30.578125 9.171875 L 10.6875 3.359375 C 8.738281 2.785156 7.363281 1.765625 6.5625 0.296875 C 5.757812 -1.160156 5.644531 -2.867188 6.21875 -4.828125 Z M 14.65625 -33.625 "/></g></g></g><g fill="#000000" fill-opacity="1"><g transform="translate(170.249243, 304.847923)"><g><path d="M 21.71875 -34.390625 C 22.21875 -34.671875 23.007812 -35.007812 24.09375 -35.40625 C 25.175781 -35.8125 26.28125 -36.0625 27.40625 -36.15625 C 29.382812 -36.3125 31.054688 -36.148438 32.421875 -35.671875 C 33.785156 -35.191406 34.660156 -34.398438 35.046875 -33.296875 C 35.734375 -31.398438 36.363281 -29.632812 36.9375 -28 C 37.519531 -26.363281 38.085938 -24.796875 38.640625 -23.296875 C 39.191406 -21.804688 39.726562 -20.320312 40.25 -18.84375 C 40.78125 -17.363281 41.300781 -15.820312 41.8125 -14.21875 L 42.171875 -14.25 C 42.359375 -17.144531 42.503906 -19.910156 42.609375 -22.546875 C 42.722656 -25.191406 42.816406 -27.785156 42.890625 -30.328125 C 42.972656 -32.878906 43.050781 -35.40625 43.125 -37.90625 C 43.207031 -40.40625 43.285156 -42.941406 43.359375 -45.515625 C 45.015625 -46.640625 46.835938 -47.285156 48.828125 -47.453125 C 50.566406 -47.597656 52.101562 -47.34375 53.4375 -46.6875 C 54.769531 -46.039062 55.507812 -44.828125 55.65625 -43.046875 C 55.738281 -42.003906 55.753906 -40.519531 55.703125 -38.59375 C 55.648438 -36.664062 55.546875 -34.507812 55.390625 -32.125 C 55.234375 -29.738281 55.023438 -27.226562 54.765625 -24.59375 C 54.515625 -21.96875 54.222656 -19.457031 53.890625 -17.0625 C 53.566406 -14.664062 53.210938 -12.488281 52.828125 -10.53125 C 52.453125 -8.570312 52.070312 -7.054688 51.6875 -5.984375 C 51.03125 -5.265625 49.914062 -4.625 48.34375 -4.0625 C 46.78125 -3.507812 45.15625 -3.164062 43.46875 -3.03125 C 41.238281 -2.84375 39.332031 -2.976562 37.75 -3.4375 C 36.175781 -3.90625 35.175781 -4.664062 34.75 -5.71875 C 33.988281 -7.550781 33.144531 -9.734375 32.21875 -12.265625 C 31.300781 -14.804688 30.3125 -17.597656 29.25 -20.640625 C 28.84375 -17.515625 28.40625 -14.460938 27.9375 -11.484375 C 27.476562 -8.503906 27.050781 -5.984375 26.65625 -3.921875 C 26 -3.191406 24.976562 -2.554688 23.59375 -2.015625 C 22.21875 -1.484375 20.6875 -1.144531 19 -1 C 16.875 -0.820312 14.925781 -0.957031 13.15625 -1.40625 C 11.394531 -1.851562 10.207031 -2.597656 9.59375 -3.640625 C 9.09375 -4.453125 8.523438 -5.675781 7.890625 -7.3125 C 7.265625 -8.945312 6.601562 -10.816406 5.90625 -12.921875 C 5.21875 -15.023438 4.5 -17.300781 3.75 -19.75 C 3 -22.195312 2.289062 -24.648438 1.625 -27.109375 C 0.96875 -29.566406 0.359375 -31.972656 -0.203125 -34.328125 C -0.765625 -36.679688 -1.226562 -38.832031 -1.59375 -40.78125 C -0.988281 -41.46875 -0.117188 -42.113281 1.015625 -42.71875 C 2.160156 -43.332031 3.414062 -43.695312 4.78125 -43.8125 C 6.570312 -43.957031 8.078125 -43.691406 9.296875 -43.015625 C 10.515625 -42.335938 11.34375 -41.09375 11.78125 -39.28125 C 12.925781 -34.519531 13.878906 -30.554688 14.640625 -27.390625 C 15.398438 -24.234375 16.015625 -21.644531 16.484375 -19.625 C 16.960938 -17.601562 17.316406 -16.03125 17.546875 -14.90625 C 17.785156 -13.78125 18.003906 -12.898438 18.203125 -12.265625 L 18.546875 -12.296875 C 18.828125 -14.203125 19.085938 -15.972656 19.328125 -17.609375 C 19.566406 -19.242188 19.816406 -20.890625 20.078125 -22.546875 C 20.347656 -24.210938 20.617188 -25.992188 20.890625 -27.890625 C 21.171875 -29.785156 21.445312 -31.953125 21.71875 -34.390625 Z M 21.71875 -34.390625 "/></g></g></g><g fill="#000000" fill-opacity="1"><g transform="translate(241.59952, 295.582777)"><g><path d="M -7.921875 -20.21875 C -9.648438 -23.476562 -10.664062 -26.628906 -10.96875 -29.671875 C -11.28125 -32.722656 -11 -35.566406 -10.125 -38.203125 C -9.25 -40.835938 -7.835938 -43.226562 -5.890625 -45.375 C -3.953125 -47.519531 -1.582031 -49.335938 1.21875 -50.828125 C 4.007812 -52.316406 6.835938 -53.257812 9.703125 -53.65625 C 12.566406 -54.0625 15.34375 -53.890625 18.03125 -53.140625 C 20.726562 -52.398438 23.253906 -51.050781 25.609375 -49.09375 C 27.972656 -47.132812 30.019531 -44.523438 31.75 -41.265625 C 33.476562 -38.003906 34.507812 -34.84375 34.84375 -31.78125 C 35.175781 -28.726562 34.90625 -25.882812 34.03125 -23.25 C 33.15625 -20.613281 31.738281 -18.210938 29.78125 -16.046875 C 27.820312 -13.890625 25.425781 -12.054688 22.59375 -10.546875 C 19.75 -9.035156 16.878906 -8.082031 13.984375 -7.6875 C 11.085938 -7.300781 8.304688 -7.5 5.640625 -8.28125 C 2.972656 -9.070312 0.472656 -10.457031 -1.859375 -12.4375 C -4.191406 -14.414062 -6.210938 -17.007812 -7.921875 -20.21875 Z M 3.359375 -26.203125 C 5.378906 -22.398438 7.660156 -19.96875 10.203125 -18.90625 C 12.742188 -17.84375 15.3125 -18 17.90625 -19.375 C 20.539062 -20.769531 22.128906 -22.816406 22.671875 -25.515625 C 23.222656 -28.222656 22.488281 -31.476562 20.46875 -35.28125 C 18.46875 -39.039062 16.207031 -41.453125 13.6875 -42.515625 C 11.164062 -43.585938 8.585938 -43.425781 5.953125 -42.03125 C 3.367188 -40.65625 1.785156 -38.625 1.203125 -35.9375 C 0.617188 -33.25 1.335938 -30.003906 3.359375 -26.203125 Z M 3.359375 -26.203125 "/></g></g></g><g fill="#000000" fill-opacity="1"><g transform="translate(292.96369, 265.807972)"><g><path d="M 1.15625 -21.90625 L 11.21875 -12.71875 C 10.96875 -12.238281 10.519531 -11.535156 9.875 -10.609375 C 9.238281 -9.691406 8.550781 -8.832031 7.8125 -8.03125 C 7.082031 -7.226562 6.375 -6.578125 5.6875 -6.078125 C 5.007812 -5.578125 4.332031 -5.269531 3.65625 -5.15625 C 2.976562 -5.050781 2.265625 -5.144531 1.515625 -5.4375 C 0.765625 -5.738281 -0.0664062 -6.304688 -0.984375 -7.140625 L -25.65625 -29.65625 C -26.394531 -30.320312 -26.78125 -31.035156 -26.8125 -31.796875 C -26.84375 -32.566406 -26.664062 -33.414062 -26.28125 -34.34375 C -25.601562 -35.90625 -24.644531 -37.5625 -23.40625 -39.3125 C -22.164062 -41.0625 -20.734375 -42.828125 -19.109375 -44.609375 C -14.710938 -49.429688 -10.382812 -52.144531 -6.125 -52.75 C -1.875 -53.351562 1.984375 -52.070312 5.453125 -48.90625 C 7.609375 -46.9375 8.945312 -44.6875 9.46875 -42.15625 C 9.988281 -39.632812 9.960938 -37.226562 9.390625 -34.9375 C 12.242188 -34.625 14.984375 -34.394531 17.609375 -34.25 C 20.234375 -34.101562 22.472656 -33.820312 24.328125 -33.40625 C 25.222656 -31.9375 25.570312 -30.445312 25.375 -28.9375 C 25.1875 -27.425781 24.566406 -26.09375 23.515625 -24.9375 C 22.816406 -24.164062 22.125 -23.578125 21.4375 -23.171875 C 20.75 -22.773438 20.054688 -22.507812 19.359375 -22.375 C 18.660156 -22.25 17.925781 -22.21875 17.15625 -22.28125 C 16.382812 -22.34375 15.59375 -22.457031 14.78125 -22.625 L 3.703125 -24.6875 Z M -2.8125 -31.5625 C -1.59375 -32.894531 -0.972656 -34.253906 -0.953125 -35.640625 C -0.929688 -37.023438 -1.582031 -38.320312 -2.90625 -39.53125 C -4.238281 -40.75 -5.632812 -41.238281 -7.09375 -41 C -8.5625 -40.769531 -10.140625 -39.726562 -11.828125 -37.875 C -12.304688 -37.34375 -12.671875 -36.90625 -12.921875 -36.5625 C -13.171875 -36.21875 -13.4375 -35.828125 -13.71875 -35.390625 L -5.859375 -28.21875 Z M -2.8125 -31.5625 "/></g></g></g><g fill="#004aad" fill-opacity="1"><g transform="translate(327.065352, 226.209016)"><g><path d="M -33.765625 -16.921875 C -34.273438 -17.410156 -34.742188 -17.984375 -35.171875 -18.640625 C -35.609375 -19.304688 -35.941406 -20.039062 -36.171875 -20.84375 C -36.410156 -21.644531 -36.515625 -22.503906 -36.484375 -23.421875 C -36.460938 -24.347656 -36.238281 -25.285156 -35.8125 -26.234375 C -35.25 -27.472656 -34.441406 -28.429688 -33.390625 -29.109375 C -32.335938 -29.785156 -30.832031 -30.285156 -28.875 -30.609375 L -18.921875 -32.203125 L -26.578125 -44.5625 C -26.597656 -44.988281 -26.539062 -45.546875 -26.40625 -46.234375 C -26.28125 -46.929688 -26.082031 -47.582031 -25.8125 -48.1875 C -24.925781 -50.175781 -23.753906 -51.515625 -22.296875 -52.203125 C -20.847656 -52.898438 -19.429688 -52.941406 -18.046875 -52.328125 C -16.835938 -51.785156 -15.894531 -50.988281 -15.21875 -49.9375 C -14.550781 -48.882812 -13.800781 -47.519531 -12.96875 -45.84375 L -7.796875 -35.515625 L 12.03125 -39.3125 C 13.46875 -38.25 14.394531 -36.9375 14.8125 -35.375 C 15.226562 -33.820312 15 -32.070312 14.125 -30.125 C 13.5625 -28.875 12.765625 -27.9375 11.734375 -27.3125 C 10.703125 -26.6875 9.21875 -26.238281 7.28125 -25.96875 L -3.34375 -24.4375 L 5.296875 -10.765625 C 5.179688 -10.398438 5.066406 -10.0625 4.953125 -9.75 C 4.835938 -9.4375 4.710938 -9.128906 4.578125 -8.828125 C 3.472656 -6.367188 2.160156 -4.78125 0.640625 -4.0625 C -0.867188 -3.34375 -2.351562 -3.3125 -3.8125 -3.96875 C -5.070312 -4.53125 -6.046875 -5.289062 -6.734375 -6.25 C -7.421875 -7.207031 -8.160156 -8.457031 -8.953125 -10 L -14.65625 -20.71875 Z M -33.765625 -16.921875 "/></g></g></g></svg>