<svg xmlns="http://www.w3.org/2000/svg" xmlns:xlink="http://www.w3.org/1999/xlink" width="500" zoomAndPan="magnify" viewBox="0 0 375 374.999991" height="500" preserveAspectRatio="xMidYMid meet" version="1.0"><defs><g/><clipPath id="17725bcec8"><path d="M 329 175 L 343 175 L 343 176.769531 L 329 176.769531 Z M 329 175 " clip-rule="nonzero"/></clipPath><clipPath id="09cef4236b"><path d="M 331 174 L 335 174 L 335 176.769531 L 331 176.769531 Z M 331 174 " clip-rule="nonzero"/></clipPath><clipPath id="1873f89e1e"><path d="M 337 174 L 341 174 L 341 176.769531 L 337 176.769531 Z M 337 174 " clip-rule="nonzero"/></clipPath><clipPath id="3734e2bc2d"><path d="M 324 136.382812 L 358.535156 136.382812 L 358.535156 172 L 324 172 Z M 324 136.382812 " clip-rule="nonzero"/></clipPath><clipPath id="1e69687745"><path d="M 319.007812 154 L 321 154 L 321 158 L 319.007812 158 Z M 319.007812 154 " clip-rule="nonzero"/></clipPath><clipPath id="75c9cd7d13"><path d="M 319.007812 152 L 321 152 L 321 155 L 319.007812 155 Z M 319.007812 152 " clip-rule="nonzero"/></clipPath><clipPath id="a0624344d4"><path d="M 319.007812 153 L 322 153 L 322 155 L 319.007812 155 Z M 319.007812 153 " clip-rule="nonzero"/></clipPath><clipPath id="512f7baa1b"><path d="M 356 169 L 358.535156 169 L 358.535156 171 L 356 171 Z M 356 169 " clip-rule="nonzero"/></clipPath><clipPath id="81925173bc"><path d="M 356 168 L 358.535156 168 L 358.535156 172 L 356 172 Z M 356 168 " clip-rule="nonzero"/></clipPath><clipPath id="829126f702"><path d="M 319.007812 137 L 355 137 L 355 172 L 319.007812 172 Z M 319.007812 137 " clip-rule="nonzero"/></clipPath><clipPath id="6bc8bd360f"><path d="M 348.152344 127 L 369.636719 127 L 369.636719 145.816406 L 348.152344 145.816406 Z M 348.152344 127 " clip-rule="nonzero"/></clipPath></defs><g fill="#000000" fill-opacity="1"><g transform="translate(26.408198, 212.26152)"><g><path d="M 2.359375 -29.6875 C 2.054688 -30.15625 1.773438 -30.789062 1.515625 -31.59375 C 1.265625 -32.40625 1.140625 -33.253906 1.140625 -34.140625 C 1.140625 -35.796875 1.507812 -36.984375 2.25 -37.703125 C 3 -38.429688 3.96875 -38.796875 5.15625 -38.796875 L 32.9375 -38.796875 C 33.226562 -38.328125 33.5 -37.6875 33.75 -36.875 C 34.007812 -36.070312 34.140625 -35.226562 34.140625 -34.34375 C 34.140625 -32.675781 33.769531 -31.484375 33.03125 -30.765625 C 32.289062 -30.046875 31.320312 -29.6875 30.125 -29.6875 L 23.0625 -29.6875 L 23.0625 -0.25 C 22.59375 -0.125 21.859375 0 20.859375 0.125 C 19.859375 0.25 18.875 0.3125 17.90625 0.3125 C 16.925781 0.3125 16.0625 0.238281 15.3125 0.09375 C 14.570312 -0.0507812 13.945312 -0.316406 13.4375 -0.703125 C 12.925781 -1.085938 12.539062 -1.617188 12.28125 -2.296875 C 12.03125 -2.972656 11.90625 -3.863281 11.90625 -4.96875 L 11.90625 -29.6875 Z M 2.359375 -29.6875 "/></g></g></g><g fill="#000000" fill-opacity="1"><g transform="translate(61.825806, 212.26152)"><g><path d="M 15.28125 -0.25 C 14.820312 -0.125 14.09375 0 13.09375 0.125 C 12.09375 0.25 11.101562 0.3125 10.125 0.3125 C 9.144531 0.3125 8.285156 0.238281 7.546875 0.09375 C 6.804688 -0.0507812 6.179688 -0.316406 5.671875 -0.703125 C 5.160156 -1.085938 4.773438 -1.617188 4.515625 -2.296875 C 4.265625 -2.972656 4.140625 -3.863281 4.140625 -4.96875 L 4.140625 -38.609375 C 4.609375 -38.691406 5.351562 -38.804688 6.375 -38.953125 C 7.394531 -39.097656 8.367188 -39.171875 9.296875 -39.171875 C 10.273438 -39.171875 11.132812 -39.097656 11.875 -38.953125 C 12.625 -38.804688 13.253906 -38.539062 13.765625 -38.15625 C 14.273438 -37.769531 14.65625 -37.238281 14.90625 -36.5625 C 15.15625 -35.882812 15.28125 -34.992188 15.28125 -33.890625 Z M 15.28125 -0.25 "/></g></g></g><g fill="#000000" fill-opacity="1"><g transform="translate(81.254531, 212.26152)"><g><path d="M 30.828125 -9.484375 C 30.273438 -9.023438 29.5625 -8.65625 28.6875 -8.375 C 27.820312 -8.101562 26.816406 -7.96875 25.671875 -7.96875 C 24.140625 -7.96875 22.875 -8.15625 21.875 -8.53125 C 20.882812 -8.914062 20.238281 -9.578125 19.9375 -10.515625 C 18.75 -14.242188 17.769531 -17.265625 17 -19.578125 C 16.238281 -21.898438 15.644531 -23.929688 15.21875 -25.671875 L 14.90625 -25.671875 C 14.78125 -23.160156 14.6875 -20.875 14.625 -18.8125 C 14.5625 -16.757812 14.515625 -14.753906 14.484375 -12.796875 C 14.460938 -10.847656 14.421875 -8.875 14.359375 -6.875 C 14.296875 -4.882812 14.203125 -2.675781 14.078125 -0.25 C 13.523438 -0.0390625 12.800781 0.132812 11.90625 0.28125 C 11.019531 0.4375 10.128906 0.515625 9.234375 0.515625 C 7.367188 0.515625 5.914062 0.21875 4.875 -0.375 C 3.832031 -0.976562 3.3125 -2.0625 3.3125 -3.625 L 5.15625 -36.125 C 5.5 -36.675781 6.242188 -37.269531 7.390625 -37.90625 C 8.535156 -38.539062 10.148438 -38.859375 12.234375 -38.859375 C 14.484375 -38.859375 16.242188 -38.503906 17.515625 -37.796875 C 18.785156 -37.097656 19.722656 -35.96875 20.328125 -34.40625 C 20.703125 -33.382812 21.113281 -32.210938 21.5625 -30.890625 C 22.007812 -29.578125 22.453125 -28.21875 22.890625 -26.8125 C 23.335938 -25.414062 23.773438 -24.023438 24.203125 -22.640625 C 24.628906 -21.265625 25.015625 -20.023438 25.359375 -18.921875 L 25.671875 -18.921875 C 26.691406 -22.484375 27.710938 -25.929688 28.734375 -29.265625 C 29.753906 -32.597656 30.6875 -35.394531 31.53125 -37.65625 C 32.164062 -37.988281 32.984375 -38.269531 33.984375 -38.5 C 34.984375 -38.738281 36.097656 -38.859375 37.328125 -38.859375 C 39.410156 -38.859375 41.109375 -38.550781 42.421875 -37.9375 C 43.742188 -37.320312 44.507812 -36.441406 44.71875 -35.296875 C 44.882812 -34.441406 45.0625 -33.132812 45.25 -31.375 C 45.445312 -29.613281 45.648438 -27.628906 45.859375 -25.421875 C 46.078125 -23.210938 46.289062 -20.875 46.5 -18.40625 C 46.71875 -15.945312 46.921875 -13.582031 47.109375 -11.3125 C 47.296875 -9.039062 47.453125 -6.957031 47.578125 -5.0625 C 47.710938 -3.175781 47.800781 -1.722656 47.84375 -0.703125 C 47.125 -0.273438 46.367188 0.03125 45.578125 0.21875 C 44.796875 0.414062 43.785156 0.515625 42.546875 0.515625 C 40.941406 0.515625 39.585938 0.238281 38.484375 -0.3125 C 37.378906 -0.863281 36.78125 -1.945312 36.6875 -3.5625 C 36.4375 -8.195312 36.28125 -12.359375 36.21875 -16.046875 C 36.15625 -19.742188 36.054688 -22.847656 35.921875 -25.359375 L 35.609375 -25.359375 C 35.179688 -23.703125 34.5625 -21.617188 33.75 -19.109375 C 32.945312 -16.609375 31.972656 -13.398438 30.828125 -9.484375 Z M 30.828125 -9.484375 "/></g></g></g><g fill="#000000" fill-opacity="1"><g transform="translate(132.024017, 212.26152)"><g><path d="M 4.140625 -32.671875 C 4.140625 -34.503906 4.671875 -35.953125 5.734375 -37.015625 C 6.796875 -38.078125 8.238281 -38.609375 10.0625 -38.609375 L 31.09375 -38.609375 C 31.382812 -38.140625 31.644531 -37.519531 31.875 -36.75 C 32.113281 -35.988281 32.234375 -35.1875 32.234375 -34.34375 C 32.234375 -32.726562 31.878906 -31.578125 31.171875 -30.890625 C 30.472656 -30.210938 29.550781 -29.875 28.40625 -29.875 L 14.96875 -29.875 L 14.96875 -23.953125 L 29.296875 -23.953125 C 29.597656 -23.484375 29.863281 -22.875 30.09375 -22.125 C 30.332031 -21.382812 30.453125 -20.59375 30.453125 -19.75 C 30.453125 -18.132812 30.109375 -16.984375 29.421875 -16.296875 C 28.742188 -15.617188 27.832031 -15.28125 26.6875 -15.28125 L 14.96875 -15.28125 L 14.96875 -8.59375 L 31.34375 -8.59375 C 31.632812 -8.132812 31.894531 -7.519531 32.125 -6.75 C 32.363281 -5.988281 32.484375 -5.179688 32.484375 -4.328125 C 32.484375 -2.710938 32.132812 -1.554688 31.4375 -0.859375 C 30.738281 -0.160156 29.816406 0.1875 28.671875 0.1875 L 10.0625 0.1875 C 8.238281 0.1875 6.796875 -0.34375 5.734375 -1.40625 C 4.671875 -2.46875 4.140625 -3.910156 4.140625 -5.734375 Z M 4.140625 -32.671875 "/></g></g></g><g fill="#000000" fill-opacity="1"><g transform="translate(166.932013, 212.26152)"><g><path d="M 21.984375 -29.171875 C 22.441406 -29.390625 23.171875 -29.632812 24.171875 -29.90625 C 25.171875 -30.1875 26.179688 -30.328125 27.203125 -30.328125 C 28.984375 -30.328125 30.46875 -30.0625 31.65625 -29.53125 C 32.84375 -29 33.566406 -28.222656 33.828125 -27.203125 C 34.296875 -25.460938 34.726562 -23.835938 35.125 -22.328125 C 35.53125 -20.816406 35.925781 -19.367188 36.3125 -17.984375 C 36.695312 -16.609375 37.066406 -15.238281 37.421875 -13.875 C 37.785156 -12.519531 38.140625 -11.101562 38.484375 -9.625 L 38.796875 -9.625 C 39.179688 -12.207031 39.519531 -14.675781 39.8125 -17.03125 C 40.113281 -19.394531 40.390625 -21.710938 40.640625 -23.984375 C 40.898438 -26.253906 41.15625 -28.503906 41.40625 -30.734375 C 41.664062 -32.960938 41.921875 -35.222656 42.171875 -37.515625 C 43.742188 -38.410156 45.421875 -38.859375 47.203125 -38.859375 C 48.773438 -38.859375 50.132812 -38.519531 51.28125 -37.84375 C 52.425781 -37.164062 53 -36.019531 53 -34.40625 C 53 -33.46875 52.898438 -32.140625 52.703125 -30.421875 C 52.515625 -28.703125 52.257812 -26.78125 51.9375 -24.65625 C 51.625 -22.53125 51.253906 -20.296875 50.828125 -17.953125 C 50.410156 -15.617188 49.96875 -13.390625 49.5 -11.265625 C 49.03125 -9.148438 48.550781 -7.234375 48.0625 -5.515625 C 47.570312 -3.796875 47.113281 -2.46875 46.6875 -1.53125 C 46.050781 -0.9375 45.007812 -0.445312 43.5625 -0.0625 C 42.125 0.320312 40.640625 0.515625 39.109375 0.515625 C 37.117188 0.515625 35.429688 0.25 34.046875 -0.28125 C 32.671875 -0.8125 31.832031 -1.566406 31.53125 -2.546875 C 30.976562 -4.242188 30.382812 -6.257812 29.75 -8.59375 C 29.113281 -10.9375 28.429688 -13.507812 27.703125 -16.3125 C 27.109375 -13.550781 26.492188 -10.851562 25.859375 -8.21875 C 25.222656 -5.582031 24.648438 -3.351562 24.140625 -1.53125 C 23.503906 -0.9375 22.546875 -0.445312 21.265625 -0.0625 C 19.992188 0.320312 18.597656 0.515625 17.078125 0.515625 C 15.160156 0.515625 13.425781 0.25 11.875 -0.28125 C 10.332031 -0.8125 9.328125 -1.566406 8.859375 -2.546875 C 8.472656 -3.304688 8.054688 -4.441406 7.609375 -5.953125 C 7.160156 -7.460938 6.703125 -9.179688 6.234375 -11.109375 C 5.773438 -13.046875 5.300781 -15.140625 4.8125 -17.390625 C 4.320312 -19.640625 3.875 -21.890625 3.46875 -24.140625 C 3.0625 -26.390625 2.6875 -28.585938 2.34375 -30.734375 C 2.007812 -32.878906 1.757812 -34.84375 1.59375 -36.625 C 2.1875 -37.175781 3.015625 -37.6875 4.078125 -38.15625 C 5.140625 -38.625 6.285156 -38.859375 7.515625 -38.859375 C 9.128906 -38.859375 10.457031 -38.503906 11.5 -37.796875 C 12.539062 -37.097656 13.1875 -35.921875 13.4375 -34.265625 C 14.113281 -29.941406 14.675781 -26.332031 15.125 -23.4375 C 15.570312 -20.550781 15.929688 -18.179688 16.203125 -16.328125 C 16.484375 -14.484375 16.6875 -13.050781 16.8125 -12.03125 C 16.945312 -11.019531 17.078125 -10.21875 17.203125 -9.625 L 17.515625 -9.625 C 17.898438 -11.320312 18.257812 -12.890625 18.59375 -14.328125 C 18.9375 -15.773438 19.285156 -17.226562 19.640625 -18.6875 C 20.003906 -20.15625 20.378906 -21.726562 20.765625 -23.40625 C 21.148438 -25.082031 21.554688 -27.003906 21.984375 -29.171875 Z M 21.984375 -29.171875 "/></g></g></g><g fill="#000000" fill-opacity="1"><g transform="translate(221.90574, 212.26152)"><g><path d="M 2.234375 -19.359375 C 2.234375 -22.671875 2.75 -25.601562 3.78125 -28.15625 C 4.820312 -30.707031 6.242188 -32.84375 8.046875 -34.5625 C 9.859375 -36.28125 11.984375 -37.582031 14.421875 -38.46875 C 16.867188 -39.363281 19.515625 -39.8125 22.359375 -39.8125 C 25.203125 -39.8125 27.84375 -39.363281 30.28125 -38.46875 C 32.726562 -37.582031 34.863281 -36.28125 36.6875 -34.5625 C 38.519531 -32.84375 39.953125 -30.707031 40.984375 -28.15625 C 42.023438 -25.601562 42.546875 -22.671875 42.546875 -19.359375 C 42.546875 -16.046875 42.035156 -13.101562 41.015625 -10.53125 C 40.003906 -7.96875 38.59375 -5.828125 36.78125 -4.109375 C 34.976562 -2.390625 32.84375 -1.082031 30.375 -0.1875 C 27.914062 0.695312 25.242188 1.140625 22.359375 1.140625 C 19.472656 1.140625 16.796875 0.6875 14.328125 -0.21875 C 11.867188 -1.132812 9.742188 -2.460938 7.953125 -4.203125 C 6.171875 -5.941406 4.769531 -8.082031 3.75 -10.625 C 2.738281 -13.175781 2.234375 -16.085938 2.234375 -19.359375 Z M 13.703125 -19.359375 C 13.703125 -15.492188 14.484375 -12.601562 16.046875 -10.6875 C 17.617188 -8.78125 19.722656 -7.828125 22.359375 -7.828125 C 25.035156 -7.828125 27.160156 -8.78125 28.734375 -10.6875 C 30.304688 -12.601562 31.09375 -15.492188 31.09375 -19.359375 C 31.09375 -23.179688 30.316406 -26.046875 28.765625 -27.953125 C 27.210938 -29.867188 25.097656 -30.828125 22.421875 -30.828125 C 19.785156 -30.828125 17.671875 -29.878906 16.078125 -27.984375 C 14.492188 -26.097656 13.703125 -23.222656 13.703125 -19.359375 Z M 13.703125 -19.359375 "/></g></g></g><g fill="#000000" fill-opacity="1"><g transform="translate(266.687338, 212.26152)"><g><path d="M 15.21875 -12.484375 L 15.21875 -0.25 C 14.757812 -0.125 14.03125 0 13.03125 0.125 C 12.03125 0.25 11.039062 0.3125 10.0625 0.3125 C 9.082031 0.3125 8.222656 0.238281 7.484375 0.09375 C 6.742188 -0.0507812 6.128906 -0.316406 5.640625 -0.703125 C 5.148438 -1.085938 4.773438 -1.617188 4.515625 -2.296875 C 4.265625 -2.972656 4.140625 -3.863281 4.140625 -4.96875 L 4.140625 -34.96875 C 4.140625 -35.863281 4.382812 -36.554688 4.875 -37.046875 C 5.363281 -37.535156 6.03125 -37.925781 6.875 -38.21875 C 8.320312 -38.726562 10 -39.097656 11.90625 -39.328125 C 13.820312 -39.566406 15.863281 -39.6875 18.03125 -39.6875 C 23.882812 -39.6875 28.296875 -38.453125 31.265625 -35.984375 C 34.242188 -33.523438 35.734375 -30.191406 35.734375 -25.984375 C 35.734375 -23.359375 35.050781 -21.109375 33.6875 -19.234375 C 32.332031 -17.367188 30.722656 -15.925781 28.859375 -14.90625 C 30.390625 -12.820312 31.894531 -10.867188 33.375 -9.046875 C 34.863281 -7.222656 36.035156 -5.566406 36.890625 -4.078125 C 36.460938 -2.585938 35.6875 -1.445312 34.5625 -0.65625 C 33.4375 0.125 32.171875 0.515625 30.765625 0.515625 C 29.828125 0.515625 29.019531 0.40625 28.34375 0.1875 C 27.664062 -0.0195312 27.070312 -0.316406 26.5625 -0.703125 C 26.050781 -1.085938 25.582031 -1.554688 25.15625 -2.109375 C 24.738281 -2.660156 24.335938 -3.253906 23.953125 -3.890625 L 18.59375 -12.484375 Z M 19.234375 -20.953125 C 20.847656 -20.953125 22.125 -21.363281 23.0625 -22.1875 C 24 -23.019531 24.46875 -24.242188 24.46875 -25.859375 C 24.46875 -27.472656 23.945312 -28.691406 22.90625 -29.515625 C 21.863281 -30.347656 20.21875 -30.765625 17.96875 -30.765625 C 17.332031 -30.765625 16.820312 -30.742188 16.4375 -30.703125 C 16.050781 -30.660156 15.625 -30.597656 15.15625 -30.515625 L 15.15625 -20.953125 Z M 19.234375 -20.953125 "/></g></g></g><g fill="#004aad" fill-opacity="1"><g transform="translate(305.486122, 212.26152)"><g><path d="M 1.46875 -33.890625 C 1.675781 -34.484375 1.972656 -35.078125 2.359375 -35.671875 C 2.742188 -36.265625 3.222656 -36.804688 3.796875 -37.296875 C 4.367188 -37.785156 5.035156 -38.1875 5.796875 -38.5 C 6.554688 -38.820312 7.40625 -38.984375 8.34375 -38.984375 C 9.570312 -38.984375 10.65625 -38.675781 11.59375 -38.0625 C 12.53125 -37.445312 13.484375 -36.394531 14.453125 -34.90625 L 19.421875 -27.328125 L 26.75 -38.15625 C 27.09375 -38.320312 27.570312 -38.476562 28.1875 -38.625 C 28.800781 -38.78125 29.40625 -38.859375 30 -38.859375 C 31.957031 -38.859375 33.488281 -38.390625 34.59375 -37.453125 C 35.695312 -36.523438 36.25 -35.378906 36.25 -34.015625 C 36.25 -32.828125 35.941406 -31.765625 35.328125 -30.828125 C 34.710938 -29.898438 33.875 -28.773438 32.8125 -27.453125 L 26.25 -19.421875 L 36.625 -4.59375 C 36.289062 -3.019531 35.5625 -1.773438 34.4375 -0.859375 C 33.3125 0.0546875 31.789062 0.515625 29.875 0.515625 C 28.644531 0.515625 27.582031 0.207031 26.6875 -0.40625 C 25.800781 -1.03125 24.890625 -2.082031 23.953125 -3.5625 L 18.796875 -11.71875 L 10.765625 0.375 C 10.421875 0.425781 10.097656 0.460938 9.796875 0.484375 C 9.503906 0.503906 9.210938 0.515625 8.921875 0.515625 C 6.492188 0.515625 4.707031 0.0234375 3.5625 -0.953125 C 2.414062 -1.929688 1.84375 -3.144531 1.84375 -4.59375 C 1.84375 -5.820312 2.109375 -6.890625 2.640625 -7.796875 C 3.171875 -8.710938 3.925781 -9.785156 4.90625 -11.015625 L 11.59375 -19.625 Z M 1.46875 -33.890625 "/></g></g></g><g clip-path="url(#17725bcec8)"><path fill="#111111" d="M 329.578125 175.882812 C 329.628906 175.96875 329.6875 176.0625 329.753906 176.144531 C 329.820312 176.230469 329.894531 176.304688 329.984375 176.355469 C 330.675781 176.769531 331.527344 176.6875 332.320312 176.640625 C 332.433594 176.632812 332.542969 176.625 332.652344 176.621094 C 333.722656 176.566406 334.78125 176.214844 335.855469 176.332031 C 335.976562 176.339844 336.09375 176.347656 336.214844 176.359375 C 337.046875 176.433594 337.875 176.582031 338.714844 176.609375 C 339.910156 176.648438 341.113281 176.628906 342.304688 176.464844 C 342.492188 176.441406 342.820312 176.414062 342.941406 176.167969 C 343.0625 175.921875 342.9375 175.734375 342.761719 175.652344 C 341.910156 175.25 340.988281 175.25 340.097656 175.207031 C 338.292969 175.121094 336.507812 175.691406 334.707031 175.546875 C 334.503906 175.53125 334.304688 175.503906 334.109375 175.46875 C 333.746094 175.402344 333.367188 175.328125 332.980469 175.269531 C 332.855469 175.25 332.726562 175.234375 332.597656 175.21875 C 331.980469 175.171875 331.316406 175.09375 330.691406 175.183594 C 330.566406 175.199219 330.445312 175.226562 330.324219 175.257812 C 330.082031 175.339844 329.84375 175.425781 329.636719 175.59375 C 329.597656 175.675781 329.578125 175.777344 329.578125 175.882812 Z M 329.578125 175.882812 " fill-opacity="0.05" fill-rule="nonzero"/></g><path fill="#300000" d="M 332.992188 168.332031 C 333 168.449219 333.007812 168.566406 333.019531 168.6875 C 333.023438 168.742188 333.027344 168.796875 333.035156 168.851562 C 333.035156 168.878906 333.039062 168.902344 333.039062 168.929688 C 333.035156 168.882812 333.046875 168.992188 333.046875 169.003906 C 333.070312 169.242188 333.097656 169.476562 333.125 169.710938 C 333.179688 170.1875 333.246094 170.660156 333.316406 171.132812 C 333.460938 172.070312 333.628906 173 333.800781 173.925781 C 333.898438 174.449219 334 174.976562 334.09375 175.5 C 334.125 175.675781 334.054688 175.882812 333.929688 175.921875 C 333.804688 175.964844 333.675781 175.867188 333.640625 175.683594 C 333.296875 173.804688 332.917969 171.9375 332.683594 170.023438 C 332.652344 169.742188 332.621094 169.460938 332.59375 169.179688 C 332.566406 168.894531 332.539062 168.613281 332.519531 168.332031 C 332.507812 168.152344 332.636719 167.980469 332.753906 167.988281 C 332.894531 167.996094 332.976562 168.136719 332.992188 168.332031 Z M 332.992188 168.332031 " fill-opacity="1" fill-rule="nonzero"/><g clip-path="url(#09cef4236b)"><path fill="#300000" d="M 334.050781 175.582031 C 334.003906 175.484375 333.949219 175.394531 333.871094 175.320312 C 333.871094 175.316406 333.871094 175.316406 333.867188 175.316406 C 333.863281 175.308594 333.859375 175.296875 333.855469 175.289062 C 333.835938 175.257812 333.808594 175.230469 333.785156 175.203125 C 333.753906 175.171875 333.722656 175.140625 333.691406 175.105469 C 333.53125 174.957031 333.347656 174.84375 333.140625 174.769531 C 332.789062 174.644531 332.371094 174.667969 332.050781 174.863281 C 331.738281 175.058594 331.441406 175.503906 331.632812 175.875 C 331.734375 176.066406 331.960938 176.15625 332.152344 176.207031 C 332.359375 176.257812 332.574219 176.269531 332.785156 176.25 C 332.992188 176.230469 333.195312 176.191406 333.394531 176.148438 C 333.59375 176.105469 333.785156 176.019531 333.964844 175.917969 C 334.019531 175.886719 334.054688 175.839844 334.070312 175.785156 C 334.089844 175.722656 334.085938 175.648438 334.050781 175.582031 Z M 334.050781 175.582031 " fill-opacity="1" fill-rule="nonzero"/></g><path fill="#300000" d="M 339.183594 168.332031 C 339.195312 168.449219 339.203125 168.566406 339.210938 168.6875 C 339.21875 168.742188 339.222656 168.796875 339.226562 168.851562 C 339.230469 168.878906 339.230469 168.902344 339.234375 168.929688 C 339.230469 168.882812 339.242188 168.992188 339.242188 169.003906 C 339.265625 169.242188 339.289062 169.476562 339.316406 169.710938 C 339.375 170.1875 339.4375 170.660156 339.511719 171.132812 C 339.652344 172.070312 339.824219 173 339.996094 173.925781 C 340.09375 174.449219 340.191406 174.976562 340.289062 175.5 C 340.320312 175.675781 340.25 175.882812 340.125 175.921875 C 340 175.964844 339.867188 175.867188 339.832031 175.683594 C 339.488281 173.804688 339.109375 171.9375 338.878906 170.023438 C 338.84375 169.742188 338.8125 169.460938 338.785156 169.179688 C 338.757812 168.894531 338.734375 168.613281 338.714844 168.332031 C 338.699219 168.152344 338.832031 167.980469 338.949219 167.988281 C 339.085938 167.996094 339.171875 168.136719 339.183594 168.332031 Z M 339.183594 168.332031 " fill-opacity="1" fill-rule="nonzero"/><g clip-path="url(#1873f89e1e)"><path fill="#300000" d="M 340.246094 175.582031 C 340.199219 175.484375 340.144531 175.394531 340.066406 175.320312 C 340.0625 175.316406 340.0625 175.316406 340.0625 175.316406 C 340.058594 175.308594 340.050781 175.296875 340.050781 175.289062 C 340.03125 175.257812 340.003906 175.230469 339.980469 175.203125 C 339.949219 175.171875 339.917969 175.140625 339.882812 175.105469 C 339.726562 174.957031 339.539062 174.84375 339.335938 174.769531 C 338.984375 174.644531 338.566406 174.667969 338.242188 174.863281 C 337.933594 175.058594 337.632812 175.503906 337.828125 175.875 C 337.925781 176.066406 338.152344 176.15625 338.347656 176.207031 C 338.554688 176.257812 338.769531 176.269531 338.980469 176.25 C 339.183594 176.230469 339.386719 176.191406 339.589844 176.148438 C 339.789062 176.105469 339.980469 176.019531 340.160156 175.917969 C 340.214844 175.886719 340.246094 175.839844 340.261719 175.785156 C 340.285156 175.722656 340.277344 175.648438 340.246094 175.582031 Z M 340.246094 175.582031 " fill-opacity="1" fill-rule="nonzero"/></g><g clip-path="url(#3734e2bc2d)"><path fill="#f9db43" d="M 325.105469 165.238281 C 324.570312 166.457031 324.070312 168 325.019531 169.207031 C 325.523438 169.855469 326.230469 170.257812 327.027344 170.328125 C 327.164062 170.347656 327.320312 170.347656 327.460938 170.363281 C 328.636719 170.503906 329.757812 170.628906 330.9375 170.699219 C 332.285156 170.777344 333.625 170.800781 334.964844 170.824219 C 335.410156 170.832031 335.859375 170.839844 336.304688 170.847656 C 339.011719 170.820312 341.65625 171.292969 344.375 171.519531 C 347.070312 171.75 349.75 171.378906 352.367188 170.761719 C 352.894531 170.617188 353.40625 170.433594 353.90625 170.207031 C 354.136719 170.085938 354.359375 169.957031 354.574219 169.820312 C 355.878906 168.988281 357.015625 167.890625 357.867188 166.59375 C 358.058594 166.226562 358.167969 165.875 358.214844 165.539062 C 358.261719 165.203125 358.246094 164.878906 358.183594 164.558594 C 358.054688 163.917969 357.746094 163.296875 357.394531 162.632812 C 357.050781 161.984375 350.210938 149.40625 345.921875 141.988281 C 345.835938 141.839844 344.191406 139.234375 344.074219 139.054688 C 343.261719 137.941406 342.550781 136.429688 340.984375 136.402344 C 339.183594 136.382812 337.386719 136.542969 335.609375 136.863281 C 335.382812 136.9375 335.160156 137.023438 334.945312 137.121094 C 334.300781 137.414062 333.8125 137.941406 333.398438 138.597656 C 333.085938 139.105469 332.820312 139.535156 332.5625 140.042969 C 332.511719 140.152344 332.460938 140.261719 332.410156 140.371094 C 332.359375 140.476562 332.3125 140.585938 332.261719 140.695312 C 332.195312 140.835938 332.132812 140.972656 332.070312 141.113281 C 332.007812 141.25 331.945312 141.390625 331.886719 141.523438 C 331.8125 141.722656 331.738281 141.917969 331.664062 142.117188 C 331.609375 142.324219 331.5625 142.53125 331.519531 142.738281 C 331.429688 143.03125 331.347656 143.320312 331.265625 143.613281 C 330.773438 145.371094 330.402344 147.15625 330.042969 148.941406 C 329.890625 149.753906 329.738281 150.570312 329.585938 151.394531 C 329.34375 152.761719 329.066406 154.023438 328.75 155.3125 C 328.535156 156.179688 328.285156 157.046875 327.992188 157.917969 C 327.703125 158.789062 327.367188 159.664062 326.980469 160.535156 C 326.472656 161.640625 326.042969 162.78125 325.609375 163.910156 C 325.429688 164.398438 325.261719 164.839844 325.105469 165.238281 Z M 325.105469 165.238281 " fill-opacity="1" fill-rule="nonzero"/></g><path fill="#300000" d="M 323.304688 159.851562 C 322.964844 159.652344 322.644531 159.441406 322.339844 159.199219 L 322.355469 159.207031 C 321.941406 158.867188 321.546875 158.496094 321.25 158.050781 L 321.253906 158.074219 C 321.136719 157.90625 321.03125 157.730469 320.933594 157.546875 L 320.554688 157.90625 C 321.136719 158.878906 322.03125 159.664062 323.011719 160.207031 C 323.140625 160.265625 323.320312 160.28125 323.398438 160.121094 C 323.441406 160.015625 323.398438 159.894531 323.304688 159.851562 Z M 323.304688 159.851562 " fill-opacity="1" fill-rule="nonzero"/><g clip-path="url(#1e69687745)"><path fill="#300000" d="M 320.351562 155.515625 C 320.34375 155.398438 320.335938 155.28125 320.332031 155.164062 C 320.328125 155.101562 320.328125 155.039062 320.328125 154.976562 C 320.328125 154.949219 320.328125 154.917969 320.328125 154.890625 C 320.328125 154.886719 320.328125 154.886719 320.328125 154.886719 C 320.328125 154.890625 320.328125 154.898438 320.328125 154.902344 C 320.328125 154.898438 320.328125 154.863281 320.328125 154.886719 C 320.328125 154.871094 320.328125 154.851562 320.328125 154.835938 C 320.332031 154.699219 320.261719 154.554688 320.109375 154.542969 C 319.984375 154.527344 319.824219 154.617188 319.820312 154.761719 C 319.808594 155.21875 319.839844 155.671875 319.914062 156.121094 C 320 156.765625 320.230469 157.367188 320.554688 157.90625 L 320.933594 157.546875 C 320.601562 156.921875 320.402344 156.230469 320.351562 155.515625 Z M 320.351562 155.515625 " fill-opacity="1" fill-rule="nonzero"/></g><g clip-path="url(#75c9cd7d13)"><path fill="#300000" d="M 320.210938 154.554688 C 320.140625 154.550781 320.078125 154.535156 320.015625 154.515625 C 319.953125 154.496094 319.894531 154.46875 319.839844 154.4375 C 319.539062 154.230469 319.296875 153.902344 319.324219 153.503906 C 319.328125 153.441406 319.339844 153.382812 319.351562 153.324219 C 319.421875 152.941406 319.789062 152.671875 320.144531 152.734375 C 320.703125 152.835938 320.820312 153.554688 320.59375 154.042969 C 320.5625 154.125 320.519531 154.203125 320.46875 154.273438 C 320.425781 154.339844 320.371094 154.402344 320.308594 154.457031 C 320.28125 154.488281 320.246094 154.519531 320.210938 154.554688 Z M 320.210938 154.554688 " fill-opacity="1" fill-rule="nonzero"/><path fill="#300000" d="M 320.242188 154.324219 C 320.191406 154.320312 320.144531 154.3125 320.09375 154.300781 C 320.136719 154.3125 320.058594 154.285156 320.0625 154.285156 C 320.039062 154.277344 320.015625 154.269531 319.996094 154.257812 C 319.988281 154.253906 319.925781 154.214844 319.96875 154.246094 C 319.953125 154.234375 319.9375 154.222656 319.921875 154.210938 C 319.894531 154.1875 319.863281 154.164062 319.835938 154.140625 C 319.824219 154.128906 319.808594 154.117188 319.796875 154.101562 C 319.789062 154.097656 319.746094 154.050781 319.785156 154.09375 C 319.761719 154.066406 319.734375 154.035156 319.714844 154.007812 C 319.695312 153.980469 319.675781 153.957031 319.660156 153.929688 C 319.648438 153.914062 319.640625 153.898438 319.632812 153.882812 C 319.660156 153.929688 319.621094 153.859375 319.617188 153.851562 C 319.601562 153.816406 319.589844 153.78125 319.578125 153.746094 C 319.574219 153.734375 319.570312 153.722656 319.566406 153.707031 C 319.582031 153.761719 319.566406 153.699219 319.566406 153.691406 C 319.558594 153.652344 319.554688 153.613281 319.550781 153.578125 C 319.550781 153.566406 319.554688 153.503906 319.550781 153.554688 C 319.554688 153.527344 319.554688 153.496094 319.558594 153.46875 C 319.566406 153.429688 319.574219 153.394531 319.582031 153.355469 C 319.585938 153.335938 319.589844 153.320312 319.59375 153.300781 C 319.578125 153.359375 319.597656 153.296875 319.597656 153.289062 C 319.613281 153.253906 319.628906 153.21875 319.648438 153.1875 C 319.617188 153.238281 319.648438 153.1875 319.65625 153.179688 C 319.664062 153.164062 319.675781 153.148438 319.6875 153.132812 C 319.699219 153.121094 319.710938 153.105469 319.722656 153.09375 C 319.761719 153.050781 319.6875 153.121094 319.734375 153.085938 C 319.761719 153.0625 319.789062 153.042969 319.820312 153.019531 C 319.867188 152.988281 319.777344 153.039062 319.832031 153.015625 C 319.84375 153.007812 319.859375 153.003906 319.871094 152.996094 C 319.886719 152.992188 319.898438 152.984375 319.914062 152.980469 C 319.925781 152.976562 319.933594 152.972656 319.945312 152.96875 C 319.917969 152.976562 319.914062 152.976562 319.941406 152.972656 C 319.976562 152.964844 320.011719 152.960938 320.046875 152.957031 C 320.101562 152.953125 320 152.949219 320.058594 152.960938 C 320.074219 152.960938 320.085938 152.960938 320.101562 152.964844 C 320.117188 152.964844 320.132812 152.96875 320.144531 152.972656 C 320.203125 152.984375 320.101562 152.953125 320.152344 152.976562 C 320.175781 152.984375 320.246094 153 320.257812 153.023438 C 320.25 153.019531 320.242188 153.015625 320.234375 153.007812 C 320.242188 153.015625 320.25 153.019531 320.261719 153.027344 C 320.273438 153.035156 320.285156 153.046875 320.296875 153.058594 C 320.304688 153.0625 320.3125 153.070312 320.320312 153.078125 C 320.363281 153.113281 320.289062 153.039062 320.324219 153.082031 C 320.34375 153.105469 320.363281 153.128906 320.378906 153.15625 C 320.386719 153.171875 320.421875 153.207031 320.382812 153.160156 C 320.394531 153.175781 320.402344 153.203125 320.410156 153.21875 C 320.421875 153.246094 320.433594 153.269531 320.441406 153.296875 C 320.445312 153.3125 320.449219 153.328125 320.453125 153.34375 C 320.4375 153.285156 320.453125 153.34375 320.453125 153.355469 C 320.46875 153.421875 320.472656 153.492188 320.472656 153.558594 C 320.472656 153.5 320.472656 153.558594 320.472656 153.570312 C 320.472656 153.59375 320.46875 153.617188 320.46875 153.640625 C 320.464844 153.679688 320.457031 153.722656 320.449219 153.761719 C 320.445312 153.773438 320.441406 153.785156 320.441406 153.796875 C 320.4375 153.808594 320.433594 153.820312 320.433594 153.832031 C 320.441406 153.796875 320.441406 153.796875 320.433594 153.820312 C 320.421875 153.859375 320.40625 153.894531 320.390625 153.933594 C 320.371094 153.984375 320.347656 154.03125 320.320312 154.082031 C 320.320312 154.085938 320.296875 154.117188 320.316406 154.089844 C 320.300781 154.117188 320.28125 154.140625 320.261719 154.167969 C 320.183594 154.269531 320.128906 154.3125 320.03125 154.410156 C 319.945312 154.492188 319.972656 154.667969 320.066406 154.738281 C 320.175781 154.820312 320.296875 154.792969 320.390625 154.703125 C 320.398438 154.691406 320.40625 154.683594 320.417969 154.675781 C 320.445312 154.648438 320.394531 154.695312 320.421875 154.667969 C 320.441406 154.648438 320.464844 154.628906 320.484375 154.609375 C 320.535156 154.5625 320.578125 154.515625 320.621094 154.460938 C 320.695312 154.359375 320.757812 154.25 320.804688 154.136719 C 320.875 153.976562 320.921875 153.800781 320.929688 153.628906 C 320.945312 153.269531 320.84375 152.867188 320.535156 152.65625 C 320.203125 152.421875 319.753906 152.449219 319.449219 152.71875 C 319.121094 153.011719 319.023438 153.492188 319.144531 153.90625 C 319.28125 154.355469 319.710938 154.746094 320.175781 154.785156 C 320.296875 154.796875 320.425781 154.71875 320.4375 154.589844 C 320.449219 154.46875 320.371094 154.335938 320.242188 154.324219 Z M 320.242188 154.324219 " fill-opacity="1" fill-rule="nonzero"/></g><g clip-path="url(#a0624344d4)"><path fill="#300000" d="M 320.839844 154.070312 C 320.859375 154.039062 320.878906 154.007812 320.898438 153.976562 C 320.90625 153.96875 320.914062 153.957031 320.917969 153.949219 C 320.914062 153.957031 320.910156 153.960938 320.90625 153.964844 C 320.894531 153.964844 320.828125 153.988281 320.820312 153.976562 C 320.828125 153.976562 320.835938 153.980469 320.84375 153.980469 C 320.855469 153.984375 320.851562 153.980469 320.835938 153.976562 C 320.816406 153.972656 320.816406 153.972656 320.828125 153.976562 C 320.835938 153.976562 320.84375 153.980469 320.847656 153.984375 C 320.886719 153.996094 320.832031 153.980469 320.835938 153.976562 C 320.839844 153.976562 320.84375 153.980469 320.847656 153.984375 C 320.863281 153.996094 320.863281 153.996094 320.851562 153.984375 C 320.839844 153.96875 320.835938 153.96875 320.84375 153.976562 C 320.847656 153.984375 320.855469 153.988281 320.855469 153.996094 C 320.847656 153.996094 320.835938 153.941406 320.835938 153.9375 C 320.839844 153.976562 320.828125 153.894531 320.832031 153.921875 C 320.835938 153.9375 320.84375 153.898438 320.832031 153.921875 C 320.824219 153.9375 320.820312 153.953125 320.8125 153.972656 C 320.804688 153.992188 320.800781 153.996094 320.8125 153.972656 C 320.796875 154.003906 320.773438 154.03125 320.75 154.058594 C 320.738281 154.070312 320.730469 154.078125 320.75 154.0625 C 320.738281 154.074219 320.722656 154.085938 320.707031 154.097656 C 320.683594 154.117188 320.65625 154.136719 320.628906 154.152344 C 320.617188 154.160156 320.605469 154.167969 320.59375 154.175781 C 320.628906 154.15625 320.585938 154.179688 320.578125 154.183594 C 320.550781 154.199219 320.523438 154.210938 320.492188 154.222656 C 320.359375 154.28125 320.222656 154.332031 320.082031 154.371094 C 320.140625 154.515625 320.195312 154.660156 320.25 154.804688 C 320.4375 154.753906 320.605469 154.613281 320.695312 154.441406 C 320.738281 154.363281 320.78125 154.285156 320.820312 154.203125 C 320.835938 154.171875 320.847656 154.136719 320.863281 154.101562 C 320.886719 154.035156 320.890625 153.96875 320.886719 153.898438 C 320.882812 153.773438 320.746094 153.675781 320.632812 153.691406 C 320.5 153.714844 320.425781 153.820312 320.429688 153.953125 C 320.433594 154.007812 320.4375 153.914062 320.441406 153.914062 C 320.441406 153.917969 320.425781 153.953125 320.425781 153.957031 C 320.410156 153.988281 320.398438 154.019531 320.382812 154.046875 C 320.355469 154.109375 320.320312 154.175781 320.285156 154.234375 C 320.296875 154.210938 320.289062 154.230469 320.28125 154.238281 C 320.269531 154.25 320.261719 154.261719 320.25 154.273438 C 320.238281 154.289062 320.230469 154.296875 320.25 154.28125 C 320.238281 154.289062 320.230469 154.296875 320.21875 154.304688 C 320.207031 154.316406 320.195312 154.324219 320.183594 154.332031 C 320.140625 154.363281 320.203125 154.328125 320.171875 154.335938 C 320.144531 154.347656 320.113281 154.359375 320.082031 154.371094 C 319.964844 154.402344 319.90625 154.566406 319.953125 154.671875 C 320.007812 154.796875 320.125 154.835938 320.25 154.804688 C 320.433594 154.753906 320.617188 154.6875 320.785156 154.597656 C 320.980469 154.492188 321.152344 154.347656 321.242188 154.136719 C 321.289062 154.03125 321.3125 153.914062 321.273438 153.804688 C 321.234375 153.699219 321.152344 153.625 321.058594 153.570312 C 320.96875 153.519531 320.84375 153.492188 320.742188 153.53125 C 320.617188 153.574219 320.546875 153.671875 320.480469 153.777344 C 320.414062 153.878906 320.40625 154.027344 320.515625 154.105469 C 320.605469 154.175781 320.769531 154.179688 320.839844 154.070312 Z M 320.839844 154.070312 " fill-opacity="1" fill-rule="nonzero"/></g><path fill="#300000" d="M 354.296875 163.695312 C 354.632812 163.898438 354.949219 164.113281 355.253906 164.355469 L 355.238281 164.347656 C 355.648438 164.691406 356.039062 165.066406 356.332031 165.511719 L 356.328125 165.488281 C 356.445312 165.660156 356.550781 165.835938 356.644531 166.019531 L 357.027344 165.664062 C 356.453125 164.6875 355.566406 163.894531 354.589844 163.34375 C 354.460938 163.28125 354.28125 163.265625 354.203125 163.425781 C 354.160156 163.53125 354.199219 163.652344 354.296875 163.695312 Z M 354.296875 163.695312 " fill-opacity="1" fill-rule="nonzero"/><path fill="#300000" d="M 357.210938 168.054688 C 357.21875 168.171875 357.226562 168.289062 357.230469 168.40625 C 357.230469 168.46875 357.230469 168.53125 357.230469 168.59375 C 357.230469 168.625 357.230469 168.652344 357.230469 168.683594 C 357.230469 168.679688 357.230469 168.675781 357.230469 168.671875 C 357.230469 168.675781 357.230469 168.710938 357.230469 168.683594 C 357.230469 168.703125 357.230469 168.71875 357.230469 168.738281 C 357.226562 168.871094 357.296875 169.015625 357.445312 169.03125 C 357.570312 169.046875 357.734375 168.960938 357.738281 168.816406 C 357.75 168.359375 357.722656 167.902344 357.652344 167.457031 C 357.570312 166.808594 357.347656 166.207031 357.027344 165.664062 L 356.644531 166.019531 C 356.972656 166.648438 357.167969 167.339844 357.210938 168.054688 Z M 357.210938 168.054688 " fill-opacity="1" fill-rule="nonzero"/><g clip-path="url(#512f7baa1b)"><path fill="#300000" d="M 357.34375 169.019531 C 357.414062 169.023438 357.480469 169.039062 357.539062 169.058594 C 357.601562 169.078125 357.660156 169.105469 357.714844 169.140625 C 358.011719 169.347656 358.25 169.675781 358.222656 170.078125 C 358.21875 170.140625 358.207031 170.199219 358.191406 170.257812 C 358.121094 170.636719 357.753906 170.902344 357.394531 170.839844 C 356.835938 170.730469 356.726562 170.011719 356.957031 169.527344 C 356.988281 169.445312 357.03125 169.367188 357.082031 169.296875 C 357.128906 169.230469 357.183594 169.167969 357.246094 169.113281 C 357.273438 169.085938 357.308594 169.054688 357.34375 169.019531 Z M 357.34375 169.019531 " fill-opacity="1" fill-rule="nonzero"/></g><g clip-path="url(#81925173bc)"><path fill="#300000" d="M 357.3125 169.25 C 357.359375 169.253906 357.410156 169.261719 357.457031 169.273438 C 357.417969 169.261719 357.492188 169.289062 357.492188 169.289062 C 357.515625 169.296875 357.535156 169.308594 357.558594 169.316406 C 357.5625 169.320312 357.628906 169.363281 357.585938 169.332031 C 357.597656 169.339844 357.613281 169.351562 357.628906 169.363281 C 357.660156 169.386719 357.6875 169.410156 357.714844 169.4375 C 357.726562 169.449219 357.742188 169.460938 357.753906 169.472656 C 357.761719 169.480469 357.804688 169.527344 357.765625 169.484375 C 357.792969 169.511719 357.816406 169.539062 357.835938 169.570312 C 357.855469 169.597656 357.875 169.621094 357.890625 169.648438 C 357.898438 169.664062 357.910156 169.679688 357.917969 169.695312 C 357.890625 169.648438 357.925781 169.71875 357.933594 169.726562 C 357.945312 169.761719 357.960938 169.796875 357.972656 169.832031 C 357.976562 169.84375 357.976562 169.859375 357.980469 169.871094 C 357.96875 169.816406 357.980469 169.878906 357.984375 169.886719 C 357.988281 169.925781 357.992188 169.964844 357.996094 170.003906 C 357.996094 170.011719 357.992188 170.074219 357.996094 170.023438 C 357.992188 170.050781 357.992188 170.082031 357.988281 170.113281 C 357.980469 170.148438 357.972656 170.1875 357.964844 170.222656 C 357.960938 170.242188 357.957031 170.261719 357.953125 170.277344 C 357.964844 170.222656 357.949219 170.28125 357.945312 170.289062 C 357.933594 170.324219 357.914062 170.359375 357.898438 170.390625 C 357.925781 170.339844 357.894531 170.390625 357.890625 170.402344 C 357.878906 170.414062 357.867188 170.429688 357.855469 170.445312 C 357.84375 170.457031 357.832031 170.472656 357.820312 170.484375 C 357.777344 170.527344 357.855469 170.457031 357.808594 170.492188 C 357.78125 170.515625 357.75 170.535156 357.722656 170.554688 C 357.675781 170.589844 357.765625 170.539062 357.710938 170.5625 C 357.699219 170.566406 357.683594 170.574219 357.671875 170.582031 C 357.65625 170.585938 357.644531 170.589844 357.628906 170.597656 C 357.617188 170.601562 357.605469 170.601562 357.59375 170.605469 C 357.625 170.601562 357.625 170.597656 357.601562 170.605469 C 357.566406 170.609375 357.53125 170.613281 357.496094 170.617188 C 357.4375 170.621094 357.539062 170.625 357.484375 170.617188 C 357.46875 170.613281 357.453125 170.613281 357.4375 170.609375 C 357.425781 170.609375 357.410156 170.605469 357.394531 170.601562 C 357.339844 170.589844 357.441406 170.621094 357.386719 170.597656 C 357.363281 170.589844 357.296875 170.574219 357.28125 170.550781 C 357.292969 170.554688 357.300781 170.558594 357.308594 170.566406 C 357.300781 170.558594 357.289062 170.550781 357.28125 170.546875 C 357.269531 170.535156 357.257812 170.527344 357.246094 170.515625 C 357.238281 170.507812 357.230469 170.5 357.222656 170.496094 C 357.183594 170.457031 357.253906 170.535156 357.21875 170.492188 C 357.199219 170.464844 357.179688 170.441406 357.164062 170.414062 C 357.15625 170.402344 357.125 170.367188 357.160156 170.410156 C 357.148438 170.394531 357.140625 170.371094 357.132812 170.351562 C 357.121094 170.328125 357.113281 170.300781 357.105469 170.273438 C 357.101562 170.257812 357.09375 170.242188 357.089844 170.226562 C 357.105469 170.285156 357.09375 170.230469 357.089844 170.21875 C 357.078125 170.148438 357.074219 170.082031 357.074219 170.011719 C 357.074219 170.070312 357.074219 170.011719 357.074219 170 C 357.074219 169.976562 357.078125 169.953125 357.078125 169.929688 C 357.085938 169.890625 357.089844 169.851562 357.101562 169.808594 C 357.101562 169.796875 357.105469 169.785156 357.109375 169.773438 C 357.109375 169.765625 357.113281 169.753906 357.117188 169.742188 C 357.109375 169.773438 357.105469 169.777344 357.113281 169.75 C 357.128906 169.714844 357.144531 169.675781 357.160156 169.636719 C 357.179688 169.589844 357.203125 169.539062 357.230469 169.492188 C 357.230469 169.488281 357.253906 169.453125 357.234375 169.484375 C 357.25 169.457031 357.269531 169.429688 357.289062 169.40625 C 357.367188 169.304688 357.425781 169.261719 357.523438 169.167969 C 357.609375 169.082031 357.582031 168.90625 357.492188 168.839844 C 357.382812 168.753906 357.261719 168.78125 357.167969 168.871094 C 357.15625 168.878906 357.148438 168.886719 357.140625 168.894531 C 357.109375 168.925781 357.160156 168.878906 357.132812 168.902344 C 357.113281 168.921875 357.089844 168.941406 357.070312 168.960938 C 357.019531 169.007812 356.972656 169.054688 356.933594 169.109375 C 356.855469 169.207031 356.796875 169.320312 356.746094 169.433594 C 356.675781 169.59375 356.625 169.765625 356.617188 169.941406 C 356.597656 170.296875 356.699219 170.699219 357.003906 170.914062 C 357.332031 171.152344 357.785156 171.128906 358.089844 170.859375 C 358.421875 170.570312 358.523438 170.09375 358.402344 169.675781 C 358.273438 169.226562 357.84375 168.832031 357.378906 168.789062 C 357.257812 168.777344 357.128906 168.851562 357.117188 168.984375 C 357.105469 169.101562 357.183594 169.238281 357.3125 169.25 Z M 357.3125 169.25 " fill-opacity="1" fill-rule="nonzero"/></g><path fill="#300000" d="M 356.714844 169.496094 C 356.691406 169.527344 356.671875 169.5625 356.652344 169.589844 C 356.644531 169.601562 356.636719 169.609375 356.628906 169.617188 C 356.636719 169.613281 356.640625 169.609375 356.644531 169.601562 C 356.65625 169.601562 356.722656 169.578125 356.730469 169.589844 C 356.722656 169.589844 356.714844 169.589844 356.707031 169.585938 C 356.695312 169.585938 356.699219 169.585938 356.714844 169.589844 C 356.730469 169.597656 356.734375 169.597656 356.722656 169.59375 C 356.714844 169.589844 356.707031 169.585938 356.703125 169.582031 C 356.664062 169.570312 356.714844 169.589844 356.714844 169.59375 C 356.710938 169.589844 356.707031 169.585938 356.703125 169.582031 C 356.6875 169.570312 356.6875 169.570312 356.699219 169.585938 C 356.710938 169.597656 356.714844 169.601562 356.707031 169.589844 C 356.703125 169.585938 356.695312 169.578125 356.691406 169.574219 C 356.703125 169.570312 356.714844 169.625 356.714844 169.632812 C 356.710938 169.59375 356.71875 169.671875 356.714844 169.644531 C 356.714844 169.628906 356.707031 169.667969 356.71875 169.644531 C 356.726562 169.632812 356.730469 169.613281 356.738281 169.597656 C 356.746094 169.578125 356.75 169.574219 356.738281 169.59375 C 356.753906 169.566406 356.777344 169.539062 356.800781 169.511719 C 356.8125 169.496094 356.820312 169.492188 356.800781 169.507812 C 356.816406 169.496094 356.828125 169.484375 356.84375 169.472656 C 356.867188 169.453125 356.894531 169.433594 356.921875 169.417969 C 356.933594 169.410156 356.945312 169.402344 356.957031 169.394531 C 356.925781 169.414062 356.964844 169.390625 356.972656 169.386719 C 357 169.371094 357.03125 169.363281 357.058594 169.347656 C 357.195312 169.289062 357.328125 169.242188 357.472656 169.207031 C 357.414062 169.058594 357.359375 168.914062 357.304688 168.769531 C 357.121094 168.816406 356.953125 168.957031 356.859375 169.125 C 356.816406 169.203125 356.769531 169.28125 356.734375 169.363281 C 356.71875 169.398438 356.703125 169.429688 356.6875 169.464844 C 356.664062 169.535156 356.660156 169.597656 356.660156 169.671875 C 356.664062 169.792969 356.800781 169.894531 356.914062 169.878906 C 357.046875 169.855469 357.121094 169.75 357.121094 169.621094 C 357.117188 169.5625 357.113281 169.65625 357.109375 169.65625 C 357.109375 169.65625 357.125 169.621094 357.125 169.617188 C 357.140625 169.585938 357.152344 169.554688 357.167969 169.523438 C 357.199219 169.460938 357.230469 169.398438 357.265625 169.339844 C 357.253906 169.359375 357.265625 169.34375 357.273438 169.332031 C 357.28125 169.320312 357.292969 169.308594 357.300781 169.300781 C 357.3125 169.285156 357.320312 169.277344 357.304688 169.292969 C 357.3125 169.285156 357.324219 169.277344 357.335938 169.265625 C 357.347656 169.257812 357.355469 169.25 357.367188 169.242188 C 357.414062 169.210938 357.351562 169.246094 357.378906 169.238281 C 357.410156 169.226562 357.4375 169.214844 357.472656 169.207031 C 357.589844 169.175781 357.648438 169.011719 357.601562 168.902344 C 357.546875 168.777344 357.429688 168.738281 357.304688 168.769531 C 357.121094 168.816406 356.9375 168.882812 356.769531 168.972656 C 356.574219 169.074219 356.398438 169.21875 356.308594 169.425781 C 356.261719 169.535156 356.234375 169.648438 356.277344 169.761719 C 356.3125 169.867188 356.394531 169.941406 356.484375 169.996094 C 356.578125 170.046875 356.703125 170.074219 356.804688 170.039062 C 356.929688 169.996094 357 169.898438 357.066406 169.792969 C 357.132812 169.691406 357.144531 169.546875 357.035156 169.464844 C 356.945312 169.394531 356.785156 169.386719 356.714844 169.496094 Z M 356.714844 169.496094 " fill-opacity="1" fill-rule="nonzero"/><g clip-path="url(#829126f702)"><path fill="#ffea6c" d="M 319.984375 166.207031 C 319.710938 167.160156 319.347656 168.246094 319.917969 169.171875 C 320.765625 170.539062 322.480469 170.664062 323.867188 171.003906 C 324.121094 171.046875 324.382812 171.085938 324.640625 171.117188 C 327.878906 171.5 331.050781 171.695312 334.25 171.761719 C 334.707031 171.773438 335.164062 171.777344 335.621094 171.785156 C 340.898438 171.695312 346.273438 172.117188 351.480469 171.140625 C 352.066406 170.992188 352.640625 170.800781 353.191406 170.558594 C 353.707031 170.332031 354.167969 170.199219 354.1875 169.566406 C 354.199219 169.078125 354.011719 168.589844 353.847656 168.136719 C 353.667969 167.628906 353.433594 167.136719 353.1875 166.652344 C 352.941406 166.164062 352.675781 165.6875 352.429688 165.214844 C 352.035156 164.515625 351.6875 163.777344 351.277344 163.074219 C 351.082031 162.71875 350.886719 162.367188 350.6875 162.011719 C 350.488281 161.660156 350.289062 161.308594 350.089844 160.957031 C 348.902344 158.855469 347.695312 156.769531 346.480469 154.6875 C 344.761719 151.734375 343.046875 148.777344 341.339844 145.820312 C 340.46875 144.316406 339.601562 142.8125 338.734375 141.304688 C 338.230469 140.425781 337.773438 139.453125 337.167969 138.609375 C 337.015625 138.398438 336.855469 138.195312 336.683594 138.003906 C 336.511719 137.816406 336.324219 137.636719 336.125 137.472656 C 335.902344 137.292969 335.679688 137.1875 335.464844 137.144531 C 334.394531 136.933594 333.460938 138.277344 332.914062 139.164062 C 332.355469 140.078125 331.800781 141.03125 331.28125 141.96875 C 331.070312 142.351562 330.859375 142.734375 330.652344 143.113281 C 329.210938 145.734375 324.257812 156.367188 321.5625 162.222656 C 321.394531 162.585938 321.234375 162.933594 321.085938 163.261719 C 320.945312 163.582031 320.804688 163.902344 320.671875 164.230469 C 320.539062 164.554688 320.414062 164.882812 320.300781 165.21875 C 320.105469 165.808594 319.996094 166.160156 319.984375 166.207031 Z M 319.984375 166.207031 " fill-opacity="1" fill-rule="nonzero"/></g><path fill="#efc820" d="M 333.089844 144.746094 C 330.847656 144.746094 329.976562 148.691406 332.46875 149.199219 C 334.007812 149.515625 335.300781 147.824219 335.167969 146.363281 C 335.070312 145.234375 334.097656 144.746094 333.089844 144.746094 Z M 333.089844 144.746094 " fill-opacity="1" fill-rule="nonzero"/><path fill="#efc820" d="M 346.417969 162.175781 C 345.691406 162.128906 345.050781 162.566406 344.6875 163.199219 C 344.46875 163.574219 344.339844 163.992188 344.3125 164.410156 C 344.183594 165.597656 345.066406 166.699219 346.242188 166.859375 C 346.953125 166.945312 347.679688 166.929688 348.300781 166.507812 C 349.390625 165.738281 349.183594 164.214844 348.496094 163.289062 C 348.339844 163.058594 348.148438 162.855469 347.929688 162.6875 C 347.714844 162.523438 347.46875 162.390625 347.195312 162.308594 C 346.941406 162.230469 346.679688 162.1875 346.417969 162.175781 Z M 346.417969 162.175781 " fill-opacity="1" fill-rule="nonzero"/><path fill="#efc820" d="M 345.632812 145.339844 C 345.03125 145.300781 344.503906 145.660156 344.203125 146.179688 C 344.027344 146.492188 343.917969 146.835938 343.894531 147.179688 C 343.789062 148.164062 344.519531 149.074219 345.488281 149.203125 C 346.074219 149.277344 346.675781 149.261719 347.1875 148.914062 C 348.089844 148.277344 347.917969 147.019531 347.351562 146.257812 C 347.21875 146.066406 347.0625 145.898438 346.882812 145.761719 C 346.703125 145.625 346.5 145.515625 346.273438 145.449219 C 346.066406 145.382812 345.851562 145.347656 345.632812 145.339844 Z M 345.632812 145.339844 " fill-opacity="1" fill-rule="nonzero"/><path fill="#efc820" d="M 324.847656 164.671875 C 324.3125 164.480469 323.636719 164.445312 323.1875 164.898438 C 322.910156 165.179688 322.773438 165.53125 322.738281 165.898438 C 322.6875 166.703125 323.207031 167.441406 323.914062 167.789062 C 324.589844 168.105469 325.574219 168.105469 325.921875 167.316406 C 326.230469 166.582031 326.007812 165.6875 325.496094 165.113281 C 325.316406 164.914062 325.101562 164.757812 324.847656 164.671875 Z M 324.847656 164.671875 " fill-opacity="1" fill-rule="nonzero"/><path fill="#efc820" d="M 337.785156 148.59375 C 337.015625 148.292969 336.0625 148.605469 335.683594 149.378906 C 335.335938 150.078125 335.300781 151.007812 335.976562 151.515625 C 336.875 152.195312 338.207031 152.003906 338.828125 151.042969 C 339.261719 150.359375 338.949219 149.535156 338.464844 149.007812 C 338.277344 148.816406 338.050781 148.667969 337.785156 148.59375 Z M 337.785156 148.59375 " fill-opacity="1" fill-rule="nonzero"/><path fill="#efc820" d="M 349.507812 152.011719 C 348.882812 151.769531 348.117188 152.023438 347.808594 152.644531 C 347.53125 153.210938 347.503906 153.957031 348.046875 154.367188 C 348.773438 154.917969 349.847656 154.765625 350.347656 153.988281 C 350.699219 153.433594 350.445312 152.769531 350.054688 152.347656 C 349.90625 152.191406 349.722656 152.070312 349.507812 152.011719 Z M 349.507812 152.011719 " fill-opacity="1" fill-rule="nonzero"/><path fill="#ffffff" d="M 338.226562 159.871094 C 338.21875 159.675781 338.234375 159.480469 338.277344 159.289062 C 338.492188 158.253906 339.417969 157.46875 340.441406 157.339844 C 342.140625 157.128906 343.597656 158.96875 342.921875 160.597656 C 342.292969 162.109375 340.121094 162.496094 338.933594 161.441406 C 338.488281 161.042969 338.25 160.464844 338.226562 159.871094 Z M 338.226562 159.871094 " fill-opacity="1" fill-rule="nonzero"/><path fill="#300000" d="M 339.046875 159.785156 C 339.023438 159.507812 339.066406 159.230469 339.183594 158.976562 C 339.464844 158.367188 340.089844 158.046875 340.730469 158.035156 C 340.792969 158.03125 340.867188 158.042969 340.914062 158.089844 C 341.03125 158.207031 340.882812 158.363281 340.800781 158.449219 C 340.589844 158.679688 340.566406 158.957031 340.710938 159.230469 C 340.84375 159.472656 341.097656 159.675781 341.382812 159.648438 C 341.484375 159.640625 341.578125 159.601562 341.664062 159.542969 C 341.765625 159.472656 341.816406 159.390625 341.863281 159.28125 C 341.902344 159.191406 341.949219 159.054688 342.070312 159.089844 C 342.167969 159.113281 342.234375 159.261719 342.257812 159.351562 C 342.316406 159.59375 342.253906 159.859375 342.1875 160.09375 C 342.089844 160.4375 341.886719 160.761719 341.605469 160.976562 C 341.035156 161.410156 340.175781 161.390625 339.621094 160.9375 C 339.285156 160.65625 339.082031 160.226562 339.046875 159.785156 Z M 339.046875 159.785156 " fill-opacity="1" fill-rule="nonzero"/><path fill="#ffffff" d="M 327.269531 159.746094 C 327.261719 159.550781 327.277344 159.351562 327.316406 159.160156 C 327.535156 158.125 328.460938 157.339844 329.480469 157.214844 C 331.179688 157.003906 332.640625 158.839844 331.964844 160.472656 C 331.332031 161.984375 329.164062 162.367188 327.972656 161.3125 C 327.527344 160.917969 327.289062 160.339844 327.269531 159.746094 Z M 327.269531 159.746094 " fill-opacity="1" fill-rule="nonzero"/><path fill="#300000" d="M 328.085938 159.660156 C 328.066406 159.382812 328.109375 159.101562 328.222656 158.851562 C 328.503906 158.242188 329.128906 157.921875 329.773438 157.90625 C 329.835938 157.90625 329.90625 157.917969 329.957031 157.964844 C 330.074219 158.078125 329.921875 158.238281 329.84375 158.324219 C 329.632812 158.550781 329.605469 158.828125 329.753906 159.101562 C 329.882812 159.34375 330.140625 159.546875 330.421875 159.523438 C 330.523438 159.511719 330.621094 159.472656 330.703125 159.417969 C 330.804688 159.347656 330.859375 159.261719 330.90625 159.152344 C 330.945312 159.066406 330.988281 158.929688 331.113281 158.960938 C 331.210938 158.988281 331.277344 159.132812 331.296875 159.222656 C 331.355469 159.464844 331.296875 159.734375 331.230469 159.96875 C 331.132812 160.3125 330.929688 160.632812 330.644531 160.847656 C 330.078125 161.28125 329.214844 161.265625 328.664062 160.808594 C 328.324219 160.527344 328.121094 160.101562 328.085938 159.660156 Z M 328.085938 159.660156 " fill-opacity="1" fill-rule="nonzero"/><path fill="#f76537" d="M 342.769531 163.332031 C 342.890625 164.292969 341.953125 164.785156 341.140625 164.867188 C 340.105469 164.972656 338.605469 164.355469 338.617188 163.109375 C 338.625 162.355469 339.289062 161.925781 339.945312 161.785156 C 340.964844 161.570312 342.296875 161.875 342.683594 162.980469 C 342.726562 163.101562 342.753906 163.21875 342.769531 163.332031 Z M 342.769531 163.332031 " fill-opacity="1" fill-rule="nonzero"/><path fill="#f76537" d="M 327.507812 163.15625 C 327.367188 164.117188 328.292969 164.625 329.101562 164.726562 C 330.136719 164.859375 331.648438 164.277344 331.664062 163.027344 C 331.671875 162.273438 331.019531 161.828125 330.363281 161.675781 C 329.351562 161.433594 328.015625 161.710938 327.601562 162.804688 C 327.554688 162.925781 327.523438 163.042969 327.507812 163.15625 Z M 327.507812 163.15625 " fill-opacity="1" fill-rule="nonzero"/><path fill="#300000" d="M 336.800781 161.542969 C 336.660156 161.984375 336.503906 162.472656 336.152344 162.792969 C 335.824219 163.089844 335.390625 163.234375 334.953125 163.183594 C 334.117188 163.082031 333.570312 162.292969 333.433594 161.503906 C 333.402344 161.332031 333.472656 161.15625 333.648438 161.105469 C 333.800781 161.058594 334.011719 161.152344 334.042969 161.324219 C 334.070312 161.476562 334.109375 161.625 334.164062 161.769531 C 334.1875 161.828125 334.164062 161.769531 334.1875 161.824219 C 334.207031 161.863281 334.226562 161.898438 334.246094 161.9375 C 334.285156 162.003906 334.324219 162.070312 334.371094 162.136719 C 334.519531 162.339844 334.742188 162.5 335.011719 162.542969 C 335.253906 162.582031 335.539062 162.496094 335.71875 162.320312 C 335.964844 162.082031 336.078125 161.714844 336.183594 161.386719 C 336.238281 161.21875 336.398438 161.105469 336.570312 161.152344 C 336.730469 161.191406 336.855469 161.378906 336.800781 161.542969 Z M 336.800781 161.542969 " fill-opacity="1" fill-rule="nonzero"/><g clip-path="url(#6bc8bd360f)"><path fill="#545454" d="M 369.15625 136.5 C 369.050781 134.238281 367.960938 132.140625 366.558594 130.410156 C 365.402344 128.980469 363.828125 127.8125 361.988281 127.488281 C 358.691406 126.910156 355.519531 128.863281 353.40625 131.25 C 352.390625 132.398438 351.527344 133.714844 351.007812 135.164062 C 350.609375 136.269531 350.40625 137.582031 350.953125 138.671875 C 351.003906 138.773438 351.0625 138.867188 351.125 138.960938 C 350.855469 139.359375 350.539062 139.738281 350.242188 140.113281 C 349.710938 140.789062 349.160156 141.480469 348.515625 142.046875 C 348.164062 142.355469 348.449219 142.964844 348.890625 142.957031 C 350.367188 142.9375 351.828125 142.625 353.257812 142.273438 C 354.378906 143.773438 355.910156 144.921875 357.746094 145.390625 C 359.523438 145.84375 361.441406 145.664062 363.140625 144.996094 C 366.585938 143.632812 369.332031 140.335938 369.15625 136.5 Z M 362.9375 128.871094 C 362.921875 128.863281 362.90625 128.859375 362.9375 128.871094 Z M 367.304688 140.027344 C 366.53125 141.496094 365.332031 142.660156 363.894531 143.464844 C 362.46875 144.265625 360.855469 144.675781 359.207031 144.558594 C 358.492188 144.503906 357.601562 144.289062 356.9375 143.984375 C 356.121094 143.609375 355.433594 143.113281 354.816406 142.476562 C 354.492188 142.144531 354.199219 141.78125 353.9375 141.398438 C 353.800781 141.199219 353.578125 141.09375 353.335938 141.152344 C 352.316406 141.410156 351.289062 141.660156 350.246094 141.792969 C 350.519531 141.46875 350.78125 141.136719 351.039062 140.808594 C 351.453125 140.289062 351.898438 139.761719 352.242188 139.191406 C 352.335938 139.035156 352.335938 138.882812 352.285156 138.753906 C 352.261719 138.679688 352.222656 138.609375 352.15625 138.542969 C 352.117188 138.503906 352.082031 138.460938 352.042969 138.421875 C 352.039062 138.414062 352.035156 138.410156 352.03125 138.410156 C 352.027344 138.398438 352.019531 138.386719 352.011719 138.371094 C 351.949219 138.277344 351.898438 138.179688 351.847656 138.082031 C 351.84375 138.074219 351.839844 138.070312 351.835938 138.0625 C 351.835938 138.058594 351.832031 138.050781 351.832031 138.039062 C 351.816406 137.988281 351.796875 137.941406 351.78125 137.890625 C 351.746094 137.777344 351.726562 137.660156 351.703125 137.546875 C 351.703125 137.515625 351.699219 137.488281 351.695312 137.457031 C 351.691406 137.398438 351.6875 137.34375 351.6875 137.285156 C 351.683594 137.15625 351.6875 137.027344 351.695312 136.898438 C 351.699219 136.835938 351.707031 136.773438 351.710938 136.714844 C 351.714844 136.695312 351.714844 136.679688 351.714844 136.671875 C 351.714844 136.664062 351.71875 136.652344 351.722656 136.628906 C 351.75 136.480469 351.777344 136.335938 351.8125 136.1875 C 351.882812 135.894531 351.972656 135.605469 352.078125 135.324219 C 352.105469 135.257812 352.132812 135.1875 352.160156 135.121094 C 352.164062 135.109375 352.1875 135.054688 352.191406 135.039062 C 352.199219 135.027344 352.203125 135.011719 352.210938 135 C 352.285156 134.828125 352.363281 134.664062 352.449219 134.496094 C 352.773438 133.863281 353.15625 133.265625 353.582031 132.699219 C 353.648438 132.613281 353.734375 132.503906 353.851562 132.363281 C 353.976562 132.214844 354.101562 132.066406 354.230469 131.925781 C 354.488281 131.636719 354.761719 131.359375 355.046875 131.09375 C 355.625 130.546875 356.113281 130.160156 356.78125 129.742188 C 357.4375 129.328125 358.042969 129.027344 358.710938 128.808594 C 359.445312 128.5625 360.027344 128.453125 360.742188 128.449219 C 361.484375 128.441406 362.070312 128.542969 362.804688 128.820312 C 362.855469 128.839844 362.902344 128.859375 362.949219 128.878906 C 362.957031 128.882812 362.964844 128.886719 362.976562 128.890625 C 363.058594 128.925781 363.140625 128.964844 363.222656 129.007812 C 363.417969 129.101562 363.605469 129.207031 363.789062 129.320312 C 364.164062 129.550781 364.441406 129.765625 364.761719 130.054688 C 365.515625 130.734375 366.136719 131.539062 366.667969 132.402344 C 367.214844 133.285156 367.667969 134.210938 367.910156 135.226562 C 368.296875 136.851562 368.070312 138.570312 367.304688 140.03125 Z M 367.304688 140.027344 " fill-opacity="1" fill-rule="nonzero"/></g><path fill="#545454" d="M 359.136719 133.914062 C 359.296875 134.5625 359.460938 135.214844 359.597656 135.871094 C 358.652344 136.035156 357.6875 136.152344 356.75 136.378906 C 356.660156 135.785156 356.601562 135.1875 356.609375 134.585938 C 356.621094 133.898438 355.554688 133.898438 355.542969 134.585938 C 355.515625 136.292969 356.054688 137.933594 356.191406 139.621094 C 356.21875 139.910156 356.421875 140.15625 356.726562 140.15625 C 356.996094 140.15625 357.28125 139.910156 357.257812 139.621094 C 357.199219 138.886719 357.0625 138.160156 356.929688 137.433594 C 357.867188 137.195312 358.839844 137.078125 359.792969 136.914062 C 359.925781 137.757812 359.992188 138.609375 359.929688 139.460938 C 359.882812 140.144531 360.949219 140.140625 360.996094 139.460938 C 361.136719 137.496094 360.628906 135.523438 360.164062 133.632812 C 360 132.964844 358.972656 133.25 359.136719 133.914062 Z M 359.136719 133.914062 " fill-opacity="1" fill-rule="nonzero"/><path fill="#545454" d="M 363.921875 135.234375 C 363.875 134.554688 362.808594 134.550781 362.855469 135.234375 C 362.949219 136.597656 363.234375 137.9375 363.34375 139.296875 C 363.367188 139.585938 363.570312 139.832031 363.875 139.832031 C 364.144531 139.832031 364.429688 139.585938 364.40625 139.296875 C 364.300781 137.9375 364.015625 136.597656 363.921875 135.234375 Z M 363.921875 135.234375 " fill-opacity="1" fill-rule="nonzero"/><path fill="#545454" d="M 363.0625 132.914062 C 362.378906 132.914062 362.375 133.980469 363.0625 133.980469 C 363.75 133.980469 363.75 132.914062 363.0625 132.914062 Z M 363.0625 132.914062 " fill-opacity="1" fill-rule="nonzero"/></svg>