<svg xmlns="http://www.w3.org/2000/svg" xmlns:xlink="http://www.w3.org/1999/xlink" width="500" zoomAndPan="magnify" viewBox="0 0 375 374.999991" height="500" preserveAspectRatio="xMidYMid meet" version="1.0"><defs><g/></defs><g fill="#000000" fill-opacity="1"><g transform="translate(21.684514, 204.566604)"><g><path d="M 2.46875 -31.015625 C 2.15625 -31.503906 1.863281 -32.171875 1.59375 -33.015625 C 1.332031 -33.859375 1.203125 -34.742188 1.203125 -35.671875 C 1.203125 -37.398438 1.585938 -38.640625 2.359375 -39.390625 C 3.140625 -40.148438 4.148438 -40.53125 5.390625 -40.53125 L 34.40625 -40.53125 C 34.71875 -40.039062 35.003906 -39.375 35.265625 -38.53125 C 35.535156 -37.695312 35.671875 -36.8125 35.671875 -35.875 C 35.671875 -34.144531 35.28125 -32.898438 34.5 -32.140625 C 33.726562 -31.390625 32.722656 -31.015625 31.484375 -31.015625 L 24.09375 -31.015625 L 24.09375 -0.265625 C 23.601562 -0.128906 22.835938 0 21.796875 0.125 C 20.753906 0.257812 19.722656 0.328125 18.703125 0.328125 C 17.679688 0.328125 16.78125 0.25 16 0.09375 C 15.226562 -0.0625 14.578125 -0.335938 14.046875 -0.734375 C 13.515625 -1.128906 13.113281 -1.679688 12.84375 -2.390625 C 12.582031 -3.109375 12.453125 -4.039062 12.453125 -5.1875 L 12.453125 -31.015625 Z M 2.46875 -31.015625 "/></g></g></g><g fill="#000000" fill-opacity="1"><g transform="translate(58.693281, 204.566604)"><g><path d="M 15.96875 -0.265625 C 15.488281 -0.128906 14.722656 0 13.671875 0.125 C 12.628906 0.257812 11.597656 0.328125 10.578125 0.328125 C 9.554688 0.328125 8.65625 0.25 7.875 0.09375 C 7.101562 -0.0625 6.453125 -0.335938 5.921875 -0.734375 C 5.390625 -1.128906 4.988281 -1.679688 4.71875 -2.390625 C 4.457031 -3.109375 4.328125 -4.039062 4.328125 -5.1875 L 4.328125 -40.34375 C 4.816406 -40.425781 5.59375 -40.546875 6.65625 -40.703125 C 7.71875 -40.859375 8.738281 -40.9375 9.71875 -40.9375 C 10.738281 -40.9375 11.632812 -40.859375 12.40625 -40.703125 C 13.1875 -40.546875 13.84375 -40.265625 14.375 -39.859375 C 14.90625 -39.460938 15.300781 -38.910156 15.5625 -38.203125 C 15.832031 -37.492188 15.96875 -36.5625 15.96875 -35.40625 Z M 15.96875 -0.265625 "/></g></g></g><g fill="#000000" fill-opacity="1"><g transform="translate(78.994854, 204.566604)"><g><path d="M 32.21875 -9.921875 C 31.632812 -9.429688 30.890625 -9.039062 29.984375 -8.75 C 29.078125 -8.457031 28.023438 -8.3125 26.828125 -8.3125 C 25.222656 -8.3125 23.898438 -8.507812 22.859375 -8.90625 C 21.816406 -9.3125 21.140625 -10.003906 20.828125 -10.984375 C 19.585938 -14.890625 18.566406 -18.050781 17.765625 -20.46875 C 16.972656 -22.882812 16.351562 -25.003906 15.90625 -26.828125 L 15.578125 -26.828125 C 15.441406 -24.203125 15.335938 -21.8125 15.265625 -19.65625 C 15.203125 -17.507812 15.160156 -15.414062 15.140625 -13.375 C 15.117188 -11.332031 15.070312 -9.269531 15 -7.1875 C 14.9375 -5.101562 14.835938 -2.796875 14.703125 -0.265625 C 14.128906 -0.046875 13.375 0.140625 12.4375 0.296875 C 11.507812 0.453125 10.582031 0.53125 9.65625 0.53125 C 7.695312 0.53125 6.175781 0.222656 5.09375 -0.390625 C 4.007812 -1.015625 3.46875 -2.148438 3.46875 -3.796875 L 5.390625 -37.734375 C 5.742188 -38.316406 6.519531 -38.941406 7.71875 -39.609375 C 8.914062 -40.273438 10.601562 -40.609375 12.78125 -40.609375 C 15.132812 -40.609375 16.972656 -40.238281 18.296875 -39.5 C 19.628906 -38.769531 20.609375 -37.582031 21.234375 -35.9375 C 21.628906 -34.875 22.0625 -33.65625 22.53125 -32.28125 C 23 -30.90625 23.460938 -29.484375 23.921875 -28.015625 C 24.390625 -26.554688 24.84375 -25.101562 25.28125 -23.65625 C 25.726562 -22.21875 26.128906 -20.921875 26.484375 -19.765625 L 26.828125 -19.765625 C 27.890625 -23.492188 28.953125 -27.097656 30.015625 -30.578125 C 31.078125 -34.066406 32.054688 -36.988281 32.953125 -39.34375 C 33.617188 -39.695312 34.472656 -39.992188 35.515625 -40.234375 C 36.554688 -40.484375 37.71875 -40.609375 39 -40.609375 C 41.175781 -40.609375 42.953125 -40.285156 44.328125 -39.640625 C 45.703125 -38.992188 46.503906 -38.070312 46.734375 -36.875 C 46.910156 -35.988281 47.097656 -34.625 47.296875 -32.78125 C 47.492188 -30.9375 47.703125 -28.859375 47.921875 -26.546875 C 48.140625 -24.242188 48.359375 -21.804688 48.578125 -19.234375 C 48.804688 -16.660156 49.019531 -14.1875 49.21875 -11.8125 C 49.414062 -9.4375 49.582031 -7.257812 49.71875 -5.28125 C 49.851562 -3.3125 49.941406 -1.796875 49.984375 -0.734375 C 49.234375 -0.285156 48.445312 0.0351562 47.625 0.234375 C 46.800781 0.429688 45.75 0.53125 44.46875 0.53125 C 42.78125 0.53125 41.359375 0.242188 40.203125 -0.328125 C 39.046875 -0.910156 38.425781 -2.046875 38.34375 -3.734375 C 38.070312 -8.566406 37.898438 -12.910156 37.828125 -16.765625 C 37.765625 -20.628906 37.671875 -23.867188 37.546875 -26.484375 L 37.203125 -26.484375 C 36.765625 -24.753906 36.125 -22.582031 35.28125 -19.96875 C 34.4375 -17.351562 33.414062 -14.003906 32.21875 -9.921875 Z M 32.21875 -9.921875 "/></g></g></g><g fill="#000000" fill-opacity="1"><g transform="translate(132.045193, 204.566604)"><g><path d="M 4.328125 -34.140625 C 4.328125 -36.054688 4.878906 -37.566406 5.984375 -38.671875 C 7.097656 -39.785156 8.609375 -40.34375 10.515625 -40.34375 L 32.484375 -40.34375 C 32.796875 -39.851562 33.070312 -39.207031 33.3125 -38.40625 C 33.5625 -37.601562 33.6875 -36.757812 33.6875 -35.875 C 33.6875 -34.1875 33.316406 -32.988281 32.578125 -32.28125 C 31.847656 -31.570312 30.882812 -31.21875 29.6875 -31.21875 L 15.640625 -31.21875 L 15.640625 -25.03125 L 30.625 -25.03125 C 30.925781 -24.539062 31.195312 -23.90625 31.4375 -23.125 C 31.6875 -22.351562 31.8125 -21.523438 31.8125 -20.640625 C 31.8125 -18.953125 31.457031 -17.75 30.75 -17.03125 C 30.039062 -16.320312 29.085938 -15.96875 27.890625 -15.96875 L 15.640625 -15.96875 L 15.640625 -8.984375 L 32.75 -8.984375 C 33.0625 -8.492188 33.335938 -7.847656 33.578125 -7.046875 C 33.828125 -6.253906 33.953125 -5.414062 33.953125 -4.53125 C 33.953125 -2.84375 33.582031 -1.628906 32.84375 -0.890625 C 32.113281 -0.160156 31.148438 0.203125 29.953125 0.203125 L 10.515625 0.203125 C 8.609375 0.203125 7.097656 -0.347656 5.984375 -1.453125 C 4.878906 -2.566406 4.328125 -4.078125 4.328125 -5.984375 Z M 4.328125 -34.140625 "/></g></g></g><g fill="#000000" fill-opacity="1"><g transform="translate(168.521454, 204.566604)"><g><path d="M 22.96875 -30.484375 C 23.457031 -30.703125 24.222656 -30.957031 25.265625 -31.25 C 26.304688 -31.539062 27.359375 -31.6875 28.421875 -31.6875 C 30.285156 -31.6875 31.835938 -31.40625 33.078125 -30.84375 C 34.316406 -30.289062 35.070312 -29.484375 35.34375 -28.421875 C 35.832031 -26.597656 36.285156 -24.898438 36.703125 -23.328125 C 37.128906 -21.753906 37.539062 -20.242188 37.9375 -18.796875 C 38.34375 -17.359375 38.734375 -15.925781 39.109375 -14.5 C 39.484375 -13.082031 39.847656 -11.597656 40.203125 -10.046875 L 40.53125 -10.046875 C 40.9375 -12.753906 41.289062 -15.335938 41.59375 -17.796875 C 41.90625 -20.265625 42.191406 -22.6875 42.453125 -25.0625 C 42.722656 -27.4375 42.992188 -29.785156 43.265625 -32.109375 C 43.535156 -34.441406 43.800781 -36.804688 44.0625 -39.203125 C 45.707031 -40.140625 47.460938 -40.609375 49.328125 -40.609375 C 50.960938 -40.609375 52.378906 -40.25 53.578125 -39.53125 C 54.773438 -38.820312 55.375 -37.625 55.375 -35.9375 C 55.375 -34.96875 55.273438 -33.582031 55.078125 -31.78125 C 54.878906 -29.988281 54.613281 -27.984375 54.28125 -25.765625 C 53.945312 -23.546875 53.554688 -21.210938 53.109375 -18.765625 C 52.671875 -16.328125 52.207031 -14 51.71875 -11.78125 C 51.226562 -9.5625 50.726562 -7.550781 50.21875 -5.75 C 49.707031 -3.957031 49.234375 -2.570312 48.796875 -1.59375 C 48.128906 -0.976562 47.039062 -0.46875 45.53125 -0.0625 C 44.019531 0.332031 42.46875 0.53125 40.875 0.53125 C 38.78125 0.53125 37.015625 0.253906 35.578125 -0.296875 C 34.140625 -0.847656 33.265625 -1.632812 32.953125 -2.65625 C 32.367188 -4.4375 31.742188 -6.546875 31.078125 -8.984375 C 30.421875 -11.421875 29.710938 -14.109375 28.953125 -17.046875 C 28.328125 -14.160156 27.679688 -11.335938 27.015625 -8.578125 C 26.359375 -5.828125 25.765625 -3.5 25.234375 -1.59375 C 24.566406 -0.976562 23.566406 -0.46875 22.234375 -0.0625 C 20.898438 0.332031 19.4375 0.53125 17.84375 0.53125 C 15.84375 0.53125 14.03125 0.253906 12.40625 -0.296875 C 10.789062 -0.847656 9.738281 -1.632812 9.25 -2.65625 C 8.851562 -3.457031 8.421875 -4.644531 7.953125 -6.21875 C 7.484375 -7.800781 7.003906 -9.597656 6.515625 -11.609375 C 6.035156 -13.628906 5.539062 -15.816406 5.03125 -18.171875 C 4.519531 -20.523438 4.050781 -22.875 3.625 -25.21875 C 3.207031 -27.570312 2.820312 -29.867188 2.46875 -32.109375 C 2.113281 -34.359375 1.84375 -36.410156 1.65625 -38.265625 C 2.28125 -38.847656 3.144531 -39.382812 4.25 -39.875 C 5.363281 -40.363281 6.566406 -40.609375 7.859375 -40.609375 C 9.546875 -40.609375 10.929688 -40.238281 12.015625 -39.5 C 13.097656 -38.769531 13.773438 -37.539062 14.046875 -35.8125 C 14.753906 -31.28125 15.335938 -27.503906 15.796875 -24.484375 C 16.265625 -21.472656 16.644531 -19 16.9375 -17.0625 C 17.226562 -15.132812 17.4375 -13.640625 17.5625 -12.578125 C 17.695312 -11.515625 17.832031 -10.671875 17.96875 -10.046875 L 18.296875 -10.046875 C 18.703125 -11.828125 19.082031 -13.46875 19.4375 -14.96875 C 19.789062 -16.476562 20.15625 -18 20.53125 -19.53125 C 20.90625 -21.0625 21.289062 -22.703125 21.6875 -24.453125 C 22.09375 -26.210938 22.519531 -28.222656 22.96875 -30.484375 Z M 22.96875 -30.484375 "/></g></g></g><g fill="#000000" fill-opacity="1"><g transform="translate(225.964911, 204.566604)"><g><path d="M 2.328125 -20.234375 C 2.328125 -23.691406 2.867188 -26.753906 3.953125 -29.421875 C 5.046875 -32.085938 6.535156 -34.316406 8.421875 -36.109375 C 10.304688 -37.910156 12.523438 -39.273438 15.078125 -40.203125 C 17.628906 -41.128906 20.390625 -41.59375 23.359375 -41.59375 C 26.335938 -41.59375 29.101562 -41.128906 31.65625 -40.203125 C 34.207031 -39.273438 36.4375 -37.910156 38.34375 -36.109375 C 40.25 -34.316406 41.742188 -32.085938 42.828125 -29.421875 C 43.921875 -26.753906 44.46875 -23.691406 44.46875 -20.234375 C 44.46875 -16.773438 43.929688 -13.703125 42.859375 -11.015625 C 41.796875 -8.328125 40.320312 -6.082031 38.4375 -4.28125 C 36.550781 -2.488281 34.320312 -1.125 31.75 -0.1875 C 29.175781 0.738281 26.378906 1.203125 23.359375 1.203125 C 20.347656 1.203125 17.550781 0.726562 14.96875 -0.21875 C 12.394531 -1.175781 10.175781 -2.566406 8.3125 -4.390625 C 6.457031 -6.210938 4.992188 -8.453125 3.921875 -11.109375 C 2.859375 -13.773438 2.328125 -16.816406 2.328125 -20.234375 Z M 14.3125 -20.234375 C 14.3125 -16.191406 15.128906 -13.171875 16.765625 -11.171875 C 18.410156 -9.179688 20.609375 -8.1875 23.359375 -8.1875 C 26.160156 -8.1875 28.378906 -9.179688 30.015625 -11.171875 C 31.660156 -13.171875 32.484375 -16.191406 32.484375 -20.234375 C 32.484375 -24.222656 31.671875 -27.21875 30.046875 -29.21875 C 28.429688 -31.21875 26.226562 -32.21875 23.4375 -32.21875 C 20.675781 -32.21875 18.460938 -31.226562 16.796875 -29.25 C 15.140625 -27.28125 14.3125 -24.273438 14.3125 -20.234375 Z M 14.3125 -20.234375 "/></g></g></g><g fill="#000000" fill-opacity="1"><g transform="translate(272.758352, 204.566604)"><g><path d="M 15.90625 -13.046875 L 15.90625 -0.265625 C 15.414062 -0.128906 14.648438 0 13.609375 0.125 C 12.566406 0.257812 11.535156 0.328125 10.515625 0.328125 C 9.492188 0.328125 8.59375 0.25 7.8125 0.09375 C 7.039062 -0.0625 6.398438 -0.335938 5.890625 -0.734375 C 5.378906 -1.128906 4.988281 -1.679688 4.71875 -2.390625 C 4.457031 -3.109375 4.328125 -4.039062 4.328125 -5.1875 L 4.328125 -36.546875 C 4.328125 -37.472656 4.582031 -38.191406 5.09375 -38.703125 C 5.601562 -39.210938 6.300781 -39.625 7.1875 -39.9375 C 8.695312 -40.46875 10.445312 -40.851562 12.4375 -41.09375 C 14.4375 -41.34375 16.570312 -41.46875 18.84375 -41.46875 C 24.957031 -41.46875 29.566406 -40.179688 32.671875 -37.609375 C 35.785156 -35.035156 37.34375 -31.550781 37.34375 -27.15625 C 37.34375 -24.40625 36.628906 -22.050781 35.203125 -20.09375 C 33.785156 -18.144531 32.101562 -16.640625 30.15625 -15.578125 C 31.75 -13.398438 33.320312 -11.359375 34.875 -9.453125 C 36.425781 -7.546875 37.648438 -5.816406 38.546875 -4.265625 C 38.097656 -2.710938 37.285156 -1.523438 36.109375 -0.703125 C 34.929688 0.117188 33.613281 0.53125 32.15625 0.53125 C 31.175781 0.53125 30.332031 0.414062 29.625 0.1875 C 28.914062 -0.03125 28.289062 -0.335938 27.75 -0.734375 C 27.21875 -1.128906 26.726562 -1.613281 26.28125 -2.1875 C 25.84375 -2.769531 25.425781 -3.394531 25.03125 -4.0625 L 19.4375 -13.046875 Z M 20.109375 -21.90625 C 21.785156 -21.90625 23.113281 -22.335938 24.09375 -23.203125 C 25.070312 -24.066406 25.5625 -25.34375 25.5625 -27.03125 C 25.5625 -28.707031 25.015625 -29.976562 23.921875 -30.84375 C 22.835938 -31.71875 21.117188 -32.15625 18.765625 -32.15625 C 18.097656 -32.15625 17.566406 -32.128906 17.171875 -32.078125 C 16.773438 -32.035156 16.332031 -31.972656 15.84375 -31.890625 L 15.84375 -21.90625 Z M 20.109375 -21.90625 "/></g></g></g><g fill="#004aad" fill-opacity="1"><g transform="translate(313.300197, 204.566604)"><g><path d="M 1.53125 -35.40625 C 1.75 -36.03125 2.054688 -36.648438 2.453125 -37.265625 C 2.859375 -37.890625 3.359375 -38.457031 3.953125 -38.96875 C 4.554688 -39.476562 5.253906 -39.898438 6.046875 -40.234375 C 6.847656 -40.566406 7.738281 -40.734375 8.71875 -40.734375 C 10.007812 -40.734375 11.140625 -40.410156 12.109375 -39.765625 C 13.085938 -39.128906 14.085938 -38.03125 15.109375 -36.46875 L 20.296875 -28.5625 L 27.953125 -39.875 C 28.304688 -40.050781 28.804688 -40.21875 29.453125 -40.375 C 30.097656 -40.53125 30.726562 -40.609375 31.34375 -40.609375 C 33.382812 -40.609375 34.984375 -40.117188 36.140625 -39.140625 C 37.296875 -38.160156 37.875 -36.960938 37.875 -35.546875 C 37.875 -34.304688 37.550781 -33.195312 36.90625 -32.21875 C 36.257812 -31.238281 35.382812 -30.0625 34.28125 -28.6875 L 27.421875 -20.296875 L 38.265625 -4.796875 C 37.910156 -3.148438 37.144531 -1.847656 35.96875 -0.890625 C 34.800781 0.0546875 33.21875 0.53125 31.21875 0.53125 C 29.925781 0.53125 28.8125 0.210938 27.875 -0.421875 C 26.945312 -1.066406 26 -2.171875 25.03125 -3.734375 L 19.640625 -12.25 L 11.25 0.40625 C 10.894531 0.445312 10.5625 0.476562 10.25 0.5 C 9.9375 0.519531 9.625 0.53125 9.3125 0.53125 C 6.789062 0.53125 4.929688 0.0195312 3.734375 -1 C 2.535156 -2.019531 1.9375 -3.285156 1.9375 -4.796875 C 1.9375 -6.078125 2.210938 -7.191406 2.765625 -8.140625 C 3.316406 -9.097656 4.101562 -10.222656 5.125 -11.515625 L 12.109375 -20.5 Z M 1.53125 -35.40625 "/></g></g></g></svg>